<svg width="24" height="24" viewBox="0 0 24 24" fill="none" xmlns="http://www.w3.org/2000/svg">
<path d="M13.9956 4.89635C13.9956 4.3587 13.9956 4.08987 14.1044 3.88452C14.2001 3.70389 14.3526 3.55703 14.5404 3.46498C14.7539 3.36035 15.0332 3.36035 15.5921 3.36035H19.3839C19.9427 3.36035 20.2221 3.36035 20.4356 3.46498C20.6234 3.55703 20.7759 3.70389 20.8716 3.88452C20.9804 4.08987 20.9804 4.3587 20.9804 4.89635V8.54435C20.9804 9.082 20.9804 9.35083 20.8716 9.55618C20.7759 9.73686 20.6234 9.88365 20.4356 9.97571C20.2221 10.0804 19.9427 10.0804 19.3839 10.0804H15.5921C15.0332 10.0804 14.7539 10.0804 14.5404 9.97571C14.3526 9.88365 14.2001 9.73686 14.1044 9.55618C13.9956 9.35083 13.9956 9.082 13.9956 8.54435V4.89635Z" stroke="#64717E" stroke-linecap="round" stroke-linejoin="round"/>
<path d="M3.01953 4.89635C3.01953 4.3587 3.01953 4.08987 3.12828 3.88452C3.22396 3.70389 3.3766 3.55703 3.56435 3.46498C3.7778 3.36035 4.05722 3.36035 4.61605 3.36035H8.40778C8.96661 3.36035 9.24603 3.36035 9.45948 3.46498C9.64723 3.55703 9.79988 3.70389 9.89555 3.88452C10.0043 4.08987 10.0043 4.3587 10.0043 4.89635V8.54435C10.0043 9.082 10.0043 9.35083 9.89555 9.55618C9.79988 9.73686 9.64723 9.88365 9.45948 9.97571C9.24603 10.0804 8.96661 10.0804 8.40778 10.0804H4.61605C4.05722 10.0804 3.7778 10.0804 3.56435 9.97571C3.3766 9.88365 3.22396 9.73686 3.12828 9.55618C3.01953 9.35083 3.01953 9.082 3.01953 8.54435V4.89635Z" stroke="#64717E" stroke-linecap="round" stroke-linejoin="round"/>
<path d="M3.01953 15.4559C3.01953 14.9182 3.01953 14.6494 3.12828 14.4441C3.22396 14.2634 3.3766 14.1166 3.56435 14.0246C3.7778 13.9199 4.05722 13.9199 4.61605 13.9199H8.40778C8.96661 13.9199 9.24603 13.9199 9.45948 14.0246C9.64723 14.1166 9.79988 14.2634 9.89555 14.4441C10.0043 14.6494 10.0043 14.9182 10.0043 15.4559V19.1039C10.0043 19.6416 10.0043 19.9104 9.89555 20.1158C9.79988 20.2964 9.64723 20.4432 9.45948 20.5353C9.24603 20.6399 8.96661 20.6399 8.40778 20.6399H4.61605C4.05722 20.6399 3.7778 20.6399 3.56435 20.5353C3.3766 20.4432 3.22396 20.2964 3.12828 20.1158C3.01953 19.9104 3.01953 19.6416 3.01953 19.1039V15.4559Z" stroke="#64717E" stroke-linecap="round" stroke-linejoin="round"/>
<path d="M13.9956 15.4559C13.9956 14.9182 13.9956 14.6494 14.1044 14.4441C14.2001 14.2634 14.3526 14.1166 14.5404 14.0246C14.7539 13.9199 15.0332 13.9199 15.5921 13.9199H19.3839C19.9427 13.9199 20.2221 13.9199 20.4356 14.0246C20.6234 14.1166 20.7759 14.2634 20.8716 14.4441C20.9804 14.6494 20.9804 14.9182 20.9804 15.4559V19.1039C20.9804 19.6416 20.9804 19.9104 20.8716 20.1158C20.7759 20.2964 20.6234 20.4432 20.4356 20.5353C20.2221 20.6399 19.9427 20.6399 19.3839 20.6399H15.5921C15.0332 20.6399 14.7539 20.6399 14.5404 20.5353C14.3526 20.4432 14.2001 20.2964 14.1044 20.1158C13.9956 19.9104 13.9956 19.6416 13.9956 19.1039V15.4559Z" stroke="#64717E" stroke-linecap="round" stroke-linejoin="round"/>
</svg>
