<svg width="24" height="24" viewBox="0 0 24 24" fill="none" xmlns="http://www.w3.org/2000/svg">
<path d="M10.9746 1.64453C11.5514 1.10457 12.4486 1.10457 13.0254 1.64453L14.2539 2.79492C14.791 3.29748 15.5224 3.53764 16.2529 3.45215L18.0361 3.24414C18.7562 3.15988 19.4339 3.60247 19.6455 4.2959L20.0645 5.66895C20.2145 6.16055 20.5127 6.59396 20.918 6.91016L22.6084 8.22949C23.0981 8.61152 23.3013 9.25559 23.1201 9.84961L22.624 11.4775C22.4675 11.9906 22.4802 12.5406 22.6602 13.0459L23.0449 14.127C23.2617 14.7357 23.064 15.4149 22.5547 15.8125L20.918 17.0898C20.5127 17.406 20.2145 17.8395 20.0645 18.3311L19.5908 19.8848C19.3982 20.5158 18.815 20.9473 18.1553 20.9473H16.4248C15.9302 20.9474 15.4463 21.0932 15.0352 21.3682L12.9238 22.7803C12.386 23.1399 11.6782 23.1146 11.168 22.7168L9.68164 21.5576C9.16327 21.1533 8.50646 20.9695 7.85352 21.0459L6.25977 21.2324C5.44648 21.3275 4.70701 20.7521 4.59863 19.9404L4.45801 18.8897C4.34533 18.0458 3.81112 17.317 3.04004 16.9561L2.08594 16.5098C1.49285 16.2321 1.14868 15.6012 1.23535 14.9522L1.5293 12.7529C1.57671 12.3974 1.54709 12.0355 1.44238 11.6924L0.912109 9.95606C0.71903 9.32341 0.962849 8.63819 1.5127 8.27051L3.50293 6.93945C3.98218 6.61899 4.33652 6.14318 4.50488 5.5918L4.8916 4.32227C5.10607 3.62012 5.79766 3.17611 6.52539 3.27344L7.72168 3.43359C8.46484 3.53285 9.21329 3.29352 9.76074 2.78125L10.9746 1.64453Z" stroke="#64717E"/>
<path d="M14.5 13.75C15.4665 13.75 16.25 14.5335 16.25 15.5C16.25 16.4665 15.4665 17.25 14.5 17.25C13.5335 17.25 12.75 16.4665 12.75 15.5C12.75 14.5335 13.5335 13.75 14.5 13.75ZM9.5 6.75C10.4665 6.75 11.25 7.5335 11.25 8.5C11.25 9.4665 10.4665 10.25 9.5 10.25C8.5335 10.25 7.75 9.4665 7.75 8.5C7.75 7.5335 8.5335 6.75 9.5 6.75Z" stroke="#64717E" stroke-width="1.5" stroke-linecap="round"/>
<path d="M17 7L7 17" stroke="#64717E" stroke-width="1.5" stroke-linecap="round"/>
</svg>
