<svg width="24" height="24" viewBox="0 0 24 24" fill="none" xmlns="http://www.w3.org/2000/svg">
<path d="M3.22523 6.52416C3.6087 6.26774 3.89174 5.88664 4.0264 5.44542L4.41359 4.17675C4.69939 3.24029 5.62114 2.64842 6.5916 2.77821L7.78748 2.93814C8.38228 3.01769 8.98137 2.82596 9.41945 2.41584L10.6332 1.2796C11.4022 0.55966 12.5978 0.55966 13.3668 1.2796L14.5952 2.42956C15.0249 2.83181 15.6099 3.02437 16.1945 2.95596L17.9783 2.74722C18.9384 2.63487 19.8415 3.22529 20.1237 4.14986L20.5428 5.52326C20.6629 5.91661 20.9013 6.26339 21.2255 6.51635L22.916 7.83516C23.569 8.34457 23.8404 9.20374 23.5987 9.99586L23.102 11.6232C22.9767 12.0337 22.9868 12.4736 23.1308 12.8779L23.5158 13.9593C23.8049 14.7712 23.5414 15.6769 22.8619 16.207L21.2255 17.4836C20.9013 17.7366 20.6629 18.0834 20.5428 18.4767L20.0686 20.0306C19.8118 20.872 19.0354 21.4468 18.1557 21.4468H16.4253C16.0295 21.4468 15.6426 21.5643 15.3135 21.7843L13.2019 23.1963C12.4846 23.676 11.5404 23.6414 10.86 23.1106L9.37455 21.9518C8.95982 21.6282 8.43433 21.4811 7.91189 21.5422L6.31807 21.7287C5.23357 21.8556 4.24772 21.0893 4.10321 20.007L3.96283 18.9557C3.87269 18.2806 3.44517 17.6977 2.82831 17.409L1.87414 16.9624C1.08332 16.5922 0.624053 15.7518 0.739615 14.8863L1.03325 12.6871C1.07124 12.4026 1.04754 12.1132 0.96374 11.8386L0.433585 10.1015C0.176146 9.25801 0.501621 8.34542 1.23475 7.85518L3.22523 6.52416Z" fill="#ECB264"/>
<path d="M14.5 13.75C15.4665 13.75 16.25 14.5335 16.25 15.5C16.25 16.4665 15.4665 17.25 14.5 17.25C13.5335 17.25 12.75 16.4665 12.75 15.5C12.75 14.5335 13.5335 13.75 14.5 13.75ZM9.5 6.75C10.4665 6.75 11.25 7.5335 11.25 8.5C11.25 9.4665 10.4665 10.25 9.5 10.25C8.5335 10.25 7.75 9.4665 7.75 8.5C7.75 7.5335 8.5335 6.75 9.5 6.75Z" stroke="white" stroke-width="1.5" stroke-linecap="round"/>
<path d="M17 7L7 17" stroke="white" stroke-width="1.5" stroke-linecap="round"/>
</svg>
