<svg width="24" height="24" viewBox="0 0 24 24" fill="none" xmlns="http://www.w3.org/2000/svg">
<path d="M9.00647 20.64V13.536C9.00647 12.9984 9.00647 12.7295 9.11523 12.5242C9.2109 12.3436 9.36355 12.1967 9.5513 12.1047C9.76474 12 10.0441 12 10.603 12H13.3969C13.9558 12 14.2352 12 14.4486 12.1047C14.6364 12.1967 14.789 12.3436 14.8847 12.5242C14.9934 12.7295 14.9934 12.9984 14.9934 13.536V20.64H17.7873C18.905 20.64 19.4639 20.64 19.8907 20.4308C20.2662 20.2467 20.5716 19.953 20.7628 19.5917C20.9804 19.181 20.9804 18.6433 20.9804 17.568V10.6225C20.9804 10.0711 20.9804 9.7955 20.9065 9.54158C20.8411 9.31668 20.7335 9.10515 20.5892 8.91738C20.4263 8.70542 20.2001 8.53616 19.7477 8.19764L12.9801 3.13352C12.6296 2.8712 12.4543 2.74003 12.2607 2.68961C12.09 2.64513 11.9099 2.64513 11.7392 2.68961C11.5456 2.74003 11.3703 2.8712 11.0198 3.13352L4.25223 8.19764C3.79985 8.53616 3.57366 8.70542 3.41071 8.91738C3.26636 9.10515 3.15883 9.31668 3.0934 9.54158C3.01953 9.7955 3.01953 10.0711 3.01953 10.6225V17.568C3.01953 18.6433 3.01953 19.181 3.23705 19.5917C3.42837 19.953 3.73366 20.2467 4.10917 20.4308C4.53606 20.64 5.0949 20.64 6.21257 20.64H9.00647Z" stroke="#64717E" stroke-linecap="round" stroke-linejoin="round"/>
</svg>
