<svg width="30" height="31" viewBox="0 0 30 31" fill="none" xmlns="http://www.w3.org/2000/svg">
<g clip-path="url(#clip0_250_966)">
<path d="M7.74265 18.5526C7.85632 18.5614 7.97175 18.5655 8.08718 18.5655C9.11433 18.5655 10.2171 18.238 11.2301 17.628C12.3575 16.9483 13.2499 15.9933 13.7415 14.938C14.2612 13.8247 14.28 12.7249 13.7936 11.846C13.3073 10.9671 12.3874 10.4351 11.2032 10.3478C10.0823 10.2645 8.84363 10.5933 7.7157 11.2729C6.58777 11.9526 5.69655 12.9071 5.20437 13.9618C4.68464 15.0751 4.66648 16.1749 5.15222 17.0538C5.63796 17.9327 6.55788 18.4653 7.74265 18.5526ZM5.9948 14.3638C6.41081 13.472 7.1778 12.6563 8.15515 12.0669C9.03405 11.536 9.98327 11.2513 10.8557 11.2513C10.9518 11.2513 11.0473 11.2548 11.1411 11.2618C12.0253 11.3274 12.6973 11.6972 13.0325 12.3036C13.3676 12.9101 13.3389 13.7028 12.951 14.5349C12.535 15.4272 11.768 16.2429 10.7907 16.8323C9.81335 17.4218 8.75339 17.7071 7.80241 17.6374C6.91823 17.5718 6.24616 17.202 5.91101 16.5956C5.57585 15.9892 5.60691 15.1964 5.9948 14.3638Z" fill="#595959"/>
<path d="M29.5928 15.0206C29.3813 14.7695 29.0991 14.5878 28.783 14.4992C28.8526 14.2128 28.8494 13.9137 28.7739 13.6289C28.6984 13.3441 28.5529 13.0827 28.3506 12.8685C28.1545 12.6605 27.9062 12.5088 27.6316 12.4292C27.357 12.3497 27.0661 12.3452 26.7891 12.4161C26.707 12.0919 26.5331 11.7983 26.2881 11.5706C25.993 11.2991 25.6072 11.1476 25.2062 11.1456C24.8052 11.1437 24.4179 11.2915 24.1202 11.5601C24.1047 11.5721 24.0902 11.5852 24.0768 11.5993C24.061 11.6163 24.0452 11.6327 24.0299 11.6509C23.8789 11.8086 23.7596 11.9938 23.6784 12.1964C23.3701 12.8368 23.1399 13.8218 22.9928 15.1302C22.6199 15.0721 22.2411 15.0613 21.8655 15.098C21.8448 15.0965 21.824 15.0965 21.8034 15.098C21.0835 15.1796 20.3867 15.402 19.7526 15.7525L19.7274 15.7671C19.1265 16.0976 18.5801 16.5185 18.1073 17.0152C17.8601 17.2732 17.6329 17.5496 17.4276 17.8419C17.2055 16.9718 17.0344 15.9253 17.0344 14.4476C17.0344 12.1624 17.4305 10.9419 17.8494 9.64935C18.2596 8.39017 18.6809 7.08821 18.6809 4.82181V2.59114C18.6817 2.44583 18.6443 2.30286 18.5723 2.17665C18.5003 2.05043 18.3963 1.94542 18.2707 1.8722C18.1533 1.80449 18.0198 1.76958 17.8843 1.77113C17.7487 1.77268 17.6161 1.81062 17.5002 1.88099L16.5627 1.25696C16.4379 1.17419 16.2915 1.13005 16.1417 1.13005C15.992 1.13005 15.8455 1.17419 15.7207 1.25696L14.7832 1.87982L13.8457 1.25696C13.7211 1.17375 13.5746 1.12934 13.4247 1.12934C13.2749 1.12934 13.1284 1.17375 13.0037 1.25696L12.0662 1.87982L11.1287 1.25696C11.0038 1.17395 10.8572 1.12966 10.7072 1.12966C10.5572 1.12966 10.4105 1.17395 10.2856 1.25696L9.34808 1.87982L8.41058 1.25696C8.28591 1.17355 8.13929 1.12903 7.98929 1.12903C7.83929 1.12903 7.69267 1.17355 7.568 1.25696L6.62113 1.8804L5.68363 1.25755C5.5587 1.17453 5.41204 1.13025 5.26205 1.13025C5.11205 1.13025 4.96539 1.17453 4.84046 1.25755L3.90296 1.8804L2.96546 1.25755C2.84079 1.17414 2.69417 1.12961 2.54417 1.12961C2.39418 1.12961 2.24755 1.17414 2.12288 1.25755L1.18539 1.88099C1.06906 1.80958 0.935567 1.771 0.799081 1.76935C0.662595 1.7677 0.528209 1.80304 0.41019 1.87161C0.284632 1.94479 0.180597 2.04979 0.108584 2.17602C0.0365706 2.30224 -0.000872241 2.44523 3.35851e-05 2.59056V4.82474C3.35851e-05 7.09173 0.422495 8.39544 0.831479 9.65345C0.915854 9.91302 1.00257 10.1808 1.08402 10.4521C1.09959 10.5086 1.12637 10.5614 1.16278 10.6073C1.19918 10.6532 1.24446 10.6913 1.29591 10.7194C1.34737 10.7474 1.40394 10.7648 1.46226 10.7706C1.52059 10.7763 1.57946 10.7702 1.63539 10.7527C1.74853 10.7129 1.84179 10.6307 1.89548 10.5234C1.94916 10.4162 1.95905 10.2923 1.92308 10.1779C1.83871 9.89661 1.7473 9.62298 1.6641 9.35755C1.2891 8.20853 0.937534 7.11634 0.885385 5.28353H17.7996C17.7487 7.11517 17.3942 8.20677 17.0209 9.35755C16.5973 10.663 16.159 12.0136 16.159 14.4499C16.159 16.53 16.4772 17.8079 16.8194 18.9113C16.333 19.9706 16.1555 21.0956 16.3037 22.1163C15.0487 22.271 14.1047 22.5113 13.4912 22.8324C13.2928 22.9186 13.1135 23.0434 12.9639 23.1997L12.9258 23.2367C12.9073 23.2547 12.8905 23.2743 12.8754 23.2952C12.7946 23.3937 12.7252 23.5011 12.6686 23.6152H0.885385C0.937534 21.7841 1.2891 20.6925 1.66351 19.5417C2.08773 18.2363 2.52601 16.8863 2.52601 14.4499C2.53035 13.6764 2.47767 12.9036 2.36839 12.1378C2.36119 12.0795 2.34243 12.0231 2.3132 11.9721C2.28398 11.9211 2.24487 11.8764 2.19817 11.8406C2.15147 11.8049 2.09811 11.7789 2.04122 11.764C1.98433 11.7491 1.92504 11.7457 1.86683 11.754C1.74927 11.7758 1.64493 11.8427 1.57623 11.9406C1.50753 12.0384 1.47996 12.1593 1.49945 12.2773C1.60165 12.9969 1.65081 13.7231 1.64652 14.4499C1.64652 16.7351 1.25042 17.955 0.830893 19.2476C0.422495 20.5068 3.35851e-05 21.8087 3.35851e-05 24.0745V26.3087C-0.00127387 26.4538 0.0356137 26.5966 0.106991 26.7229C0.178369 26.8492 0.281724 26.9545 0.406674 27.0283C0.524269 27.0961 0.657952 27.1311 0.793718 27.1296C0.929484 27.128 1.06234 27.09 1.17835 27.0195L2.11585 27.6429C2.24078 27.7259 2.38744 27.7702 2.53744 27.7702C2.68743 27.7702 2.83409 27.7259 2.95902 27.6429L3.89652 27.0195L4.83402 27.6423C4.95888 27.7252 5.10543 27.7694 5.25531 27.7694C5.40518 27.7694 5.55173 27.7252 5.6766 27.6423L6.6141 27.0189L7.5516 27.6417C7.67646 27.7246 7.82301 27.7688 7.97289 27.7688C8.12276 27.7688 8.26931 27.7246 8.39417 27.6417L9.3346 27.0183L10.2721 27.6411C10.397 27.724 10.5435 27.7683 10.6934 27.7683C10.8433 27.7683 10.9898 27.724 11.1147 27.6411L12.0522 27.0177L12.9897 27.6406C13.1143 27.7238 13.2608 27.7682 13.4107 27.7682C13.5605 27.7682 13.707 27.7238 13.8317 27.6406L13.9828 27.5404C14.0256 27.5989 14.0722 27.6545 14.1223 27.7068C14.3186 27.9147 14.567 28.0663 14.8418 28.1456C15.1165 28.225 15.4075 28.2292 15.6844 28.1579C15.766 28.4822 15.9398 28.7759 16.1848 29.0034C16.4847 29.2795 16.8781 29.4316 17.2857 29.4288C17.6933 29.4261 18.0847 29.2689 18.3809 28.9888C18.5649 28.8137 18.7074 28.5997 18.7981 28.3624C19.1022 27.7232 19.3295 26.7429 19.4766 25.4439C19.7033 25.4797 19.9326 25.4975 20.1621 25.4972C22.1895 25.4972 24.218 24.1818 25.3494 22.2499C25.3547 22.2411 25.3594 22.2324 25.3641 22.223C26.0672 21.0077 26.3438 19.6601 26.1692 18.4566C26.5119 18.4144 26.8348 18.3652 27.1336 18.3095C27.2507 18.2848 27.3534 18.2152 27.4198 18.1156C27.4862 18.0161 27.5109 17.8945 27.4887 17.7769C27.4801 17.7188 27.46 17.6631 27.4296 17.6129C27.3992 17.5627 27.3591 17.519 27.3116 17.4845C27.2642 17.45 27.2103 17.4253 27.1532 17.4118C27.0961 17.3983 27.0368 17.3963 26.9789 17.406C26.6625 17.4646 26.3151 17.5167 25.9436 17.5601C25.7628 17.0635 25.4813 16.6097 25.1168 16.2271C24.7616 15.8545 24.3311 15.5617 23.8541 15.3681C23.9883 14.1072 24.2004 13.1538 24.4723 12.5978C24.4782 12.5861 24.4834 12.5732 24.4887 12.5603C24.5271 12.4609 24.5851 12.3702 24.6592 12.2937L24.6815 12.2691C24.8193 12.1387 25.0016 12.0654 25.1913 12.0641C25.3811 12.0628 25.5643 12.1335 25.7039 12.262C25.8443 12.3918 25.9338 12.5674 25.9565 12.7572C25.9691 12.8644 26.0056 12.9674 26.0633 13.0587C26.121 13.15 26.1984 13.2271 26.2899 13.2845C26.3812 13.342 26.485 13.3768 26.5925 13.386C26.7 13.3953 26.8082 13.3788 26.908 13.3378C27.0471 13.282 27.1997 13.2693 27.346 13.3015C27.4924 13.3337 27.6256 13.4092 27.7284 13.5183C27.8339 13.6303 27.9061 13.7696 27.9366 13.9205C27.9672 14.0713 27.9549 14.2277 27.9012 14.372C27.8623 14.4767 27.8467 14.5886 27.8555 14.6999C27.8643 14.8112 27.8973 14.9193 27.9522 15.0165C28.0037 15.1106 28.0764 15.1914 28.1646 15.2524C28.2528 15.3134 28.354 15.353 28.4602 15.3681C28.6458 15.3931 28.8152 15.487 28.9348 15.6312C29.0585 15.7818 29.1256 15.9709 29.1244 16.1658C29.1232 16.3607 29.0539 16.5491 28.9284 16.6982C28.8494 16.789 28.7502 16.86 28.6389 16.9056C28.5291 16.9538 28.442 17.0423 28.3955 17.1528C28.3489 17.2633 28.3465 17.3875 28.3887 17.4997C28.4189 17.5847 28.4744 17.6583 28.5478 17.7107C28.6211 17.763 28.7087 17.7917 28.7989 17.7927C28.8537 17.7927 28.908 17.7821 28.9588 17.7617C29.1977 17.6645 29.4101 17.5121 29.5787 17.3169C29.8493 16.9963 29.9989 16.5909 30.0014 16.1713C30.004 15.7518 29.8594 15.3446 29.5928 15.0206ZM1.60023 2.68841L2.54007 2.06732L3.47757 2.69017C3.60244 2.77306 3.74899 2.81727 3.89886 2.81727C4.04874 2.81727 4.19528 2.77306 4.32015 2.69017L5.26175 2.06732L6.19925 2.69075C6.32393 2.77327 6.47015 2.81728 6.61966 2.81728C6.76918 2.81728 6.91539 2.77327 7.04007 2.69075L7.97757 2.06732L8.91507 2.69075C9.03988 2.77352 9.18631 2.81767 9.33607 2.81767C9.48583 2.81767 9.63226 2.77352 9.75707 2.69075L10.6946 2.0679L11.635 2.69134C11.7597 2.77398 11.9061 2.81806 12.0557 2.81806C12.2053 2.81806 12.3517 2.77398 12.4764 2.69134L13.4139 2.06849L14.3543 2.69192C14.4791 2.77457 14.6254 2.81864 14.775 2.81864C14.9247 2.81864 15.071 2.77457 15.1957 2.69192L16.1332 2.06849L17.0707 2.69192C17.1761 2.76197 17.2973 2.80465 17.4234 2.81611C17.5494 2.82756 17.6763 2.80744 17.7926 2.75755V4.36595H0.87894V2.75403C0.995098 2.80414 1.12195 2.82438 1.24793 2.81291C1.37391 2.80145 1.49502 2.75865 1.60023 2.68841ZM23.7545 22.9091L23.7428 22.9214L23.7393 22.9255L20.5559 16.3765C20.89 16.2284 21.2405 16.1204 21.6 16.0548L24.4834 21.9892C24.2704 22.3184 24.0263 22.6264 23.7545 22.9091ZM13.4256 26.8349L12.4881 26.212C12.3633 26.1291 12.2167 26.0849 12.0668 26.0849C11.917 26.0849 11.7704 26.1291 11.6455 26.212L10.708 26.8355L9.77054 26.2126C9.64591 26.1294 9.49941 26.085 9.34955 26.085C9.19969 26.085 9.05319 26.1294 8.92855 26.2126L7.99105 26.8361L7.05355 26.2132C6.92891 26.13 6.78241 26.0856 6.63255 26.0856C6.48269 26.0856 6.33619 26.13 6.21156 26.2132L5.27406 26.8367L4.33656 26.2138C4.21163 26.1308 4.06497 26.0865 3.91498 26.0865C3.76498 26.0865 3.61832 26.1308 3.49339 26.2138L2.55589 26.8372L1.61839 26.2144C1.51123 26.1408 1.38702 26.0959 1.25759 26.0839C1.12815 26.0719 0.997803 26.0932 0.87894 26.1458V24.5333H12.491C12.5117 24.9083 12.6531 25.2666 12.8942 25.5546C13.1058 25.8061 13.3882 25.9882 13.7045 26.0773C13.6578 26.273 13.6443 26.4753 13.6647 26.6755L13.4256 26.8349ZM18.0194 27.9704C18.013 27.9832 18.0073 27.9963 18.0024 28.0097C17.9607 28.1243 17.8929 28.2276 17.8043 28.3115C17.6665 28.4419 17.4844 28.5153 17.2946 28.5167C17.1048 28.5181 16.9216 28.4475 16.7819 28.3191C16.6419 28.1889 16.5526 28.0132 16.5299 27.8234C16.5172 27.7162 16.4807 27.6131 16.423 27.5219C16.3653 27.4306 16.2879 27.3535 16.1965 27.296C16.1049 27.2383 16.0009 27.2033 15.8931 27.194C15.7853 27.1846 15.6768 27.2011 15.5766 27.2421C15.4377 27.2984 15.2851 27.3113 15.1387 27.2793C14.9923 27.2474 14.859 27.1719 14.7563 27.0628C14.6512 26.9503 14.5795 26.8106 14.5495 26.6596C14.5195 26.5085 14.5323 26.3521 14.5864 26.2079C14.6255 26.1028 14.6412 25.9903 14.6323 25.8785C14.6234 25.7666 14.5901 25.6581 14.5348 25.5605C14.483 25.467 14.4102 25.3869 14.3222 25.3264C14.2341 25.2659 14.1332 25.2267 14.0274 25.2118C13.8414 25.1866 13.6717 25.0923 13.5522 24.9476C13.4693 24.847 13.4112 24.7284 13.3825 24.6013C13.3538 24.4742 13.3553 24.3422 13.3869 24.2158C13.391 24.2029 13.3946 24.1894 13.3975 24.1765C13.4293 24.0661 13.4847 23.964 13.5598 23.8771C13.563 23.8747 13.5659 23.8719 13.5686 23.8689L13.5844 23.8536C13.6567 23.7769 13.7441 23.7158 13.841 23.6743C13.853 23.6695 13.8648 23.664 13.8762 23.6579C14.4036 23.3755 15.3188 23.154 16.5287 23.0134C16.7093 23.5105 16.9905 23.9649 17.3549 24.3482C17.7144 24.724 18.1501 25.0185 18.6328 25.2118C18.4981 26.464 18.2877 27.4138 18.0194 27.9699V27.9704ZM19.2539 24.463C19.2349 24.456 19.2153 24.4505 19.1953 24.4466C18.7308 24.3065 18.3103 24.049 17.9743 23.699C17.6328 23.3382 17.3863 22.8983 17.2571 22.4187C17.2537 22.4022 17.2494 22.386 17.2442 22.37C16.9875 21.3974 17.1405 20.246 17.6713 19.1714C17.6766 19.1615 17.6819 19.1515 17.6866 19.1409C17.9589 18.6004 18.3107 18.1037 18.7301 17.6673C19.0433 17.3391 19.3931 17.0477 19.7725 16.799L23.0491 23.5372C21.8356 24.4642 20.4123 24.7935 19.2539 24.4624V24.463ZM25.2264 18.1531C25.2299 18.173 25.235 18.1925 25.2416 18.2117C25.4655 19.0636 25.3752 20.0527 24.9926 21.0072L22.5586 15.9962C22.7867 16.0117 23.0126 16.0509 23.2325 16.1134C23.2512 16.1199 23.2711 16.1257 23.291 16.1304C23.7555 16.27 24.1759 16.5274 24.5116 16.8775C24.8515 17.2371 25.0971 17.6754 25.2264 18.1531Z" fill="#595959"/>
</g>
<defs>
<clipPath id="clip0_250_966">
<rect width="30" height="28.3008" fill="white" transform="translate(0 1.12976)"/>
</clipPath>
</defs>
</svg>
