<svg width="30" height="31" viewBox="0 0 30 31" fill="none" xmlns="http://www.w3.org/2000/svg">
<g clip-path="url(#clip0_250_100)">
<g clip-path="url(#clip1_250_100)">
<path d="M28.2334 17.0408C28.1895 17.0026 28.1385 16.9735 28.0832 16.9552C28.028 16.9369 27.9697 16.9297 27.9117 16.9341C27.8537 16.9385 27.7971 16.9544 27.7453 16.9808C27.6935 17.0073 27.6474 17.0437 27.6098 17.0881C27.5721 17.1325 27.5437 17.1839 27.5261 17.2394C27.5085 17.2948 27.5021 17.3532 27.5072 17.4112C27.5124 17.4691 27.529 17.5255 27.5561 17.577C27.5831 17.6284 27.6202 17.674 27.665 17.7111C28.6166 18.5173 29.1211 19.4203 29.1211 20.322C29.1211 20.9273 28.9049 21.4388 28.4578 21.8859C27.7102 22.6336 26.3186 23.1908 24.3217 23.5418C22.5293 23.8564 20.2846 24.0105 17.4574 24.0041C13.0922 23.9982 10.016 23.6203 8.08652 22.8521C8.82871 22.3244 9.62441 21.6892 10.4736 20.9466C10.672 21.1841 10.9363 21.3574 11.2331 21.4448C11.5299 21.5321 11.846 21.5294 12.1413 21.4372C12.4367 21.345 12.698 21.1673 12.8924 20.9265C13.0868 20.6858 13.2054 20.3929 13.2334 20.0847C13.2884 19.5076 13.2897 18.9266 13.2375 18.3492C14.0094 17.58 14.7068 16.8517 15.3299 16.1642C15.9775 17.2538 16.2584 18.5224 16.1314 19.7836C16.0918 20.1993 16.2178 20.6139 16.4821 20.9372C16.7464 21.2605 17.1277 21.4665 17.543 21.5103C17.7484 21.5302 17.9558 21.5093 18.1531 21.4488C18.3505 21.3883 18.5339 21.2894 18.6929 21.1577C18.8518 21.026 18.9832 20.8642 19.0794 20.6816C19.1755 20.4989 19.2347 20.2991 19.2533 20.0935C19.4337 18.2776 19.0631 16.4494 18.1898 14.847C19.0147 14.8722 19.8377 14.9404 20.6555 15.0515C21.3891 15.9814 21.842 16.9933 21.9996 18.0632C22.0825 18.6353 22.0825 19.2162 21.9996 19.7882C21.9674 19.9933 21.9762 20.2027 22.0255 20.4044C22.0748 20.606 22.1636 20.7959 22.2868 20.963C22.41 21.1301 22.5651 21.2711 22.7432 21.3778C22.9212 21.4845 23.1187 21.5548 23.3241 21.5846C23.5296 21.6145 23.7389 21.6033 23.9399 21.5516C24.141 21.5 24.3298 21.409 24.4955 21.2839C24.6611 21.1588 24.8003 21.002 24.9049 20.8227C25.0096 20.6434 25.0776 20.4452 25.1051 20.2394C25.23 19.3648 25.2285 18.4768 25.1004 17.6027C25.0229 17.0792 24.8994 16.5635 24.7312 16.0617C25.1557 16.2236 25.5715 16.4074 25.977 16.6125C26.0284 16.6389 26.0846 16.6549 26.1422 16.6595C26.1999 16.6642 26.2579 16.6574 26.313 16.6396C26.368 16.6218 26.419 16.5933 26.463 16.5557C26.507 16.5182 26.5431 16.4723 26.5693 16.4207C26.5956 16.3692 26.6113 16.3129 26.6158 16.2553C26.6202 16.1976 26.6132 16.1396 26.5952 16.0846C26.5772 16.0297 26.5485 15.9788 26.5108 15.9349C26.4731 15.8911 26.427 15.8551 26.3754 15.8291C23.9648 14.6009 20.625 13.9254 17.192 13.9564C17.4287 13.6502 17.649 13.3513 17.8529 13.0599C19.142 11.2242 19.766 9.72008 19.766 8.46031C19.766 7.5943 19.4648 6.85484 18.8707 6.26246C17.6285 5.02379 15.5273 4.82867 12.9492 5.71344C10.4754 6.56187 7.82695 8.31266 5.48965 10.6435C2.10352 14.0203 0 17.9853 0 20.9912C0 22.238 0.379687 23.2763 1.09746 23.9912C1.69336 24.5853 2.42578 24.8824 3.28945 24.8824C4.20352 24.8824 5.26465 24.5496 6.46582 23.8863C6.71191 23.75 6.96465 23.5994 7.22402 23.4345C9.22852 24.4031 12.5807 24.8777 17.4563 24.8847C20.243 24.8882 22.6711 24.7259 24.474 24.4089C26.6824 24.0211 28.1889 23.3994 29.0789 22.5093C29.6912 21.897 30.0012 21.1617 30 20.3226C30 19.1554 29.3877 18.0211 28.2334 17.0414V17.0408ZM23.6514 15.6931C24.2523 17.0847 24.4551 18.6157 24.2373 20.1158C24.2254 20.2058 24.1958 20.2926 24.1502 20.3711C24.1045 20.4497 24.0438 20.5183 23.9714 20.5732C23.899 20.6281 23.8165 20.6681 23.7286 20.6908C23.6407 20.7136 23.5491 20.7187 23.4592 20.7058C23.2766 20.6769 23.1128 20.5773 23.0031 20.4285C22.8934 20.2797 22.8468 20.0936 22.8732 19.9107C23.1072 18.2884 22.7521 16.6361 21.8725 15.2531C22.4895 15.375 23.0848 15.5214 23.6525 15.6931H23.6514ZM12.358 20.0009C12.3461 20.1384 12.293 20.269 12.2057 20.3758C12.1183 20.4826 12.0008 20.5605 11.8685 20.5995C11.7361 20.6384 11.5951 20.6365 11.4638 20.594C11.3326 20.5515 11.2172 20.4704 11.1328 20.3613C11.5418 19.9898 11.9639 19.5943 12.399 19.1748C12.399 19.4502 12.3873 19.7261 12.3604 20.0009H12.358ZM18.2684 17.6285C18.4191 18.4126 18.4562 19.2144 18.3785 20.0091C18.3707 20.0997 18.3451 20.1878 18.3031 20.2685C18.261 20.3491 18.2035 20.4206 18.1337 20.4789C18.064 20.5371 17.9833 20.581 17.8965 20.608C17.8097 20.635 17.7184 20.6445 17.6279 20.6361C17.4442 20.6154 17.276 20.5232 17.1598 20.3795C17.0435 20.2357 16.9886 20.0519 17.0068 19.8679C17.1588 18.3267 16.783 16.7796 15.941 15.4798C16.125 15.2681 16.3023 15.0601 16.473 14.8558C16.7027 14.847 16.9354 14.8406 17.1691 14.8382C17.7014 15.695 18.0738 16.6412 18.2684 17.6308V17.6285ZM11.1123 7.4818C11.7713 7.74389 12.3937 8.09012 12.9639 8.51187C13.6042 8.98871 14.1725 9.55527 14.6514 10.1941C14.7562 10.3301 14.8063 10.5005 14.7915 10.6716C14.7767 10.8427 14.6983 11.0021 14.5717 11.1181C14.499 11.1828 14.4136 11.2317 14.3211 11.2617C14.2285 11.2917 14.1307 11.3022 14.0339 11.2924C13.937 11.2827 13.8433 11.2529 13.7586 11.2051C13.6738 11.1572 13.6 11.0923 13.5416 11.0144C13.1443 10.485 12.6729 10.0156 12.1418 9.62047C11.3666 9.04858 10.4815 8.64339 9.54199 8.43043C10.0646 8.07887 10.5881 7.76324 11.1123 7.48355V7.4818ZM2.48965 15.9521C3.16842 16.1854 3.81374 16.5065 4.40918 16.9072C5.07018 17.355 5.66336 17.8954 6.17051 18.5121C6.28133 18.6434 6.33895 18.8114 6.33201 18.9831C6.32507 19.1548 6.25407 19.3177 6.13301 19.4396C6.06321 19.5073 5.98013 19.5598 5.88901 19.5938C5.7979 19.6277 5.70073 19.6424 5.60365 19.6369C5.50657 19.6314 5.41169 19.6058 5.325 19.5618C5.23831 19.5177 5.1617 19.4562 5.1 19.381C4.67927 18.8695 4.18734 18.421 3.63926 18.0492C3.0879 17.6796 2.48569 17.3922 1.85156 17.1961C2.03984 16.7859 2.25254 16.3713 2.48965 15.9521ZM6.03984 23.1152C4.05996 24.2103 2.64668 24.2947 1.71797 23.3689C1.16133 22.8134 0.878906 22.0136 0.878906 20.9912C0.878906 20.0935 1.10098 19.0793 1.50937 18.0105C2.09208 18.1818 2.6453 18.4408 3.15 18.7787C3.6284 19.1034 4.05777 19.4951 4.425 19.9418C4.56526 20.1105 4.739 20.2482 4.93522 20.3463C5.13145 20.4445 5.3459 20.5008 5.56501 20.5118C5.78413 20.5229 6.00315 20.4883 6.20822 20.4103C6.4133 20.3324 6.59997 20.2127 6.75644 20.0589C7.03333 19.783 7.19669 19.4132 7.21427 19.0227C7.23184 18.6322 7.10235 18.2493 6.85137 17.9496C6.2905 17.2681 5.63457 16.6708 4.90371 16.1759C4.29612 15.7664 3.64115 15.4319 2.95312 15.1798C3.31348 14.6097 3.71484 14.0384 4.15371 13.4748C5.05137 13.5252 6.28008 13.7578 7.41328 14.523C7.89167 14.8476 8.32104 15.239 8.68828 15.6855C8.81886 15.8448 8.97954 15.9769 9.16115 16.0741C9.34275 16.1713 9.54173 16.2318 9.74672 16.2521C9.9517 16.2724 10.1587 16.2522 10.3558 16.1925C10.553 16.1329 10.7365 16.0349 10.8958 15.9044C11.0551 15.7738 11.1872 15.6131 11.2844 15.4315C11.3816 15.2499 11.4421 15.0509 11.4624 14.8459C11.4827 14.6409 11.4625 14.434 11.4028 14.2368C11.3431 14.0396 11.2452 13.8562 11.1146 13.6968C10.7651 13.2761 10.379 12.8871 9.96094 12.5343C9.91737 12.4945 9.86621 12.4638 9.81052 12.4441C9.75483 12.4245 9.69574 12.4162 9.6368 12.4199C9.57786 12.4236 9.52026 12.4391 9.46745 12.4656C9.41465 12.492 9.36771 12.5289 9.32946 12.5739C9.2912 12.6189 9.26241 12.6711 9.24479 12.7275C9.22718 12.7838 9.22111 12.8432 9.22695 12.902C9.23279 12.9607 9.25041 13.0177 9.27877 13.0695C9.30712 13.1213 9.34563 13.1669 9.39199 13.2035C9.76875 13.5241 10.1168 13.877 10.432 14.2582C10.4904 14.3277 10.5345 14.4082 10.5617 14.4949C10.5889 14.5815 10.5986 14.6727 10.5904 14.7632C10.5822 14.8537 10.5561 14.9416 10.5138 15.022C10.4714 15.1023 10.4136 15.1735 10.3436 15.2314C10.1993 15.3462 10.0157 15.3997 9.83232 15.3804C9.64897 15.3611 9.48053 15.2706 9.36328 15.1283C8.94263 14.6167 8.45046 14.1683 7.90195 13.797C6.97656 13.1836 5.92126 12.7936 4.81934 12.658C5.16816 12.2502 5.53516 11.8496 5.92031 11.4562C6.56202 11.6072 7.18398 11.8323 7.77363 12.1271C7.82536 12.1548 7.8821 12.1718 7.94051 12.1772C7.99891 12.1826 8.05781 12.1762 8.11372 12.1585C8.16963 12.1407 8.22142 12.112 8.26605 12.0739C8.31067 12.0358 8.34722 11.9892 8.37355 11.9368C8.39987 11.8844 8.41544 11.8272 8.41933 11.7687C8.42322 11.7102 8.41535 11.6515 8.39619 11.596C8.37703 11.5406 8.34697 11.4896 8.30777 11.4459C8.26858 11.4023 8.22104 11.3669 8.16797 11.342C7.68049 11.0975 7.17224 10.8969 6.64922 10.7425C7.25062 10.1766 7.88137 9.64263 8.53887 9.14293C9.71484 9.28355 10.7502 9.67906 11.618 10.3236C12.0814 10.6691 12.4927 11.0795 12.8391 11.5423C12.9715 11.7172 13.1388 11.8627 13.3303 11.9697C13.5218 12.0766 13.7334 12.1428 13.9517 12.1639C14.17 12.1851 14.3904 12.1607 14.5988 12.0925C14.8073 12.0242 14.9993 11.9135 15.1629 11.7673C15.4518 11.5043 15.6315 11.1424 15.6664 10.7532C15.7013 10.364 15.589 9.97592 15.3516 9.66559C14.8228 8.95888 14.1951 8.33194 13.4877 7.80406C13.0627 7.48947 12.6107 7.21301 12.1371 6.97789C12.5057 6.81383 12.8713 6.66852 13.2328 6.54488C14.2072 6.21031 15.0943 6.04391 15.8695 6.04391C16.8768 6.04391 17.6906 6.32574 18.2525 6.8859C18.6809 7.31305 18.8889 7.82809 18.8889 8.4609C18.8889 9.51852 18.2988 10.8961 17.1352 12.556C16.5539 13.3857 15.8232 14.3548 15.0721 15.1371C12.4535 17.8617 9.28184 21.3211 6.0416 23.1152H6.03984Z" fill="#595959"/>
</g>
</g>
<defs>
<clipPath id="clip0_250_100">
<rect width="30" height="30" fill="white" transform="translate(0 0.0251465)"/>
</clipPath>
<clipPath id="clip1_250_100">
<rect width="30" height="19.7156" fill="white" transform="translate(0 5.16736)"/>
</clipPath>
</defs>
</svg>
