<svg width="30" height="31" viewBox="0 0 30 31" fill="none" xmlns="http://www.w3.org/2000/svg">
<g clip-path="url(#clip0_250_112)">
<g clip-path="url(#clip1_250_112)">
<path d="M20.9999 1.31485C21.1325 1.31485 21.2597 1.26218 21.3534 1.16843C21.4472 1.07468 21.4998 0.947534 21.4998 0.814955C21.4998 0.682375 21.4472 0.555226 21.3534 0.461478C21.2597 0.36773 21.1325 0.315063 20.9999 0.315063H15.0001C14.8739 0.315159 14.7524 0.362919 14.6599 0.448781C14.5674 0.534642 14.5108 0.652266 14.5014 0.778102L14.3111 3.34294C10.6562 3.63241 7.75193 6.20439 7.51595 9.39572C7.21982 9.49694 6.96272 9.68817 6.78059 9.94266C6.59846 10.1972 6.5004 10.5022 6.50012 10.8152V11.8149C6.50012 11.9475 6.55279 12.0747 6.64654 12.1684C6.74028 12.2622 6.86743 12.3148 7.00001 12.3148H7.55281L9.50303 29.8699C9.51675 29.9921 9.57498 30.1051 9.66662 30.1872C9.75827 30.2693 9.87691 30.3148 9.99995 30.3151H20.0002C20.1232 30.3148 20.2418 30.2693 20.3335 30.1872C20.4251 30.1051 20.4834 29.9921 20.4971 29.8699L22.4473 12.3148H23.0001C23.1327 12.3148 23.2598 12.2622 23.3536 12.1684C23.4473 12.0747 23.5 11.9475 23.5 11.8149V10.8152C23.4997 10.5022 23.4016 10.1972 23.2195 9.94266C23.0374 9.68817 22.7803 9.49694 22.4842 9.39572C22.2404 6.0968 19.1442 3.45944 15.3157 3.32095L15.4643 1.31485H20.9999ZM14.2368 4.35342L13.8707 9.31489H8.52703C8.80402 6.72924 11.2042 4.65419 14.2368 4.35342ZM7.4999 10.8152C7.50006 10.6825 7.55286 10.5554 7.6467 10.4616C7.74055 10.3679 7.86776 10.3153 8.00039 10.3153H13.7952L13.7209 11.315H7.4999V10.8152ZM13.6466 12.3148L13.4588 14.8541C12.2765 14.5617 10.8571 14.3352 8.78084 14.3191L8.55853 12.3178L13.6466 12.3148ZM19.5526 29.3147H10.4475L8.89259 15.3177C10.9064 15.3439 12.2373 15.5698 13.3839 15.8664L12.5036 27.7764C12.4941 27.9085 12.5374 28.039 12.6239 28.1393C12.7105 28.2396 12.8333 28.3015 12.9654 28.3113H13.0029C13.129 28.3112 13.2504 28.2635 13.3428 28.1776C13.4352 28.0917 13.4917 27.9741 13.501 27.8483L14.3682 16.1386L14.8556 16.2872C16.385 16.758 17.9631 17.2436 20.8888 17.3036L19.5526 29.3147ZM20.9976 16.3104C18.1581 16.2628 16.6929 15.8129 15.1469 15.3374C14.9145 15.2654 14.6809 15.1935 14.4413 15.1228L14.6494 12.3148H21.4416L20.9976 16.3104ZM22.5002 11.3174H14.7237L14.798 10.3176H21.9997C22.1323 10.3176 22.2596 10.3703 22.3534 10.464C22.4472 10.5577 22.5 10.6849 22.5002 10.8175V11.3174ZM21.4731 9.31489H14.8717L15.242 4.32192C18.5171 4.42118 21.1818 6.58302 21.4731 9.31489Z" fill="#595959"/>
</g>
</g>
<defs>
<clipPath id="clip0_250_112">
<rect width="30" height="30" fill="white" transform="translate(0 0.315063)"/>
</clipPath>
<clipPath id="clip1_250_112">
<rect width="16.9999" height="30" fill="white" transform="translate(6.50012 0.315063)"/>
</clipPath>
</defs>
</svg>
