<svg width="30" height="31" viewBox="0 0 30 31" fill="none" xmlns="http://www.w3.org/2000/svg">
<g clip-path="url(#clip0_250_187)">
<g clip-path="url(#clip1_250_187)">
<g clip-path="url(#clip2_250_187)">
<path d="M15 22.2864C14.6777 22.2864 14.4141 22.55 14.4141 22.8723C14.4141 23.1946 14.6777 23.4583 15 23.4583C15.3223 23.4583 15.5859 23.1946 15.5859 22.8723C15.5859 22.55 15.3223 22.2864 15 22.2864Z" fill="#595959"/>
<path d="M27.3047 17.2532C27.3047 16.7844 27.123 16.3391 26.7891 16.0051C26.4551 15.6711 26.0156 15.4895 25.5469 15.4895H24.9609V11.3879C24.9609 10.6028 24.6504 9.88794 24.1406 9.3606C24.6387 9.04419 24.9609 8.49927 24.9609 7.87231C24.9609 6.90552 24.1699 6.1145 23.2031 6.1145H17.3438C16.3711 6.1145 15.5859 6.89966 15.5859 7.87231C15.5859 8.49927 15.9141 9.04419 16.4062 9.3606C15.8965 9.88794 15.5859 10.6028 15.5859 11.3879V15.4895H14.4141V10.802C14.4141 9.12622 13.5059 7.57349 12.0703 6.74146V3.67114C12.7383 3.43677 13.2422 2.79224 13.2422 2.01294C13.2422 1.04614 12.4512 0.255127 11.4844 0.255127H7.96875C6.99609 0.255127 6.21094 1.04028 6.21094 2.01294C6.21094 2.77466 6.70312 3.43091 7.38281 3.67114V6.74146C5.94727 7.57349 5.03906 9.12622 5.03906 10.802V15.4895H4.45312C3.48633 15.4895 2.69531 16.2747 2.69531 17.2473V28.4973C2.69531 28.9661 2.87695 29.4114 3.21094 29.7454C3.53906 30.0735 3.98438 30.2551 4.45312 30.2551H25.5469C26.5137 30.2551 27.3047 29.47 27.3047 28.4973V17.2532ZM17.3438 7.28638H23.2031C23.5254 7.28638 23.7891 7.55005 23.7891 7.87231C23.7891 8.19458 23.5254 8.45825 23.2031 8.45825C22.5176 8.45825 17.9648 8.45825 17.3438 8.45825C17.0215 8.45825 16.7578 8.19458 16.7578 7.87231C16.7578 7.55005 17.0215 7.28638 17.3438 7.28638ZM16.7578 11.3879C16.7578 10.4211 17.5488 9.63013 18.5156 9.63013H22.0312C22.998 9.63013 23.7891 10.4211 23.7891 11.3879V11.9739H16.7578V11.3879ZM16.7578 13.1458H23.7891V15.4895H16.7578V13.1458ZM7.96875 1.427H11.4844C11.8066 1.427 12.0703 1.69067 12.0703 2.01294C12.0703 2.33521 11.8066 2.59888 11.4844 2.59888H7.96875C7.64648 2.59888 7.38281 2.33521 7.38281 2.01294C7.38281 1.69067 7.64648 1.427 7.96875 1.427ZM8.2207 7.62622C8.42578 7.52661 8.55469 7.32153 8.55469 7.09888V3.77075H10.8984V7.09302C10.8984 7.32153 11.0273 7.52661 11.2324 7.62036C12.4512 8.20044 13.2422 9.44849 13.2422 10.7961H6.21094C6.21094 9.44849 6.99609 8.2063 8.2207 7.62622ZM6.21094 11.9739H13.2422V15.4895H6.21094V11.9739ZM25.5469 29.0833H4.45312C4.29492 29.0833 4.14844 29.0247 4.03711 28.9133C3.92578 28.802 3.86719 28.6555 3.86719 28.4973V17.2473C3.86719 16.925 4.13086 16.6614 4.45312 16.6614H25.5469C25.7051 16.6614 25.8516 16.72 25.9629 16.8313C26.0742 16.9426 26.1328 17.0891 26.1328 17.2473V28.4973C26.1328 28.8196 25.8691 29.0833 25.5469 29.0833Z" fill="#595959"/>
<path d="M22.0312 19.3567H7.96875C7.64648 19.3567 7.38281 19.6204 7.38281 19.9426V25.802C7.38281 26.1243 7.64648 26.3879 7.96875 26.3879H22.0312C22.3535 26.3879 22.6172 26.1243 22.6172 25.802V19.9426C22.6172 19.6204 22.3535 19.3567 22.0312 19.3567ZM21.4453 25.2161H8.55469V20.5286H21.4453V25.2161Z" fill="#595959"/>
<path d="M12.6562 22.2864H10.3125C9.99023 22.2864 9.72656 22.55 9.72656 22.8723C9.72656 23.1946 9.99023 23.4583 10.3125 23.4583H12.6562C12.9785 23.4583 13.2422 23.1946 13.2422 22.8723C13.2422 22.55 12.9785 22.2864 12.6562 22.2864Z" fill="#595959"/>
<path d="M19.6875 22.2864H17.3438C17.0215 22.2864 16.7578 22.55 16.7578 22.8723C16.7578 23.1946 17.0215 23.4583 17.3438 23.4583H19.6875C20.0098 23.4583 20.2734 23.1946 20.2734 22.8723C20.2734 22.55 20.0098 22.2864 19.6875 22.2864Z" fill="#595959"/>
</g>
</g>
</g>
<defs>
<clipPath id="clip0_250_187">
<rect width="30" height="30" fill="white" transform="translate(0 0.255127)"/>
</clipPath>
<clipPath id="clip1_250_187">
<rect width="30" height="30" fill="white" transform="translate(0 0.255127)"/>
</clipPath>
<clipPath id="clip2_250_187">
<rect width="30" height="30" fill="white" transform="translate(0 0.255127)"/>
</clipPath>
</defs>
</svg>
