<svg width="30" height="31" viewBox="0 0 30 31" fill="none" xmlns="http://www.w3.org/2000/svg">
<g clip-path="url(#clip0_250_405)">
<g clip-path="url(#clip1_250_405)">
<path d="M0.471718 17.595C0.560699 17.6129 0.652604 17.6098 0.740187 17.586C0.827771 17.5623 0.908639 17.5185 0.976417 17.4581C1.0442 17.3978 1.09703 17.3225 1.13076 17.2383C1.16449 17.154 1.17818 17.0631 1.17077 16.9727C1.16336 16.8822 1.13504 16.7947 1.08805 16.7171C1.04106 16.6395 0.976676 16.5738 0.899979 16.5253C0.823281 16.4768 0.736365 16.4468 0.646083 16.4376C0.5558 16.4284 0.464619 16.4403 0.379726 16.4724C0.260719 16.5173 0.159576 16.5998 0.0915781 16.7073C0.0235806 16.8148 -0.00757715 16.9416 0.00281232 17.0684C0.0132018 17.1952 0.064574 17.3151 0.149167 17.4101C0.233761 17.5051 0.34698 17.57 0.471718 17.595Z" fill="#595959"/>
<path d="M22.8692 14.4556C22.3281 12.5665 21.1861 10.9052 19.6161 9.72342C18.0461 8.54167 16.1337 7.90382 14.1686 7.90653H14.1311C13.5663 7.91297 13.0764 8.25106 12.7166 8.5452C12.5602 8.67309 12.383 8.77336 12.1928 8.84168V8.83348C12.1928 8.72977 12.1928 8.62196 12.1928 8.5118V6.71239C12.1934 6.13495 12.4231 5.58135 12.8314 5.17304C13.2397 4.76474 13.7933 4.53508 14.3707 4.53446C14.5261 4.53446 14.6752 4.47272 14.7851 4.36284C14.895 4.25296 14.9567 4.10392 14.9567 3.94852C14.9567 3.79312 14.895 3.64408 14.7851 3.5342C14.6752 3.42431 14.5261 3.36258 14.3707 3.36258C13.7873 3.36315 13.2142 3.51599 12.708 3.80599C12.2017 4.09599 11.78 4.51311 11.4844 5.0161C11.2306 4.45899 10.8805 3.95102 10.4502 3.51551C8.17036 1.24266 4.02485 1.83739 3.84965 1.86434C3.72586 1.88296 3.61128 1.94073 3.52271 2.0292C3.43414 2.11766 3.37623 2.23217 3.35747 2.35594C3.3311 2.53172 2.74458 6.59461 4.95356 8.88094C4.50244 9.11022 4.07126 9.37677 3.6645 9.67782C2.14098 10.799 1.00948 12.3717 0.430708 14.1725C0.392894 14.3173 0.411887 14.471 0.483796 14.6022C0.555704 14.7335 0.675079 14.8322 0.817446 14.8782C0.959814 14.9242 1.11439 14.914 1.24948 14.8497C1.38457 14.7854 1.48994 14.6718 1.54399 14.5323C2.05216 12.9456 3.05214 11.5618 4.39915 10.5813C5.74616 9.60077 7.37029 9.0744 9.03637 9.0784H9.06684C9.16548 9.08721 9.26084 9.11826 9.34575 9.16922L9.37915 9.18797C9.51153 9.26676 9.63733 9.35611 9.75532 9.45516C10.2789 9.87801 10.9315 10.1087 11.6045 10.1087C12.2775 10.1087 12.9302 9.87801 13.4538 9.45516C13.5674 9.36258 13.9137 9.08133 14.1393 9.0784H14.1698C15.8272 9.07647 17.4429 9.59819 18.7862 10.5691C20.1295 11.54 21.1317 12.9105 21.6498 14.4848C17.8541 14.8839 14.8829 18.1276 14.8829 22.0581C14.8816 23.0977 15.0931 24.1267 15.5043 25.0815C15.9155 26.0364 16.5178 26.897 17.2741 27.6104C16.128 28.3845 15.0112 28.4981 14.0514 28.4981H13.9899H13.9079C13.1905 28.5291 12.4731 28.4362 11.7873 28.2233C11.6711 28.1864 11.5462 28.1864 11.4299 28.2233C10.744 28.4362 10.0264 28.5292 9.30883 28.4981C9.26665 28.4981 9.23911 28.4981 9.22797 28.4981H9.16411C7.9143 28.4981 5.31508 28.4981 3.08852 24.0063C2.38659 22.5806 1.8533 21.0779 1.49946 19.5286C1.48265 19.4535 1.45121 19.3824 1.40693 19.3195C1.36266 19.2565 1.30642 19.2029 1.24143 19.1617C1.17644 19.1205 1.10397 19.0925 1.02815 19.0793C0.952332 19.0661 0.874656 19.0679 0.799556 19.0847C0.724456 19.1016 0.653404 19.133 0.590455 19.1773C0.527505 19.2215 0.473893 19.2778 0.432678 19.3428C0.391463 19.4078 0.363452 19.4802 0.350246 19.5561C0.337039 19.6319 0.338896 19.7096 0.355708 19.7847C0.730609 21.4253 1.29535 23.0167 2.03852 24.5266C4.2979 29.0852 7.03364 29.6694 9.16411 29.6694H9.26547C10.0563 29.7006 10.8472 29.6077 11.6092 29.394C12.279 29.5825 12.9718 29.677 13.6676 29.6747C13.7614 29.6747 13.8557 29.6747 13.95 29.6694H14.052C15.2086 29.6694 16.7104 29.5165 18.2239 28.3722C19.4673 29.22 20.9376 29.673 22.4426 29.6718C26.6104 29.6718 30.0012 26.2557 30.0012 22.0575C30.0012 18.0034 26.8401 14.6794 22.8704 14.455L22.8692 14.4556ZM10.0284 8.20946L7.24516 4.97274C7.14189 4.86303 7.00033 4.79733 6.84988 4.78926C6.69943 4.7812 6.55165 4.8314 6.43725 4.92944C6.32284 5.02748 6.2506 5.16582 6.23552 5.31573C6.22045 5.46565 6.2637 5.6156 6.35629 5.73446L8.25122 7.93817C7.53298 7.99932 6.82474 8.14687 6.14184 8.37762C6.03636 8.29426 5.9358 8.20485 5.84067 8.10985C4.36997 6.645 4.39458 4.02293 4.47133 2.97821C5.5184 2.90145 8.14926 2.87684 9.62114 4.3452C10.8563 5.57567 11.0356 7.62645 11.0198 8.84227C10.8301 8.77357 10.6534 8.67333 10.4971 8.54579C10.3488 8.42304 10.1922 8.31067 10.0284 8.20946ZM22.4415 28.5005C18.92 28.5005 16.0547 25.6106 16.0547 22.0581C16.0547 18.5056 18.92 15.6128 22.4415 15.6128C25.9629 15.6128 28.8282 18.5026 28.8282 22.0581C28.8282 25.6136 25.9629 28.5005 22.4415 28.5005Z" fill="#595959"/>
<path d="M25.2417 20.0483H24.4396V19.2356C24.4405 18.8911 24.3046 18.5603 24.0618 18.3158C23.819 18.0714 23.4892 17.9333 23.1446 17.9319H21.7384C21.3939 17.9333 21.064 18.0714 20.8212 18.3158C20.5784 18.5603 20.4425 18.8911 20.4435 19.2356V20.05H19.6413C19.2969 20.0511 18.967 20.1888 18.724 20.4329C18.481 20.677 18.3447 21.0076 18.3452 21.352V22.7676C18.3447 23.1121 18.481 23.4426 18.724 23.6867C18.967 23.9308 19.2969 24.0685 19.6413 24.0696H20.4435V24.884C20.4435 25.228 20.5797 25.5579 20.8224 25.8015C21.0651 26.0452 21.3945 26.1828 21.7384 26.1842H23.1446C23.4891 26.1831 23.819 26.0454 24.062 25.8013C24.305 25.5572 24.4412 25.2267 24.4407 24.8823V24.0678H25.2429C25.5873 24.0667 25.9172 23.929 26.1602 23.6849C26.4032 23.4408 26.5394 23.1103 26.539 22.7659V21.3502C26.5394 21.0056 26.4031 20.6749 26.1598 20.4308C25.9166 20.1866 25.5863 20.0491 25.2417 20.0483ZM25.3659 22.7659C25.3663 22.7826 25.3634 22.7992 25.3574 22.8148C25.3513 22.8303 25.3423 22.8446 25.3308 22.8566C25.3192 22.8687 25.3054 22.8784 25.2901 22.8852C25.2749 22.8919 25.2584 22.8956 25.2417 22.8959H23.8536C23.6982 22.8959 23.5492 22.9577 23.4393 23.0676C23.3294 23.1774 23.2677 23.3265 23.2677 23.4819V24.8823C23.2683 24.916 23.2556 24.9485 23.2323 24.9729C23.2091 24.9972 23.1771 25.0114 23.1435 25.0124H21.7384C21.7047 25.0114 21.6728 24.9972 21.6495 24.9729C21.6262 24.9485 21.6135 24.916 21.6142 24.8823V23.4819C21.6142 23.3265 21.5524 23.1774 21.4425 23.0676C21.3327 22.9577 21.1836 22.8959 21.0282 22.8959H19.6413C19.6246 22.8956 19.6082 22.8919 19.5929 22.8852C19.5776 22.8784 19.5638 22.8687 19.5523 22.8566C19.5407 22.8446 19.5317 22.8303 19.5256 22.8148C19.5196 22.7992 19.5167 22.7826 19.5171 22.7659V21.3502C19.5167 21.3335 19.5196 21.3169 19.5256 21.3014C19.5317 21.2858 19.5407 21.2715 19.5523 21.2595C19.5638 21.2474 19.5776 21.2377 19.5929 21.231C19.6082 21.2242 19.6246 21.2205 19.6413 21.2202H21.0294C21.1848 21.2202 21.3338 21.1584 21.4437 21.0485C21.5536 20.9387 21.6153 20.7896 21.6153 20.6342V19.2356C21.6147 19.2019 21.6274 19.1693 21.6507 19.145C21.6739 19.1206 21.7059 19.1064 21.7396 19.1055H23.1458C23.1791 19.107 23.2104 19.1215 23.2332 19.1458C23.2559 19.1701 23.2683 19.2023 23.2677 19.2356V20.636C23.2677 20.7914 23.3294 20.9404 23.4393 21.0503C23.5492 21.1602 23.6982 21.2219 23.8536 21.2219H25.2417C25.2584 21.2223 25.2749 21.226 25.2901 21.2327C25.3054 21.2395 25.3192 21.2491 25.3308 21.2612C25.3423 21.2733 25.3513 21.2875 25.3574 21.3031C25.3634 21.3187 25.3663 21.3353 25.3659 21.352V22.7659Z" fill="#595959"/>
</g>
</g>
<defs>
<clipPath id="clip0_250_405">
<rect width="30" height="30" fill="white" transform="translate(0 0.724976)"/>
</clipPath>
<clipPath id="clip1_250_405">
<rect width="30" height="27.9006" fill="white" transform="translate(0 1.77466)"/>
</clipPath>
</defs>
</svg>
