<svg width="30" height="31" viewBox="0 0 30 31" fill="none" xmlns="http://www.w3.org/2000/svg">
<g clip-path="url(#clip0_250_9)">
<path d="M24.1868 6.74591C21.7267 5.84873 18.464 5.35498 15 5.35498C11.536 5.35498 8.27332 5.84873 5.81318 6.74591C3.21626 7.69212 1.78577 9.00735 1.78577 10.4447C1.78577 11.8821 3.21626 13.1973 5.81318 14.1435C8.27418 15.0407 11.536 15.5353 15 15.5353C18.464 15.5353 21.7267 15.0407 24.1868 14.1435C26.7838 13.1973 28.2143 11.8821 28.2143 10.4447C28.2143 9.00735 26.7838 7.69298 24.1868 6.74591ZM13.2633 8.67962L13.8861 6.62548C13.9122 6.53513 13.9672 6.45584 14.0428 6.39975C14.1183 6.34367 14.2101 6.31388 14.3041 6.31495H15.923C16.0128 6.31526 16.1003 6.34303 16.1738 6.39455C16.2473 6.44606 16.3033 6.51885 16.3342 6.60312L17.0808 8.65639C17.1051 8.72239 17.113 8.79328 17.104 8.86301C17.095 8.93274 17.0692 8.99926 17.0289 9.05688C16.9886 9.1145 16.9349 9.16153 16.8725 9.19394C16.8101 9.22636 16.7408 9.2432 16.6705 9.24304H13.6813C13.6131 9.24319 13.5458 9.22732 13.4848 9.19671C13.4238 9.1661 13.3708 9.1216 13.3302 9.0668C13.2895 9.01199 13.2623 8.94841 13.2507 8.88116C13.239 8.81392 13.2434 8.74489 13.2633 8.67962ZM23.8927 13.3427C21.5237 14.2029 18.3659 14.682 15 14.682C11.6341 14.682 8.47633 14.2029 6.10736 13.3393C3.90786 12.5367 2.64682 11.4821 2.64682 10.4464C2.64682 9.41078 3.90786 8.35618 6.10736 7.55449C8.02387 6.85515 10.4573 6.41043 13.099 6.2642C13.0852 6.29947 13.0732 6.33474 13.062 6.37087L12.4392 8.425C12.3804 8.61879 12.3677 8.82369 12.4023 9.02325C12.4369 9.22281 12.5178 9.41148 12.6385 9.57414C12.7592 9.7368 12.9163 9.86892 13.0972 9.95991C13.2782 10.0509 13.4779 10.0982 13.6805 10.0981H16.6705C16.879 10.0985 17.0846 10.0487 17.2698 9.95276C17.4549 9.85682 17.6142 9.71764 17.7341 9.54702C17.854 9.37639 17.9309 9.17936 17.9584 8.97265C17.9859 8.76594 17.9631 8.55565 17.892 8.35963L17.1427 6.30549L17.1324 6.27969C19.6855 6.4371 22.0355 6.8758 23.8927 7.55449C26.0922 8.35618 27.3541 9.41078 27.3541 10.4464C27.3541 11.4821 26.0922 12.5367 23.8927 13.3393V13.3427Z" fill="#595959"/>
<path d="M14.3772 8.73983L15.9316 8.74929C16.0456 8.74929 16.155 8.70398 16.2357 8.62332C16.3164 8.54266 16.3617 8.43326 16.3617 8.3192C16.3617 8.20513 16.3164 8.09573 16.2357 8.01507C16.155 7.93441 16.0456 7.8891 15.9316 7.8891L14.3824 7.87964C14.2683 7.87964 14.1589 7.92495 14.0782 8.00561C13.9976 8.08627 13.9523 8.19567 13.9523 8.30973C13.9523 8.4238 13.9976 8.5332 14.0782 8.61386C14.1589 8.69452 14.2683 8.73983 14.3824 8.73983H14.3772Z" fill="#595959"/>
<path d="M30 10.4757C30 6.91192 23.4118 4.12061 15 4.12061C6.5882 4.12061 0 6.91192 0 10.4757V19.5292C0 19.543 0 19.5567 0 19.5705C0 19.6058 0 19.6402 0 19.6754C0 23.2383 6.58906 26.0297 15 26.0297C23.4109 26.0297 30 23.2383 30 19.6754C30 19.6402 30 19.6058 30 19.5713C30.0009 19.5573 30.0009 19.5432 30 19.5292V10.4757ZM29.1398 19.4664C29.1369 19.495 29.1369 19.5238 29.1398 19.5524C29.1398 19.5928 29.1398 19.6333 29.1398 19.6737C29.1398 22.6517 22.6643 25.1677 15 25.1677C7.3357 25.1677 0.86019 22.6534 0.86019 19.6754C0.86019 19.635 0.86019 19.5946 0.86019 19.5541C0.863256 19.5255 0.863256 19.4967 0.86019 19.4681V12.6537C2.90744 15.1216 8.39546 16.8463 15 16.8463C21.6045 16.8463 27.096 15.1216 29.1398 12.6537V19.4664ZM29.1398 10.4869V10.5032C29.1398 10.5127 29.1398 10.5221 29.1398 10.5316C29.0598 13.4846 22.6178 15.9697 15.0009 15.9697C7.38387 15.9697 0.946209 13.4846 0.86019 10.5316V10.5032C0.86019 10.4981 0.86019 10.492 0.86019 10.4869V10.4757C0.86019 7.49685 7.3357 4.9808 15 4.9808C22.6643 4.9808 29.1398 7.49685 29.1398 10.4748V10.4869Z" fill="#595959"/>
</g>
<defs>
<clipPath id="clip0_250_9">
<rect width="30" height="21.909" fill="white" transform="translate(0 4.12061)"/>
</clipPath>
</defs>
</svg>
