<svg width="30" height="31" viewBox="0 0 30 31" fill="none" xmlns="http://www.w3.org/2000/svg">
<g clip-path="url(#clip0_250_1015)">
<g clip-path="url(#clip1_250_1015)">
<path d="M29.4176 8.79713C29.1744 8.55376 28.8721 8.3777 28.5404 8.28619C28.2087 8.19467 27.859 8.19083 27.5254 8.27505C27.1917 8.35927 26.8857 8.52865 26.6372 8.76663C26.3887 9.0046 26.2062 9.30302 26.1076 9.63267C25.8406 9.52274 25.5506 9.4803 25.2632 9.50909C24.9758 9.53789 24.7 9.63704 24.4601 9.79779C24.2202 9.95853 24.0235 10.1759 23.8876 10.4307C23.7517 10.6855 23.6806 10.9699 23.6807 11.2587V18.4727L21.91 19.9522C20.791 20.885 19.8911 22.0527 19.2741 23.3724C18.6571 24.6921 18.3382 26.1314 18.3399 27.5881V29.9102C18.3399 30.0656 18.4016 30.2146 18.5115 30.3245C18.6214 30.4344 18.7704 30.4962 18.9258 30.4962C19.0812 30.4962 19.2302 30.4344 19.3401 30.3245C19.45 30.2146 19.5117 30.0656 19.5117 29.9102V27.5881C19.5099 26.3027 19.7912 25.0326 20.3355 23.868C20.8798 22.7035 21.6738 21.673 22.6611 20.8499L26.9824 17.2381C27.1426 17.1056 27.3462 17.0371 27.5539 17.0461C27.7617 17.055 27.9587 17.1407 28.1068 17.2865C28.255 17.4324 28.3438 17.628 28.356 17.8355C28.3683 18.0431 28.3031 18.2478 28.1731 18.41L23.8107 23.7883C23.7612 23.848 23.7239 23.9168 23.7011 23.991C23.6784 24.0651 23.6705 24.143 23.6781 24.2202C23.6857 24.2973 23.7085 24.3723 23.7452 24.4405C23.7819 24.5088 23.8319 24.5692 23.8921 24.618C23.9523 24.6669 24.0216 24.7033 24.096 24.7252C24.1704 24.747 24.2484 24.7539 24.3255 24.7454C24.4026 24.7369 24.4772 24.7132 24.545 24.6756C24.6129 24.6381 24.6726 24.5874 24.7207 24.5266L28.8281 19.467V21.669C28.8282 22.9426 28.476 24.1914 27.8104 25.2772L25.1584 29.6014C25.1168 29.667 25.0886 29.7403 25.0756 29.8169C25.0625 29.8935 25.0649 29.9719 25.0824 30.0476C25.1 30.1233 25.1324 30.1948 25.1778 30.2578C25.2232 30.3209 25.2808 30.3742 25.347 30.4148C25.4133 30.4555 25.4869 30.4825 25.5637 30.4943C25.6405 30.5062 25.7189 30.5027 25.7943 30.484C25.8697 30.4652 25.9407 30.4317 26.003 30.3853C26.0654 30.3389 26.1178 30.2806 26.1574 30.2137L28.8088 25.8895C29.5876 24.6202 29.9999 23.16 30 21.6708V10.2022C30.0009 9.94092 29.9499 9.68206 29.8499 9.44065C29.7499 9.19925 29.603 8.98011 29.4176 8.79596V8.79713ZM24.8525 11.2581C24.8525 11.1027 24.9143 10.9536 25.0242 10.8437C25.134 10.7339 25.2831 10.6721 25.4385 10.6721C25.5939 10.6721 25.7429 10.7339 25.8528 10.8437C25.9627 10.9536 26.0244 11.1027 26.0244 11.2581V16.5139L24.8525 17.493V11.2581ZM28.319 16.037C27.9656 15.8838 27.5758 15.8354 27.1957 15.8975V10.2022C27.1957 9.98573 27.2817 9.77813 27.4348 9.62506C27.5878 9.47199 27.7954 9.386 28.0119 9.386C28.2284 9.386 28.436 9.47199 28.5891 9.62506C28.7421 9.77813 28.8281 9.98573 28.8281 10.2022V16.3545C28.6751 16.2245 28.5035 16.118 28.319 16.0387V16.037Z" fill="#595959"/>
<path d="M8.09004 19.9522L6.31934 18.4727V11.2587C6.31942 10.9699 6.24835 10.6855 6.11241 10.4307C5.97646 10.1759 5.77984 9.95856 5.53992 9.79782C5.29999 9.63707 5.02416 9.53792 4.73681 9.50912C4.44945 9.48033 4.15943 9.52277 3.89238 9.6327C3.75532 9.17568 3.45847 8.78319 3.05602 8.52689C2.65357 8.27059 2.17236 8.16757 1.70025 8.23665C1.22815 8.30573 0.796628 8.54229 0.484479 8.90315C0.17233 9.26401 0.000372627 9.7251 0 10.2022L0 21.669C8.76155e-05 23.1583 0.412379 24.6184 1.19121 25.8878L3.84258 30.212C3.87993 30.283 3.93147 30.3456 3.99402 30.3959C4.05656 30.4462 4.12877 30.4831 4.20616 30.5044C4.28356 30.5256 4.36449 30.5307 4.44394 30.5194C4.52339 30.508 4.59967 30.4805 4.66804 30.4385C4.73641 30.3965 4.79542 30.3408 4.8414 30.2751C4.88739 30.2093 4.91937 30.1348 4.93537 30.0561C4.95137 29.9775 4.95104 29.8964 4.93441 29.8179C4.91777 29.7394 4.88519 29.6651 4.83867 29.5997L2.1873 25.2755C1.52259 24.19 1.17115 22.9418 1.17187 21.669V19.4671L5.27812 24.5296C5.32625 24.5904 5.38596 24.641 5.4538 24.6786C5.52165 24.7162 5.59627 24.7399 5.67335 24.7484C5.75043 24.7569 5.82843 24.75 5.90282 24.7281C5.97722 24.7063 6.04654 24.6698 6.10676 24.621C6.16698 24.5721 6.2169 24.5118 6.25363 24.4435C6.29036 24.3752 6.31317 24.3003 6.32073 24.2231C6.3283 24.146 6.32047 24.068 6.2977 23.9939C6.27493 23.9198 6.23767 23.8509 6.18809 23.7913L1.82637 18.413C1.69635 18.2507 1.63115 18.046 1.64338 17.8385C1.65561 17.6309 1.74441 17.4353 1.89258 17.2895C2.04076 17.1436 2.23777 17.058 2.44548 17.049C2.6532 17.0401 2.85684 17.1085 3.01699 17.2411L7.33828 20.8528C8.32564 21.676 9.11966 22.7064 9.66396 23.871C10.2083 25.0355 10.4895 26.3056 10.4877 27.5911V29.9102C10.4877 30.0656 10.5494 30.2147 10.6593 30.3246C10.7692 30.4345 10.9182 30.4962 11.0736 30.4962C11.229 30.4962 11.3781 30.4345 11.488 30.3246C11.5978 30.2147 11.6596 30.0656 11.6596 29.9102V27.5882C11.6612 26.1315 11.3423 24.6922 10.7254 23.3726C10.1085 22.0529 9.20878 20.8852 8.09004 19.9522ZM4.56211 10.6733C4.71751 10.6733 4.86654 10.7351 4.97643 10.8449C5.08631 10.9548 5.14805 11.1039 5.14805 11.2593V17.4936L3.97617 16.5145V11.2587C3.97617 11.1033 4.0379 10.9542 4.14779 10.8444C4.25767 10.7345 4.40671 10.6727 4.56211 10.6727V10.6733ZM1.68105 16.0376C1.49659 16.117 1.32498 16.2234 1.17187 16.3534V10.2011C1.17187 9.98459 1.25787 9.77699 1.41094 9.62392C1.56401 9.47085 1.77161 9.38485 1.98809 9.38485C2.20456 9.38485 2.41216 9.47085 2.56523 9.62392C2.7183 9.77699 2.8043 9.98459 2.8043 10.2011V15.8975C2.42421 15.8353 2.03423 15.8839 1.68105 16.0376Z" fill="#595959"/>
<path d="M19.3125 12.6468C19.4541 12.5841 19.5652 12.4679 19.6214 12.3236C19.6775 12.1793 19.6743 12.0186 19.6124 11.8766C19.5504 11.7347 19.4348 11.6231 19.2908 11.5661C19.1468 11.5092 18.986 11.5116 18.8438 11.5728C17.8288 12.0157 16.7177 12.1927 15.6153 12.0872C15.5242 11.1315 15.6454 10.1675 15.9703 9.26404C16.2951 8.36062 16.8156 7.54015 17.4944 6.86129C18.1733 6.18243 18.9938 5.66197 19.8972 5.33711C20.8006 5.01226 21.7646 4.89104 22.7204 4.98213C22.8265 6.08463 22.6498 7.19599 22.2071 8.21124C22.1459 8.3535 22.1435 8.5142 22.2004 8.65822C22.2574 8.80223 22.369 8.91785 22.5109 8.9798C22.6529 9.04175 22.8136 9.04498 22.9579 8.9888C23.1022 8.93262 23.2184 8.82159 23.2811 8.67999C23.8726 7.32304 24.0604 5.82432 23.8219 4.36338C23.8023 4.24179 23.7449 4.12946 23.6578 4.04237C23.5707 3.95527 23.4584 3.89784 23.3368 3.87823C21.5898 3.59835 19.7997 3.92638 18.2655 4.80752C17.8031 3.11297 16.771 1.6295 15.3428 0.606939C15.243 0.534955 15.1231 0.496216 15 0.496216C14.877 0.496216 14.7571 0.534955 14.6573 0.606939C13.2294 1.63006 12.1974 3.11359 11.7346 4.80811C10.2008 3.92763 8.41134 3.60002 6.66508 3.87999C6.54373 3.8995 6.43159 3.95667 6.34452 4.04342C6.25745 4.13017 6.19987 4.24211 6.17992 4.36338C5.98566 5.56592 6.07961 6.7974 6.45406 7.95655C6.8285 9.1157 7.47274 10.1694 8.33381 11.031C9.19487 11.8927 10.2482 12.5376 11.4071 12.9128C12.566 13.2881 13.7974 13.3828 15 13.1894C15.4087 13.2553 15.8219 13.2884 16.2358 13.2884C17.2942 13.2888 18.3413 13.0703 19.3114 12.6468H19.3125ZM15 1.82159C16.1463 2.76254 16.9343 4.06893 17.2319 5.52178C17.0345 5.68238 16.8454 5.85291 16.6653 6.03272C15.951 6.74789 15.3851 7.59717 15 8.53174C14.6158 7.59704 14.0502 6.74769 13.336 6.03272C13.1557 5.85254 12.9664 5.68162 12.7688 5.52061C13.0669 4.06842 13.8545 2.76262 15 1.82159ZM14.3866 12.0872C13.4308 12.1784 12.4668 12.0573 11.5633 11.7325C10.6599 11.4076 9.8394 10.8872 9.16057 10.2083C8.48173 9.52939 7.96132 8.70886 7.63658 7.80539C7.31183 6.90192 7.19078 5.93784 7.28207 4.98213C8.23774 4.89114 9.20171 5.01242 10.1051 5.33732C11.0084 5.66221 11.8288 6.18269 12.5076 6.86154C13.1864 7.54038 13.7068 8.36083 14.0316 9.2642C14.3564 10.1676 14.4776 11.1315 14.3866 12.0872Z" fill="#595959"/>
<path d="M20.8412 10.2075C20.7452 10.3032 20.6854 10.4293 20.672 10.5643C20.6585 10.6992 20.6923 10.8346 20.7675 10.9474C20.8428 11.0602 20.9548 11.1434 21.0845 11.1829C21.2142 11.2224 21.3536 11.2156 21.479 11.1638C21.6043 11.1119 21.7077 11.0183 21.7717 10.8987C21.8356 10.7791 21.8561 10.6411 21.8297 10.5081C21.8033 10.3751 21.7315 10.2554 21.6267 10.1694C21.5219 10.0833 21.3905 10.0363 21.2549 10.0364C21.0999 10.037 20.9514 10.0985 20.8412 10.2075Z" fill="#595959"/>
</g>
</g>
<defs>
<clipPath id="clip0_250_1015">
<rect width="30" height="30" fill="white" transform="translate(0 0.494995)"/>
</clipPath>
<clipPath id="clip1_250_1015">
<rect width="30" height="29.9977" fill="white" transform="translate(0 0.496216)"/>
</clipPath>
</defs>
</svg>
