<svg width="30" height="31" viewBox="0 0 30 31" fill="none" xmlns="http://www.w3.org/2000/svg">
<g clip-path="url(#clip0_250_581)">
<g clip-path="url(#clip1_250_581)">
<path d="M25.8624 15.308C24.8614 15.0964 23.6172 15.1363 22.1655 15.4252C19.3735 15.982 16.5692 17.2971 15.4932 17.8363C14.1536 18.5102 13.1359 19.688 12.6635 21.1112C12.1911 22.5344 12.3024 24.0869 12.9731 25.4282L14.0474 27.5702C14.7211 28.9099 15.8987 29.9276 17.3219 30.4001C18.745 30.8725 20.2975 30.7611 21.6386 30.0903C22.9245 29.4456 23.6899 28.5589 24.4963 27.62C25.332 26.6489 26.1959 25.645 27.7337 24.8743C28.7069 24.385 29.4462 23.5296 29.7894 22.4958C30.1326 21.462 30.0518 20.3343 29.5646 19.3601L28.4909 17.2174C27.9857 16.2123 27.1013 15.57 25.8624 15.308ZM28.2313 20.6764C28.3167 20.7075 28.411 20.7035 28.4934 20.6651C28.5758 20.6268 28.6396 20.5572 28.6708 20.4718C28.7804 20.1742 28.8549 19.8648 28.8929 19.5499L28.9515 19.6672C29.3574 20.4787 29.4249 21.418 29.1393 22.2792C28.8536 23.1404 28.2382 23.8532 27.4278 24.2613C25.768 25.0935 24.8579 26.1508 23.9776 27.1729C23.214 28.0596 22.4937 28.8959 21.3327 29.482C20.2035 30.0465 18.9019 30.1609 17.6916 29.8018C16.4812 29.4427 15.4526 28.637 14.8139 27.548C15.6484 28.1246 16.6225 28.4664 17.6343 28.5376C18.6461 28.6088 19.6585 28.4069 20.5656 27.9529C21.8514 27.3083 22.6168 26.4215 23.4232 25.4827C24.2589 24.5116 25.1228 23.5076 26.6606 22.7364C26.7749 22.6778 26.8874 22.6192 26.9958 22.5488C27.073 22.5006 27.1279 22.4238 27.1484 22.3351C27.1689 22.2465 27.1533 22.1533 27.1051 22.0762C27.057 21.999 26.9801 21.9441 26.8915 21.9236C26.8028 21.9031 26.7097 21.9187 26.6325 21.9669C26.5428 22.0255 26.4485 22.0759 26.3535 22.1239C24.6938 22.9561 23.7836 24.0128 22.9034 25.0349C22.1415 25.9205 21.4212 26.7568 20.2585 27.3399C19.082 27.9139 17.7266 28.0007 16.4866 27.5813C15.2465 27.1619 14.222 26.2703 13.6354 25.1C13.0489 23.9298 12.9476 22.5754 13.3537 21.3309C13.7598 20.0865 14.6405 19.0525 15.8044 18.4534C16.8558 17.926 19.5933 16.6419 22.3038 16.1015C25.2341 15.5155 27.1131 15.9972 27.8814 17.5298C28.0891 17.9476 28.2095 18.4034 28.2353 18.8693C28.2611 19.3352 28.1917 19.8015 28.0314 20.2397C28.0011 20.3242 28.005 20.4172 28.0424 20.4988C28.0797 20.5804 28.1475 20.6441 28.2313 20.6764Z" fill="#595959"/>
<path d="M28.0772 20.9981C28.0417 20.9703 28.0012 20.9498 27.9578 20.9377C27.9144 20.9255 27.8691 20.9221 27.8244 20.9276C27.7797 20.933 27.7365 20.9472 27.6973 20.9694C27.6581 20.9915 27.6237 21.0212 27.596 21.0567C27.594 21.0591 27.5923 21.0617 27.5907 21.0643C27.5504 21.1184 27.527 21.1832 27.5233 21.2506C27.5197 21.3179 27.536 21.3848 27.5702 21.443C27.6044 21.5011 27.655 21.5479 27.7156 21.5774C27.7763 21.6069 27.8443 21.6179 27.9111 21.609C27.978 21.6 28.0407 21.5716 28.0915 21.5271C28.1422 21.4827 28.1788 21.4243 28.1965 21.3592C28.2142 21.2941 28.2123 21.2253 28.1911 21.1613C28.1699 21.0972 28.1302 21.0409 28.0772 20.9993V20.9981Z" fill="#595959"/>
<path d="M18.3631 18.0396L18.3467 18.0467C18.3044 18.0632 18.2658 18.0879 18.2331 18.1195C18.2005 18.151 18.1744 18.1888 18.1565 18.2305C18.1385 18.2722 18.129 18.317 18.1286 18.3624C18.1281 18.4078 18.1366 18.4529 18.1537 18.495C18.1708 18.537 18.1961 18.5753 18.228 18.6075C18.26 18.6398 18.2981 18.6653 18.34 18.6827C18.382 18.7001 18.427 18.709 18.4724 18.7089C18.5178 18.7087 18.5627 18.6996 18.6046 18.6819L18.6204 18.6755L18.6456 18.6638C18.7246 18.624 18.7852 18.5552 18.8147 18.4718C18.8441 18.3884 18.8402 18.2968 18.8037 18.2162C18.7673 18.1356 18.701 18.0722 18.6189 18.0393C18.5368 18.0064 18.4451 18.0065 18.3631 18.0396Z" fill="#595959"/>
<path d="M26.6589 17.1037C26.0541 16.6553 25.117 16.4754 23.8751 16.5686C22.87 16.6442 21.8502 16.8851 21.1716 17.0738C20.7648 17.1869 20.3446 17.3164 19.9221 17.4594C19.8781 17.4727 19.8373 17.4947 19.802 17.5241C19.7667 17.5535 19.7377 17.5897 19.7166 17.6306C19.6956 17.6714 19.683 17.7161 19.6796 17.7619C19.6761 17.8077 19.6819 17.8537 19.6966 17.8972C19.7113 17.9407 19.7346 17.9809 19.7651 18.0152C19.7956 18.0495 19.8327 18.0774 19.8741 18.0971C19.9156 18.1169 19.9606 18.1281 20.0065 18.1301C20.0524 18.1321 20.0982 18.1248 20.1413 18.1088C20.5515 17.9699 20.9618 17.8439 21.3556 17.7343C23.667 17.0896 25.4516 17.0627 26.251 17.6546C26.4214 17.7824 26.5586 17.9492 26.6513 18.141C26.7722 18.3819 26.8445 18.6442 26.8641 18.9131C26.8836 19.1819 26.8499 19.4519 26.765 19.7077C26.6801 19.9636 26.5456 20.2001 26.3692 20.4039C26.1928 20.6077 25.978 20.7748 25.737 20.8955C24.7049 21.4153 23.7658 22.1023 22.9579 22.9286C22.5928 23.2972 22.2546 23.6905 21.9282 24.0661C21.7119 24.3164 21.4886 24.5748 21.2618 24.8216C20.6892 25.4434 20.2069 25.8296 19.6419 26.1109C18.7885 26.5388 17.8001 26.6102 16.8941 26.3093C15.988 26.0084 15.2386 25.36 14.8107 24.5065C14.3828 23.6531 14.3115 22.6647 14.6123 21.7587C14.9132 20.8526 15.5617 20.1032 16.4151 19.6753C16.7614 19.4995 17.1184 19.3325 17.47 19.1713L17.6499 19.0899C17.7329 19.0527 17.7978 18.9841 17.8302 18.8991C17.8626 18.8142 17.86 18.7198 17.8228 18.6368C17.7857 18.5538 17.7171 18.489 17.6321 18.4566C17.5471 18.4241 17.4528 18.4268 17.3698 18.4639C17.3077 18.4915 17.2461 18.5196 17.1852 18.5477C16.8242 18.7118 16.4614 18.8853 16.108 19.0629C15.605 19.3151 15.1566 19.6639 14.7884 20.0894C14.4202 20.5149 14.1395 21.0088 13.9621 21.5428C13.7848 22.0768 13.7144 22.6405 13.7549 23.2017C13.7954 23.7629 13.9461 24.3106 14.1983 24.8136C14.4505 25.3166 14.7993 25.765 15.2248 26.1332C15.6503 26.5014 16.1442 26.7822 16.6782 26.9595C17.2122 27.1368 17.7759 27.2072 18.3371 27.1667C18.8983 27.1262 19.4461 26.9755 19.949 26.7233C20.5908 26.4016 21.1341 25.9714 21.7658 25.2845C22.0003 25.0302 22.2265 24.767 22.4463 24.5133C22.7657 24.1441 23.0956 23.7619 23.4426 23.4103C24.198 22.6369 25.0763 21.9939 26.0418 21.5074C26.6902 21.1814 27.1828 20.6115 27.4116 19.9227C27.6404 19.2339 27.5865 18.4825 27.2619 17.8333C27.1222 17.5454 26.9154 17.2951 26.6589 17.1037Z" fill="#595959"/>
<path d="M17.0123 20.1342C16.156 20.5638 15.7757 21.5454 16.1654 22.3226C16.5551 23.0997 17.569 23.3816 18.4253 22.952C19.2815 22.5224 19.6624 21.5413 19.2727 20.7642C18.883 19.9871 17.8691 19.7046 17.0123 20.1342ZM18.1182 22.3396C17.5995 22.5992 16.9982 22.4538 16.7784 22.0149C16.5587 21.5759 16.8013 21.0074 17.32 20.7472C17.8386 20.487 18.4393 20.63 18.6597 21.0713C18.8801 21.5126 18.6368 22.0794 18.1182 22.3396Z" fill="#595959"/>
<path d="M0.66053 19.2311C4.15464 20.33 7.63468 19.7357 10.3839 17.6364C13.1349 18.0367 17.4512 14.7214 17.637 14.5778C17.6971 14.531 17.7443 14.4697 17.7741 14.3996C17.8038 14.3295 17.8152 14.253 17.8071 14.1772C17.799 14.1015 17.7717 14.0291 17.7278 13.9669C17.6839 13.9047 17.6248 13.8547 17.5562 13.8217C16.224 13.1841 14.7524 12.4152 14.2074 12.0501C14.6135 11.0479 14.9107 10.1102 15.0396 9.43975C17.2332 10.0129 19.0336 8.34674 19.1151 8.26762C19.2012 8.18622 19.2515 8.07395 19.2549 7.95549C19.2583 7.83703 19.2146 7.72206 19.1332 7.63584C17.3563 5.75341 15.8079 5.42814 14.9722 5.42052C15.0126 4.5848 14.777 3.01766 13.0001 1.13757C12.9596 1.0947 12.9111 1.06024 12.8573 1.0362C12.8034 1.01215 12.7454 0.998989 12.6864 0.997464C12.6275 0.995939 12.5689 1.00608 12.5139 1.02731C12.4589 1.04854 12.4086 1.08044 12.366 1.12116C12.2845 1.19852 10.5169 2.89986 10.9629 5.1228C10.0639 5.24002 8.67729 5.62916 7.2848 6.17772C7.16759 5.60513 6.73859 4.92237 5.95854 4.09602C5.91832 4.05324 5.87004 4.01882 5.81648 3.99474C5.76292 3.97066 5.70513 3.9574 5.64643 3.95571C5.58773 3.95402 5.52927 3.96394 5.47442 3.9849C5.41956 4.00586 5.36938 4.03745 5.32677 4.07785C5.23007 4.16869 3.04112 6.27383 3.15833 8.60343C0.410281 11.3011 -0.61533 15.0413 0.361637 18.914C0.380336 18.988 0.417606 19.0559 0.469914 19.1114C0.522221 19.1669 0.587833 19.2081 0.66053 19.2311ZM16.5018 14.3029C15.2611 15.1755 13.1027 16.479 11.4318 16.7392C12.3314 15.8208 13.19 14.3433 13.8516 12.8799C14.5344 13.3154 15.696 13.9067 16.5018 14.3029ZM5.62625 5.06185C6.43618 6.00659 6.44673 6.43441 6.4315 6.53697C5.58874 6.91205 4.78056 7.34105 4.1142 7.80229C4.35156 6.64129 5.16677 5.57993 5.62625 5.06185ZM6.48073 6.51295H6.47721C6.47721 6.51295 6.47897 6.5147 6.48131 6.51295H6.48073ZM3.91904 9.09631C5.81789 7.30355 10.3939 5.93157 11.5244 5.97728C11.5839 5.97985 11.6433 5.97044 11.699 5.9496C11.7548 5.92876 11.8058 5.89692 11.8491 5.85597C11.8687 5.83698 11.8867 5.8164 11.903 5.79443C11.9462 5.73523 11.9741 5.66629 11.9844 5.59371C11.9946 5.52114 11.9868 5.44716 11.9616 5.37833C11.4406 3.94716 12.2095 2.69884 12.6742 2.11278C14.4946 4.24488 14.0445 5.69832 14.0222 5.77158C13.9957 5.84892 13.9909 5.93203 14.0082 6.01193C14.0255 6.09183 14.0643 6.16548 14.1204 6.22496C14.1764 6.28443 14.2477 6.32745 14.3265 6.34939C14.4052 6.37132 14.4885 6.37134 14.5672 6.34943C14.6329 6.33185 16.1121 5.95736 18.1422 7.90192C17.5327 8.32916 16.2316 9.02481 14.8444 8.42937C14.7771 8.4004 14.7037 8.38846 14.6306 8.39459C14.5576 8.40073 14.4871 8.42475 14.4256 8.46454C14.364 8.50433 14.3132 8.55867 14.2776 8.62275C14.242 8.68684 14.2227 8.7587 14.2215 8.832C14.2015 9.9631 12.5688 14.4523 10.6699 16.2451C8.10178 18.6661 4.65279 19.4638 1.17216 18.4516C0.358707 14.9153 1.35384 11.5179 3.91904 9.09631Z" fill="#595959"/>
<path d="M6.31836 13.5903C7.7296 15.0853 8.00446 16.5581 8.00739 16.5733C8.03238 16.6853 8.09946 16.7833 8.19475 16.8471C8.29004 16.9109 8.40622 16.9356 8.51923 16.9161C8.63224 16.8966 8.73341 16.8344 8.80178 16.7423C8.87015 16.6502 8.90048 16.5354 8.88649 16.4215C8.87477 16.3512 8.57529 14.6804 6.96713 12.9772C5.35897 11.2741 3.70979 10.8786 3.64005 10.8627C3.56786 10.8455 3.49249 10.8465 3.42082 10.8659C3.34916 10.8852 3.28348 10.9222 3.2298 10.9735C3.1674 11.0341 3.12437 11.1118 3.10614 11.1968C3.09288 11.2539 3.09103 11.3132 3.10071 11.371C3.11039 11.4289 3.13141 11.4843 3.16256 11.534C3.19371 11.5837 3.23438 11.6268 3.28223 11.6607C3.33007 11.6947 3.38416 11.7189 3.44137 11.7319C3.45368 11.7366 4.89422 12.0817 6.31836 13.5903Z" fill="#595959"/>
<path d="M9.82359 15.7095C9.9399 15.6891 10.0434 15.6236 10.1116 15.5272C10.1798 15.4308 10.2071 15.3113 10.1875 15.1949C10.1758 15.124 9.87575 13.4531 8.26818 11.75C7.60687 11.0423 6.82476 10.458 5.9585 10.0246C5.87675 9.98469 5.78475 9.97064 5.69479 9.98436C5.60484 9.99808 5.52121 10.0389 5.45508 10.1014C5.41616 10.1379 5.38419 10.1812 5.36072 10.2292C5.33468 10.2821 5.31938 10.3396 5.31569 10.3985C5.31201 10.4573 5.32001 10.5163 5.33925 10.572C5.35848 10.6278 5.38856 10.6792 5.42775 10.7232C5.46695 10.7673 5.51448 10.8031 5.5676 10.8287C6.33689 11.2148 7.03143 11.7345 7.61882 12.3636C9.03006 13.8587 9.30493 15.3314 9.30727 15.3461C9.32802 15.4625 9.39392 15.566 9.49063 15.6341C9.58733 15.7021 9.70701 15.7292 9.82359 15.7095Z" fill="#595959"/>
<path d="M5.92131 17.0376C6.27034 16.6885 6.27034 16.1226 5.92131 15.7736C5.57228 15.4246 5.00639 15.4246 4.65736 15.7736C4.30834 16.1226 4.30834 16.6885 4.65736 17.0376C5.00639 17.3866 5.57228 17.3866 5.92131 17.0376Z" fill="#595959"/>
</g>
</g>
<defs>
<clipPath id="clip0_250_581">
<rect width="30" height="30" fill="white" transform="translate(0 0.845154)"/>
</clipPath>
<clipPath id="clip1_250_581">
<rect width="30" height="29.6917" fill="white" transform="translate(0 0.999268)"/>
</clipPath>
</defs>
</svg>
