<svg width="30" height="31" viewBox="0 0 30 31" fill="none" xmlns="http://www.w3.org/2000/svg">
<g clip-path="url(#clip0_250_604)">
<g clip-path="url(#clip1_250_604)">
<path d="M10.782 4.30383C10.6577 4.30384 10.5384 4.35323 10.4505 4.44113C10.3626 4.52904 10.3132 4.64827 10.3132 4.77258V5.24133C10.3132 5.36566 10.3626 5.48489 10.4505 5.5728C10.5384 5.66071 10.6577 5.71009 10.782 5.71009C10.9063 5.71009 11.0255 5.66071 11.1135 5.5728C11.2014 5.48489 11.2508 5.36566 11.2508 5.24133V4.77258C11.2507 4.64826 11.2014 4.52903 11.1134 4.44113C11.0255 4.35322 10.9063 4.30384 10.782 4.30383Z" fill="#595959"/>
<path d="M12.657 4.30383C12.5327 4.30384 12.4134 4.35323 12.3255 4.44113C12.2376 4.52904 12.1882 4.64827 12.1882 4.77258V5.24133C12.1882 5.36566 12.2376 5.48489 12.3255 5.5728C12.4134 5.66071 12.5327 5.71009 12.657 5.71009C12.7813 5.71009 12.9005 5.66071 12.9885 5.5728C13.0764 5.48489 13.1258 5.36566 13.1258 5.24133V4.77258C13.1257 4.64826 13.0764 4.52903 12.9884 4.44113C12.9005 4.35322 12.7813 4.30384 12.657 4.30383Z" fill="#595959"/>
<path d="M14.5321 4.30383C14.4078 4.30384 14.2886 4.35323 14.2007 4.44113C14.1127 4.52904 14.0634 4.64827 14.0634 4.77258V5.24133C14.0634 5.36566 14.1127 5.48489 14.2007 5.5728C14.2886 5.66071 14.4078 5.71009 14.5321 5.71009C14.6564 5.71009 14.7757 5.66071 14.8636 5.5728C14.9515 5.48489 15.0009 5.36566 15.0009 5.24133V4.77258C15.0009 4.64826 14.9515 4.52903 14.8636 4.44113C14.7757 4.35322 14.6564 4.30384 14.5321 4.30383Z" fill="#595959"/>
<path d="M16.4071 4.30383C16.2828 4.30384 16.1636 4.35323 16.0757 4.44113C15.9878 4.52904 15.9384 4.64827 15.9384 4.77258V5.24133C15.9384 5.36566 15.9877 5.48489 16.0757 5.5728C16.1636 5.66071 16.2828 5.71009 16.4071 5.71009C16.5314 5.71009 16.6507 5.66071 16.7386 5.5728C16.8265 5.48489 16.8759 5.36566 16.8759 5.24133V4.77258C16.8759 4.64826 16.8265 4.52903 16.7386 4.44113C16.6507 4.35322 16.5314 4.30384 16.4071 4.30383Z" fill="#595959"/>
<path d="M18.2821 4.30383C18.1578 4.30384 18.0386 4.35323 17.9507 4.44113C17.8628 4.52904 17.8134 4.64827 17.8134 4.77258V5.24133C17.8134 5.36566 17.8627 5.48489 17.9507 5.5728C18.0386 5.66071 18.1578 5.71009 18.2821 5.71009C18.4064 5.71009 18.5257 5.66071 18.6136 5.5728C18.7015 5.48489 18.7509 5.36566 18.7509 5.24133V4.77258C18.7509 4.64826 18.7015 4.52903 18.6136 4.44113C18.5257 4.35322 18.4064 4.30384 18.2821 4.30383Z" fill="#595959"/>
<path d="M20.1572 4.30383C20.0329 4.30384 19.9137 4.35323 19.8258 4.44113C19.7379 4.52904 19.6885 4.64827 19.6885 4.77258V5.24133C19.6885 5.36566 19.7379 5.48489 19.8258 5.57279C19.9137 5.6607 20.0329 5.71009 20.1572 5.71009C20.2816 5.71009 20.4008 5.6607 20.4887 5.57279C20.5766 5.48489 20.626 5.36566 20.626 5.24133V4.77258C20.626 4.64826 20.5766 4.52904 20.4887 4.44113C20.4008 4.35322 20.2815 4.30384 20.1572 4.30383Z" fill="#595959"/>
<path d="M11.0164 18.132C11.0163 19.0127 11.2775 19.8737 11.7668 20.6061C12.2561 21.3384 12.9516 21.9092 13.7653 22.2463C14.5791 22.5833 15.4745 22.6715 16.3383 22.4997C17.2021 22.3279 17.9956 21.9038 18.6184 21.281C19.2412 20.6582 19.6654 19.8647 19.8372 19.0009C20.0091 18.137 19.9209 17.2416 19.5838 16.4279C19.2468 15.6142 18.676 14.9187 17.9437 14.4293C17.2113 13.94 16.3503 13.6788 15.4696 13.6788C14.2889 13.6802 13.157 14.1498 12.3222 14.9846C11.4873 15.8194 11.0177 16.9513 11.0164 18.132ZM18.9853 18.132C18.9853 18.8273 18.7791 19.507 18.3928 20.0852C18.0065 20.6634 17.4574 21.114 16.815 21.3801C16.1726 21.6462 15.4657 21.7158 14.7837 21.5802C14.1018 21.4445 13.4753 21.1097 12.9836 20.618C12.4919 20.1264 12.1571 19.4999 12.0214 18.8179C11.8858 18.136 11.9554 17.4291 12.2215 16.7866C12.4876 16.1442 12.9382 15.5952 13.5163 15.2088C14.0945 14.8225 14.7742 14.6163 15.4696 14.6163C16.4017 14.6174 17.2953 14.9881 17.9544 15.6472C18.6135 16.3062 18.9842 17.1999 18.9853 18.132Z" fill="#595959"/>
<path d="M13.8289 17.4288C14.0877 17.4288 14.2976 17.219 14.2976 16.9601C14.2976 16.7012 14.0877 16.4913 13.8289 16.4913C13.57 16.4913 13.3601 16.7012 13.3601 16.9601C13.3601 17.219 13.57 17.4288 13.8289 17.4288Z" fill="#595959"/>
<path d="M17.1102 17.4288C17.3691 17.4288 17.579 17.219 17.579 16.9601C17.579 16.7012 17.3691 16.4913 17.1102 16.4913C16.8513 16.4913 16.6415 16.7012 16.6415 16.9601C16.6415 17.219 16.8513 17.4288 17.1102 17.4288Z" fill="#595959"/>
<path d="M28.4672 4.02414C28.2288 3.92561 27.9772 3.86298 27.7205 3.83828C27.7077 3.83714 27.6949 3.83622 27.6821 3.83599C27.6607 3.83532 27.6396 3.83508 27.6185 3.83508C26.0033 3.83508 24.9185 5.29946 24.4393 6.68352C24.2798 7.16378 24.1509 7.65365 24.0532 8.15019C23.9088 8.83592 23.7432 10.3058 23.5516 12.0075C23.245 14.7301 22.8636 18.1182 22.4533 19.2056L22.453 19.2059C22.4491 19.217 22.441 19.2262 22.4304 19.2315C21.094 19.8584 19.7862 21.4315 19.388 22.8909C19.2289 23.4363 19.179 24.0078 19.2411 24.5725C19.3033 25.1373 19.4764 25.6842 19.7504 26.182C19.9518 26.5409 20.2231 26.8557 20.5483 27.108C20.8735 27.3602 21.246 27.5447 21.6437 27.6505C21.8796 27.7105 22.1222 27.7408 22.3656 27.7407C23.9584 27.7407 25.505 26.4603 26.0143 24.5931C26.4049 23.16 26.0659 21.1715 25.2257 19.9676L25.2266 19.9273C25.4241 18.7859 26.8203 15.6557 27.9422 13.1403C28.6434 11.5683 29.2489 10.2106 29.4729 9.54524C29.6408 9.06771 29.7785 8.58006 29.8851 8.0852C30.1828 6.60821 29.9665 4.76572 28.4672 4.02414ZM28.9661 7.89979C28.867 8.35613 28.7395 8.80584 28.5843 9.24631C28.3746 9.86932 27.7774 11.2081 27.0859 12.7583C25.8834 15.4547 24.5202 18.511 24.3045 19.7579C24.3038 19.7616 24.2995 19.7868 24.2989 19.7904C24.2553 20.0398 24.3121 20.2964 24.4568 20.5041C25.1702 21.6496 25.4046 23.0295 25.1097 24.3463C24.6572 26.0059 23.2053 27.0805 21.8748 26.7418C21.5972 26.6678 21.3375 26.5382 21.1116 26.3608C20.8856 26.1834 20.6981 25.9619 20.5604 25.7098C20.3489 25.3197 20.2164 24.8917 20.1704 24.4503C20.1244 24.009 20.166 23.5629 20.2926 23.1376C20.6201 21.9367 21.7341 20.5936 22.8284 20.0802C23.0603 19.9719 23.2404 19.777 23.3301 19.5373L23.3304 19.5366C23.7821 18.3396 24.1546 15.0313 24.4833 12.1126C24.6722 10.4344 24.8353 8.98538 24.9706 8.34337C25.0604 7.88535 25.1788 7.43341 25.3252 6.99022C25.6981 5.91333 26.4953 4.77258 27.6204 4.77258C27.6269 4.77258 27.6337 4.77282 27.6403 4.77282C27.7804 4.78683 27.9184 4.81757 28.0512 4.86437C29.0747 5.37065 29.195 6.7643 28.9661 7.89979Z" fill="#595959"/>
<path d="M10.194 20.9909C10.1198 20.5374 9.94903 20.105 9.69322 19.7232C9.4374 19.3414 9.10254 19.019 8.7113 18.7779C8.26891 18.541 7.78029 18.4033 7.27934 18.3742C6.77839 18.3451 6.27711 18.4254 5.81028 18.6094C5.74281 18.6393 5.67354 18.6649 5.60286 18.6861C5.67656 18.2152 5.60238 17.7331 5.39055 17.3061C5.17872 16.8792 4.83967 16.5284 4.42013 16.3023C4.30888 16.2494 4.18122 16.2428 4.06509 16.2838C3.94896 16.3249 3.85383 16.4103 3.80053 16.5213C3.74685 16.6327 3.73911 16.7608 3.779 16.8779C3.81889 16.9949 3.9032 17.0916 4.01374 17.1471C4.10354 17.1921 4.82712 17.5945 4.66046 18.6694C4.60711 18.652 4.55467 18.632 4.50333 18.6094C4.0365 18.4253 3.53517 18.3449 3.03418 18.3741C2.53318 18.4032 2.04454 18.5411 1.6022 18.7781C1.21097 19.0192 0.876126 19.3416 0.620332 19.7233C0.364538 20.1051 0.193769 20.5374 0.119589 20.9909C-0.210003 22.7103 0.154374 24.4903 1.1331 25.9419C1.48501 26.4612 2.01683 27.2465 2.77432 27.5408C3.1193 27.6738 3.48887 27.7308 3.85787 27.708C4.22977 27.6864 4.56624 27.5568 4.92928 27.5012C5.29046 27.478 5.6525 27.5312 5.99168 27.6575C6.62 27.8113 7.28363 27.711 7.8384 27.3783C8.42138 27.0465 8.81187 26.4859 9.18064 25.9416C10.1593 24.4901 10.5236 22.7102 10.194 20.9909ZM8.40812 25.4183C8.2886 25.6052 8.15938 25.7856 8.02101 25.959C7.71365 26.344 7.32627 26.715 6.83846 26.7838C6.32382 26.8565 5.82428 26.5768 5.3052 26.5505C4.61858 26.5157 3.92916 26.9244 3.26882 26.733C2.89209 26.5934 2.56637 26.3432 2.33442 26.0152C1.55095 25.0474 1.06767 23.8716 0.944108 22.6325C0.838791 21.8705 0.970211 21.0945 1.32057 20.4096C1.54822 20.0073 1.89229 19.6834 2.30753 19.4804C2.73129 19.2868 3.20533 19.2316 3.66223 19.3229C4.02598 19.4055 4.35293 19.6039 4.72025 19.6744C5.52442 19.8289 6.30952 19.3156 7.12805 19.2925C7.42608 19.2861 7.72195 19.3444 7.99528 19.4634C8.26861 19.5824 8.5129 19.7592 8.71132 19.9817C9.08981 20.4567 9.31325 21.0366 9.35144 21.6428C9.47171 22.9716 9.13929 24.3022 8.40812 25.4183Z" fill="#595959"/>
<path d="M14.9219 19.0436C14.8533 18.9407 14.7467 18.8692 14.6255 18.8445C14.5043 18.8198 14.3783 18.8441 14.2749 18.9119C14.1715 18.9798 14.0991 19.0857 14.0734 19.2067C14.0478 19.3277 14.071 19.4539 14.138 19.5579C14.2888 19.7706 14.4887 19.9438 14.7208 20.0628C14.9528 20.1817 15.2102 20.243 15.4709 20.2413C15.4879 20.2413 15.505 20.2411 15.5223 20.2406C15.7748 20.2348 16.0224 20.1695 16.245 20.0502C16.4676 19.9309 16.659 19.7608 16.8036 19.5537C16.869 19.4486 16.8901 19.3218 16.8623 19.2012C16.8346 19.0805 16.7602 18.9757 16.6555 18.9097C16.5507 18.8437 16.4241 18.8218 16.3033 18.8488C16.1824 18.8758 16.0772 18.9495 16.0105 19.0539C15.9486 19.1313 15.8701 19.1938 15.7809 19.237C15.6917 19.2802 15.594 19.303 15.4948 19.3036C15.3854 19.3102 15.276 19.2899 15.1761 19.2446C15.0763 19.1993 14.989 19.1303 14.9219 19.0436Z" fill="#595959"/>
<path d="M8.90689 9.92883C8.90704 9.80456 8.95647 9.68541 9.04434 9.59753C9.13222 9.50966 9.25137 9.46023 9.37564 9.46008H21.5634C21.6877 9.46023 21.8068 9.50966 21.8947 9.59753C21.9826 9.68541 22.032 9.80456 22.0321 9.92883V16.6376C22.2521 15.1657 22.4602 13.3203 22.6198 11.9027C22.7228 10.9884 22.8147 10.1726 22.9004 9.495C22.8085 9.21265 22.6298 8.96657 22.3896 8.79192C22.1495 8.61727 21.8603 8.523 21.5634 8.52258V7.58508H22.0321C22.2807 7.58482 22.519 7.48596 22.6948 7.31021C22.8705 7.13445 22.9694 6.89614 22.9697 6.64758V4.06946C22.9691 3.63449 22.7961 3.21748 22.4886 2.90991C22.181 2.60235 21.764 2.42934 21.329 2.42883H9.61002C9.17505 2.42934 8.75804 2.60235 8.45046 2.90991C8.14289 3.21748 7.96987 3.63449 7.96936 4.06946V6.64758C7.96963 6.89615 8.06849 7.13445 8.24425 7.31021C8.42002 7.48597 8.65833 7.58482 8.90689 7.58508H9.37564V8.52258C9.0028 8.52299 8.64535 8.67127 8.38171 8.93491C8.11807 9.19854 7.96978 9.55599 7.96936 9.92883V17.5179C8.29305 17.582 8.60783 17.6849 8.90689 17.8244V9.92883ZM8.90689 4.06946C8.9071 3.88304 8.98124 3.70432 9.11306 3.5725C9.24488 3.44068 9.4236 3.36654 9.61002 3.36633H21.329C21.5154 3.36653 21.6941 3.44068 21.826 3.5725C21.9578 3.70431 22.0319 3.88304 22.0321 4.06946L22.0327 6.64758H8.90689V4.06946ZM10.3132 7.58508H20.6259V8.52258H10.3132L10.3132 7.58508Z" fill="#595959"/>
<path d="M19.0373 26.8038H10.5475C10.302 26.8036 10.0596 26.7477 9.83867 26.6405C9.66149 26.9031 9.46841 27.1547 9.2605 27.3938C9.65127 27.6213 10.0954 27.7412 10.5475 27.7413H19.8495C19.5337 27.4708 19.26 27.1549 19.0373 26.8038Z" fill="#595959"/>
</g>
</g>
<defs>
<clipPath id="clip0_250_604">
<rect width="30" height="30" fill="white" transform="translate(0 0.085083)"/>
</clipPath>
<clipPath id="clip1_250_604">
<rect width="30" height="30" fill="white" transform="translate(0 0.085083)"/>
</clipPath>
</defs>
</svg>
