<svg width="30" height="31" viewBox="0 0 30 31" fill="none" xmlns="http://www.w3.org/2000/svg">
<g clip-path="url(#clip0_250_636)">
<g clip-path="url(#clip1_250_636)">
<g clip-path="url(#clip2_250_636)">
<path d="M10.1613 13.7358V9.2546C10.1613 9.12627 10.1103 9.00319 10.0196 8.91245C9.92882 8.82171 9.80575 8.77073 9.67742 8.77073H9.19355V6.41186C9.19517 5.88332 9.40511 5.37673 9.77782 5.00198C9.89311 4.88847 10.0219 4.78954 10.1613 4.70742V6.35137C10.1612 6.44693 10.1894 6.54037 10.2423 6.61992L11.2101 8.07153L12.0157 7.53504L11.129 6.205V4.42194C11.149 4.42194 11.1677 4.41589 11.1895 4.41589H15C15.1283 4.41589 15.2514 4.36491 15.3421 4.27417C15.4329 4.18342 15.4839 4.06035 15.4839 3.93202V1.02879C15.4839 0.900462 15.4329 0.777388 15.3421 0.686644C15.2514 0.595901 15.1283 0.544922 15 0.544922H4.83871C4.76359 0.54499 4.68949 0.562376 4.62218 0.595728L2.68669 1.56347C2.6063 1.6037 2.53871 1.66552 2.49149 1.74202C2.44427 1.81851 2.41929 1.90664 2.41935 1.99653V4.89976C2.41935 5.00132 2.4513 5.10031 2.51068 5.1827C2.57005 5.26509 2.65385 5.32671 2.7502 5.35883L5.32258 6.21649V8.77073H4.83871C4.71038 8.77073 4.5873 8.82171 4.49656 8.91245C4.40582 9.00319 4.35484 9.12627 4.35484 9.2546V13.7358C3.06172 14.3012 1.96126 15.231 1.1879 16.4115C0.414544 17.5921 0.00176694 18.9723 0 20.3836L0 30.0611C0 30.1894 0.0509791 30.3125 0.141723 30.4032C0.232466 30.4939 0.35554 30.5449 0.483871 30.5449H14.0323C14.1606 30.5449 14.2837 30.4939 14.3744 30.4032C14.4651 30.3125 14.5161 30.1894 14.5161 30.0611V20.3836C14.5144 18.9723 14.1016 17.5921 13.3282 16.4115C12.5549 15.231 11.4544 14.3012 10.1613 13.7358ZM14.5161 3.44815H13.5484V1.51266H14.5161V3.44815ZM5.95948 5.40843L3.3871 4.55077V2.29533L4.95302 1.51266H12.5806V3.44815H11.1895C10.4035 3.44815 9.64966 3.76039 9.09386 4.3162C8.53805 4.872 8.22581 5.62583 8.22581 6.41186V8.77073H6.29032V5.8675C6.29033 5.76594 6.25838 5.66695 6.199 5.58456C6.13962 5.50217 6.05582 5.44055 5.95948 5.40843ZM9.19355 9.73847V10.7062H5.32258V9.73847H9.19355ZM5.32258 11.674H9.19355V13.3953C7.9283 13.0356 6.58783 13.0356 5.32258 13.3953V11.674ZM13.5484 29.5772H0.967742V20.3836C0.967742 18.7153 1.63047 17.1154 2.81013 15.9357C3.9898 14.756 5.58977 14.0933 7.25806 14.0933C8.92636 14.0933 10.5263 14.756 11.706 15.9357C12.8857 17.1154 13.5484 18.7153 13.5484 20.3836V29.5772Z" fill="#595959"/>
<path d="M29.5162 7.80298H13.0646C12.9362 7.80298 12.8132 7.85396 12.7224 7.9447C12.6317 8.03544 12.5807 8.15852 12.5807 8.28685V11.1901C12.5807 11.3184 12.6317 11.4415 12.7224 11.5322C12.8132 11.623 12.9362 11.6739 13.0646 11.6739H13.7335L14.5676 13.3421C14.6078 13.4224 14.6695 13.4899 14.7459 13.5371C14.8222 13.5844 14.9103 13.6094 15 13.6094H18.871V15.061C18.871 15.1894 18.922 15.3124 19.0127 15.4032C19.1035 15.4939 19.2266 15.5449 19.3549 15.5449H19.8388V29.0933C19.8388 29.4783 19.9917 29.8475 20.2639 30.1197C20.5362 30.392 20.9054 30.5449 21.2904 30.5449C21.6754 30.5449 22.0446 30.392 22.3168 30.1197C22.589 29.8475 22.742 29.4783 22.742 29.0933V15.5449H23.2259C23.3542 15.5449 23.4773 15.4939 23.568 15.4032C23.6587 15.3124 23.7097 15.1894 23.7097 15.061V13.6094H27.5807C27.6706 13.6095 27.7587 13.5845 27.8352 13.5373C27.9117 13.4901 27.9735 13.4225 28.0138 13.3421L28.8472 11.6739H29.5162C29.6445 11.6739 29.7676 11.623 29.8583 11.5322C29.9491 11.4415 30 11.3184 30 11.1901V8.28685C30 8.15852 29.9491 8.03544 29.8583 7.9447C29.7676 7.85396 29.6445 7.80298 29.5162 7.80298ZM21.7742 29.0933C21.7742 29.2216 21.7233 29.3447 21.6325 29.4355C21.5418 29.5262 21.4187 29.5772 21.2904 29.5772C21.162 29.5772 21.039 29.5262 20.9482 29.4355C20.8575 29.3447 20.8065 29.2216 20.8065 29.0933V15.5449H21.7742V29.0933ZM22.742 14.5772H19.8388V13.6094H22.742V14.5772ZM27.2819 12.6417H15.2988L14.815 11.6739H27.7658L27.2819 12.6417ZM29.0323 10.7062H13.5484V8.77072H29.0323V10.7062Z" fill="#595959"/>
<path d="M24.6775 3.93202C25.1908 3.93202 25.6831 4.13594 26.0461 4.49891C26.409 4.86188 26.613 5.35418 26.613 5.8675C26.613 5.99583 26.6639 6.11891 26.7547 6.20965C26.8454 6.30039 26.9685 6.35137 27.0968 6.35137C27.2252 6.35137 27.3482 6.30039 27.439 6.20965C27.5297 6.11891 27.5807 5.99583 27.5807 5.8675C27.5807 5.35418 27.7846 4.86188 28.1476 4.49891C28.5106 4.13594 29.0029 3.93202 29.5162 3.93202C29.6445 3.93202 29.7676 3.88104 29.8583 3.7903C29.9491 3.69955 30.0001 3.57648 30.0001 3.44815C30.0001 3.31982 29.9491 3.19674 29.8583 3.106C29.7676 3.01526 29.6445 2.96428 29.5162 2.96428C29.0029 2.96428 28.5106 2.76036 28.1476 2.39739C27.7846 2.03441 27.5807 1.54212 27.5807 1.02879C27.5807 0.900462 27.5297 0.777388 27.439 0.686644C27.3482 0.595901 27.2252 0.544922 27.0968 0.544922C26.9685 0.544922 26.8454 0.595901 26.7547 0.686644C26.6639 0.777388 26.613 0.900462 26.613 1.02879C26.613 1.54212 26.409 2.03441 26.0461 2.39739C25.6831 2.76036 25.1908 2.96428 24.6775 2.96428C24.5491 2.96428 24.4261 3.01526 24.3353 3.106C24.2446 3.19674 24.1936 3.31982 24.1936 3.44815C24.1936 3.57648 24.2446 3.69955 24.3353 3.7903C24.4261 3.88104 24.5491 3.93202 24.6775 3.93202ZM27.0968 2.63162C27.3119 2.9555 27.5895 3.23312 27.9134 3.44815C27.5895 3.66317 27.3119 3.94079 27.0968 4.26468C26.8818 3.94079 26.6042 3.66317 26.2803 3.44815C26.6042 3.23312 26.8818 2.9555 27.0968 2.63162Z" fill="#595959"/>
<path d="M16.4517 1.02881H17.4194V1.99655H16.4517V1.02881Z" fill="#595959"/>
<path d="M18.3871 1.02881H19.3548V1.99655H18.3871V1.02881Z" fill="#595959"/>
<path d="M16.4517 2.96423H17.4194V3.93198H16.4517V2.96423Z" fill="#595959"/>
<path d="M18.3871 2.96423H19.3548V3.93198H18.3871V2.96423Z" fill="#595959"/>
</g>
</g>
</g>
<defs>
<clipPath id="clip0_250_636">
<rect width="30" height="30" fill="white" transform="translate(0 0.544922)"/>
</clipPath>
<clipPath id="clip1_250_636">
<rect width="30" height="30" fill="white" transform="translate(0 0.544922)"/>
</clipPath>
<clipPath id="clip2_250_636">
<rect width="30" height="30" fill="white" transform="translate(0 0.544922)"/>
</clipPath>
</defs>
</svg>
