<svg width="30" height="31" viewBox="0 0 30 31" fill="none" xmlns="http://www.w3.org/2000/svg">
<g clip-path="url(#clip0_250_666)">
<g clip-path="url(#clip1_250_666)">
<g clip-path="url(#clip2_250_666)">
<path d="M13.5601 17.0548H16.4401" stroke="#595959" stroke-width="1.25001" stroke-miterlimit="20.8333" stroke-linecap="round" stroke-linejoin="round"/>
<path d="M0.630005 17.0548H5.49" stroke="#595959" stroke-width="1.25001" stroke-miterlimit="20.8333" stroke-linecap="round" stroke-linejoin="round"/>
<path d="M24.51 17.0548H29.37" stroke="#595959" stroke-width="1.25001" stroke-miterlimit="20.8333" stroke-linecap="round" stroke-linejoin="round"/>
<path d="M2.06995 17.0548V29.0848" stroke="#595959" stroke-width="1.25001" stroke-miterlimit="20.8333" stroke-linecap="round" stroke-linejoin="round"/>
<path d="M27.9299 17.0548V29.0848" stroke="#595959" stroke-width="1.25001" stroke-miterlimit="20.8333" stroke-linecap="round" stroke-linejoin="round"/>
<path d="M7.29003 22.3048C7.29003 22.3048 5.13003 16.7248 4.83003 14.7448C4.47003 12.4948 6.51003 10.5748 8.55003 10.5748H10.26C12.3 10.5748 14.34 12.4948 13.98 14.7448C13.68 16.7248 11.52 22.3048 11.52 22.3048" stroke="#595959" stroke-width="1.25001" stroke-miterlimit="20.8333" stroke-linecap="round" stroke-linejoin="round"/>
<path d="M18.51 22.3048C18.51 22.3048 16.35 16.7248 16.05 14.7448C15.69 12.4948 17.73 10.5748 19.77 10.5748H21.48C23.52 10.5748 25.56 12.4948 25.2 14.7448C24.9 16.7248 22.74 22.3048 22.74 22.3048" stroke="#595959" stroke-width="1.25001" stroke-miterlimit="20.8333" stroke-linecap="round" stroke-linejoin="round"/>
<path d="M5.69995 29.5048V22.3048H13.11V29.5048" stroke="#595959" stroke-width="1.25001" stroke-miterlimit="20.8333" stroke-linecap="round" stroke-linejoin="round"/>
<path d="M16.89 29.5048V22.3048H24.3V29.5048" stroke="#595959" stroke-width="1.25001" stroke-miterlimit="20.8333" stroke-linecap="round" stroke-linejoin="round"/>
<path d="M15 8.59486C17.2202 8.59486 19.02 6.83534 19.02 4.66486C19.02 2.49438 17.2202 0.734863 15 0.734863C12.7798 0.734863 10.98 2.49438 10.98 4.66486C10.98 6.83534 12.7798 8.59486 15 8.59486Z" stroke="#595959" stroke-width="1.25001" stroke-miterlimit="20.8333" stroke-linecap="round" stroke-linejoin="round"/>
<path d="M15.0001 2.1449V4.8449L13.6801 5.8949" stroke="#595959" stroke-width="1.25001" stroke-miterlimit="20.8333" stroke-linecap="round" stroke-linejoin="round"/>
</g>
</g>
</g>
<defs>
<clipPath id="clip0_250_666">
<rect width="30" height="30" fill="white" transform="translate(0 0.134888)"/>
</clipPath>
<clipPath id="clip1_250_666">
<rect width="30" height="30" fill="white" transform="translate(0 0.134888)"/>
</clipPath>
<clipPath id="clip2_250_666">
<rect width="30" height="30" fill="white" transform="translate(0 0.134888)"/>
</clipPath>
</defs>
</svg>
