<svg width="30" height="31" viewBox="0 0 30 31" fill="none" xmlns="http://www.w3.org/2000/svg">
<g clip-path="url(#clip0_250_809)">
<g clip-path="url(#clip1_250_809)">
<g clip-path="url(#clip2_250_809)">
<path d="M22.5146 10.3875C22.207 9.53027 21.396 8.96953 20.254 8.80547C20.4488 8.48469 20.5718 8.12558 20.6147 7.75278C20.6576 7.37998 20.6193 7.00232 20.5025 6.6457C20.0337 5.18086 18.4693 5.16211 17.6197 5.15566C17.9783 4.53691 18.3304 3.55898 18.0814 2.58516C17.9097 1.91601 17.356 1.03887 15.6925 0.664452C14.6976 0.440624 13.6494 0.474022 13.1126 0.513866C12.8501 0.533788 12.638 0.716015 12.6081 0.948046C12.5783 1.18008 12.7341 1.39746 12.9872 1.4707C13.3728 1.58262 13.8603 1.82226 13.9892 2.31738C14.1462 2.92148 13.9224 3.77402 10.7718 5.01269C9.70482 5.43223 9.05209 6.02461 8.83178 6.77344C8.57221 7.65234 8.98236 8.52187 9.38725 9.1084C9.01188 9.20045 8.65311 9.35028 8.32377 9.55254C7.64584 9.98027 7.2849 10.5791 7.28021 11.2846C7.27494 12.1635 7.60072 12.7494 7.98686 13.1332C7.92428 13.2399 7.89093 13.3611 7.89018 13.4848V14.0543C7.89018 15.0961 8.68002 15.9756 9.75053 16.2381L10.449 18.5725L12.7341 26.2072L13.7636 29.6484C13.9124 30.1465 14.3994 30.4811 14.9747 30.4811C15.5501 30.4811 16.0365 30.1465 16.1853 29.6479L20.196 16.241C21.2671 15.9785 22.057 15.099 22.057 14.0572V13.4877C22.0565 13.3676 22.0252 13.2495 21.9662 13.1449C22.5257 12.6363 23.0097 11.7697 22.5146 10.3875ZM15.2378 29.4246C15.2171 29.4777 15.1809 29.5233 15.1338 29.5555C15.0868 29.5876 15.0311 29.6048 14.9742 29.6048C14.9172 29.6048 14.8615 29.5876 14.8145 29.5555C14.7674 29.5233 14.7312 29.4777 14.7105 29.4246L13.9447 26.8641C14.5583 27.0957 15.18 27.3131 15.8097 27.5162L15.2378 29.4246ZM16.8896 23.9021C16.7443 23.8541 16.5966 23.8055 16.4566 23.7562C16.204 23.6689 15.9204 23.782 15.8232 24.0088C15.7259 24.2355 15.8519 24.4893 16.105 24.5766C16.2796 24.6367 16.4564 24.6953 16.6353 24.7523L16.064 26.6619C15.2361 26.393 14.4169 26.0965 13.6201 25.7783L12.8736 23.2869C13.2251 23.448 13.5837 23.6039 13.9412 23.7557C14.0066 23.7832 14.077 23.7973 14.148 23.7973C14.2382 23.7991 14.3272 23.7765 14.4056 23.7317C14.4839 23.6869 14.5486 23.6217 14.5927 23.543C14.7099 23.3227 14.6003 23.0613 14.3548 22.957C13.7378 22.6992 13.1244 22.4209 12.5273 22.1291L11.7333 19.4695C13.5532 20.5022 15.4693 21.3553 17.4544 22.0166L16.8896 23.9021ZM17.7099 21.1646C15.4837 20.4176 13.3499 19.419 11.3501 18.1881L10.79 16.3207H12.0404C13.9857 17.5652 16.075 18.5686 18.2624 19.309L17.7099 21.1646ZM18.5197 18.4576C16.88 17.8938 15.2964 17.1784 13.7894 16.3207H19.1572L18.5197 18.4576ZM21.0292 12.7154H12.7675C12.4968 12.7154 12.2771 12.9123 12.2771 13.1549C12.2771 13.3975 12.4968 13.5943 12.7675 13.5943H21.0761V14.059C21.0761 14.7621 20.4902 15.3404 19.7378 15.4307C19.7033 15.4348 19.6693 15.4377 19.6359 15.44H19.6324C19.5984 15.44 19.565 15.443 19.5333 15.443H10.4144C10.3822 15.443 10.3494 15.443 10.3154 15.44H10.3119C10.2785 15.44 10.2445 15.4348 10.2099 15.4307C9.4558 15.3404 8.87162 14.7598 8.87162 14.059V13.5926H10.466C10.7367 13.5926 10.9564 13.3957 10.9564 13.1531C10.9564 12.9105 10.7367 12.7137 10.466 12.7137H8.91439C8.4767 12.4002 8.25697 11.9215 8.26107 11.2893C8.26693 10.2867 9.53139 9.9416 9.97377 9.89707C9.99428 9.89707 10.0142 9.89121 10.0324 9.88769C10.2202 10.0989 10.4201 10.2991 10.6312 10.4871C10.7299 10.567 10.8539 10.6089 10.9809 10.6053C11.1078 10.6016 11.2292 10.5526 11.3232 10.4672C11.3665 10.4271 11.4007 10.3782 11.4234 10.3238C11.4461 10.2693 11.4568 10.2106 11.4547 10.1517C11.4526 10.0927 11.4379 10.0349 11.4115 9.98216C11.385 9.92943 11.3475 9.88301 11.3015 9.84609C11.0349 9.62168 10.5369 9.04746 10.3605 8.83711C10.0593 8.44805 9.5765 7.68516 9.77865 6.99785C9.92045 6.52031 10.3857 6.12422 11.1656 5.81719C13.1677 5.02969 15.4072 3.89766 14.9443 2.11699C14.8741 1.84685 14.7414 1.59697 14.557 1.3875C15.6204 1.46719 16.8673 1.78066 17.124 2.78144C17.3314 3.59297 16.9587 4.42207 16.6828 4.85742C16.4935 5.13867 15.8753 5.91211 15.2437 6.17226C14.9982 6.2748 14.8921 6.53613 15.0058 6.7582C15.0499 6.83694 15.1146 6.9022 15.1929 6.947C15.2713 6.9918 15.3603 7.01444 15.4505 7.0125C15.5213 7.01272 15.5915 6.99877 15.6568 6.97148C16.1718 6.75703 16.6271 6.35918 16.9593 6.00586C16.9728 6.00586 16.9863 6.01113 16.9997 6.0123C17.1982 6.03023 17.3975 6.03805 17.5968 6.03574C18.5871 6.04336 19.3078 6.10898 19.5585 6.89004C19.6413 7.146 19.6664 7.41707 19.6322 7.68387C19.5979 7.95068 19.5052 8.20662 19.3605 8.4334C18.9469 8.92546 18.4793 9.36946 17.9665 9.75703C17.9179 9.79046 17.877 9.834 17.8467 9.88467C17.8164 9.93535 17.7974 9.99197 17.791 10.0507C17.7846 10.1093 17.791 10.1687 17.8097 10.2247C17.8283 10.2807 17.8588 10.3321 17.8992 10.3752C17.9478 10.4268 18.0065 10.4678 18.0718 10.4956C18.1371 10.5233 18.2074 10.5372 18.2783 10.5363C18.3897 10.5368 18.4984 10.5019 18.5888 10.4367C18.9233 10.1878 19.2395 9.91519 19.5351 9.62109C19.5781 9.63021 19.6218 9.63551 19.6658 9.63691C20.38 9.66094 21.2917 9.85723 21.58 10.6594C21.9117 11.5816 21.7312 12.2555 21.0275 12.7137L21.0292 12.7154Z" fill="#595959"/>
</g>
</g>
</g>
<defs>
<clipPath id="clip0_250_809">
<rect width="30" height="30" fill="white" transform="translate(0 0.485107)"/>
</clipPath>
<clipPath id="clip1_250_809">
<rect width="30" height="30" fill="white" transform="translate(0 0.485107)"/>
</clipPath>
<clipPath id="clip2_250_809">
<rect width="15.4395" height="30" fill="white" transform="translate(7.28027 0.485107)"/>
</clipPath>
</defs>
</svg>
