<svg width="30" height="31" viewBox="0 0 30 31" fill="none" xmlns="http://www.w3.org/2000/svg">
<g clip-path="url(#clip0_250_343)">
<g clip-path="url(#clip1_250_343)">
<g clip-path="url(#clip2_250_343)">
<path d="M28.125 26.6863H28.0388C28.0913 26.5391 28.125 26.3825 28.125 26.2175V20.5925C28.125 19.8172 27.4941 19.1863 26.7188 19.1863H23.82C23.8725 19.0391 23.9062 18.8825 23.9062 18.7175V13.0925C23.9062 12.3172 23.2753 11.6863 22.5 11.6863H18.7083L15.7734 6.06128H16.4062V1.37378H13.5938V6.06128H14.2116L11.1548 11.6863H7.5C6.72469 11.6863 6.09375 12.3172 6.09375 13.0925V18.7175C6.09375 18.8825 6.1275 19.0391 6.18 19.1863H3.28125C2.50594 19.1863 1.875 19.8172 1.875 20.5925V26.2175C1.875 26.3825 1.90875 26.5391 1.96125 26.6863H1.875C1.09969 26.6863 0.46875 27.3172 0.46875 28.0925V29.03C0.46875 29.8053 1.09969 30.4363 1.875 30.4363H28.125C28.9003 30.4363 29.5312 29.8053 29.5312 29.03V28.0925C29.5312 27.3172 28.9003 26.6863 28.125 26.6863ZM27.1875 20.5925V26.2175C27.1875 26.4763 26.9775 26.6863 26.7188 26.6863H26.5341L24.5775 22.9363H25.3125V20.1238H26.7188C26.9775 20.1238 27.1875 20.3338 27.1875 20.5925ZM11.25 26.2175V20.5925C11.25 20.3338 11.46 20.1238 11.7188 20.1238H13.125V22.9363H16.875V20.1238H18.2812C18.54 20.1238 18.75 20.3338 18.75 20.5925V26.2175C18.75 26.4763 18.54 26.6863 18.2812 26.6863H11.7188C11.46 26.6863 11.25 26.4763 11.25 26.2175ZM18.2812 12.8952L19.118 14.4988H18.2812V12.8952ZM19.6073 15.4363L21.5639 19.1863H20.1562H18.2812H15.9375C15.6788 19.1863 15.4688 18.9763 15.4688 18.7175V13.0925C15.4688 12.8342 15.6788 12.6238 15.9375 12.6238H17.3438V15.4363H19.6073ZM24.0886 21.9988L23.1103 20.1238H24.375V21.9988H24.0886ZM15.9375 20.1238V21.9988H14.0625V20.1238H15.9375ZM19.6875 26.2175V20.5925C19.6875 20.3338 19.8975 20.1238 20.1562 20.1238H22.0528L25.4766 26.6863H20.1562C19.8975 26.6863 19.6875 26.4763 19.6875 26.2175ZM22.5 12.6238C22.7588 12.6238 22.9688 12.8342 22.9688 13.0925V18.7175C22.9688 18.9374 22.8141 19.1136 22.6097 19.1642L19.1972 12.6238H22.5ZM14.5312 2.31128H15.4688V5.12378H14.5312V2.31128ZM14.9916 6.59003L17.6508 11.6863H15.9375C15.5761 11.6863 15.2494 11.8274 15 12.0519C14.7506 11.8269 14.4239 11.6863 14.0625 11.6863H12.2217L14.9916 6.59003ZM9.84375 12.6238H11.7188V14.4988H9.84375V12.6238ZM7.03125 18.7175V13.0925C7.03125 12.8342 7.24125 12.6238 7.5 12.6238H8.90625V15.4363H12.6562V12.6238H14.0625C14.3212 12.6238 14.5312 12.8342 14.5312 13.0925V18.7175C14.5312 18.9763 14.3212 19.1863 14.0625 19.1863H11.7188H9.84375H7.5C7.24125 19.1863 7.03125 18.9763 7.03125 18.7175ZM5.625 20.1238H7.5V21.9988H5.625V20.1238ZM2.8125 26.2175V20.5925C2.8125 20.3338 3.0225 20.1238 3.28125 20.1238H4.6875V22.9363H8.4375V20.1238H9.84375C10.1025 20.1238 10.3125 20.3338 10.3125 20.5925V26.2175C10.3125 26.4763 10.1025 26.6863 9.84375 26.6863H3.28125C3.0225 26.6863 2.8125 26.4763 2.8125 26.2175ZM1.40625 29.03V28.0925C1.40625 27.8338 1.61625 27.6238 1.875 27.6238H3.28125H9.84375H11.7188H18.2812H20.1562H25.7812V29.4988H1.875C1.61625 29.4988 1.40625 29.2888 1.40625 29.03ZM28.5938 29.03C28.5938 29.2888 28.3838 29.4988 28.125 29.4988H26.7188V27.6238H28.125C28.3838 27.6238 28.5938 27.8338 28.5938 28.0925V29.03Z" fill="#595959"/>
</g>
</g>
</g>
<defs>
<clipPath id="clip0_250_343">
<rect width="30" height="30" fill="white" transform="translate(0 0.905029)"/>
</clipPath>
<clipPath id="clip1_250_343">
<rect width="30" height="30" fill="white" transform="translate(0 0.905029)"/>
</clipPath>
<clipPath id="clip2_250_343">
<rect width="30" height="30" fill="white" transform="translate(0 0.905029)"/>
</clipPath>
</defs>
</svg>
