<svg width="30" height="31" viewBox="0 0 30 31" fill="none" xmlns="http://www.w3.org/2000/svg">
<g clip-path="url(#clip0_250_528)">
<path d="M19.5065 7.57229C19.4805 7.53057 19.4464 7.4944 19.4064 7.46585C19.3663 7.43731 19.321 7.41694 19.2731 7.40593C19.2251 7.39491 19.1755 7.39346 19.127 7.40165C19.0785 7.40984 19.032 7.42752 18.9904 7.45367C18.4405 7.80642 17.9745 8.27535 17.6252 8.82749C17.276 9.37963 17.0519 10.0016 16.9688 10.6496C16.9625 10.6984 16.9658 10.748 16.9786 10.7955C16.9915 10.843 17.0135 10.8876 17.0436 10.9265C17.0737 10.9655 17.1111 10.9982 17.1538 11.0226C17.1965 11.0471 17.2436 11.0629 17.2925 11.0691C17.3086 11.0702 17.3247 11.0702 17.3408 11.0691C17.4318 11.0692 17.5197 11.036 17.588 10.9759C17.6563 10.9158 17.7004 10.8329 17.712 10.7426C17.7804 10.2043 17.9658 9.68749 18.2554 9.22857C18.5449 8.76964 18.9315 8.37974 19.3879 8.08627C19.4714 8.0335 19.5307 7.94991 19.5529 7.85367C19.5752 7.75743 19.5585 7.65631 19.5065 7.57229Z" fill="#595959"/>
<path d="M27.8884 14.2233C27.3496 13.53 27.0831 12.6294 27.1446 11.6871C27.1533 11.5406 27.1585 11.3942 27.1585 11.2478C27.1585 8.79134 26.0046 6.69952 24.1346 5.50901C24.7577 5.46655 25.4013 5.31426 25.9702 4.96208C27.8496 3.79793 28.2062 1.08377 28.2194 0.968818C28.2296 0.884371 28.2107 0.798973 28.1658 0.726701C28.121 0.65443 28.0528 0.599599 27.9726 0.571248C27.8636 0.532443 25.2753 -0.360074 23.3973 0.801882C22.9519 1.08553 22.5676 1.45517 22.2668 1.88916L22.2837 1.72954C22.2844 1.71662 22.2844 1.70366 22.2837 1.69074C22.2837 1.29926 22.1282 0.923823 21.8513 0.647008C21.5745 0.370194 21.1991 0.214681 20.8076 0.214681C20.4161 0.214681 20.0407 0.370194 19.7639 0.647008C19.4871 0.923823 19.3316 1.29926 19.3316 1.69074C19.3305 1.70634 19.3305 1.722 19.3316 1.7376L19.7042 4.61137C17.0238 5.12828 14.9012 7.46684 14.53 10.3311C14.4791 10.7238 14.461 11.12 14.4758 11.5157C14.5153 12.5408 14.1785 13.6046 13.5291 14.5067C13.2639 14.877 13.0247 15.2653 12.813 15.6686C11.4124 15.3758 10 15.7184 8.79927 16.6278V14.8303C9.52265 14.8947 11.2645 14.924 12.3078 13.8785C13.6206 12.5657 13.2355 10.1444 13.2187 10.0434C13.2058 9.96625 13.1692 9.89509 13.1139 9.83982C13.0587 9.78455 12.9875 9.74794 12.9104 9.73511C12.8079 9.71827 10.3881 9.33315 9.0753 10.6459C8.39364 11.3276 8.1696 12.2933 8.09272 13.18C7.89037 12.6851 7.63947 12.2115 7.34371 11.7662C7.28817 11.6836 7.20213 11.6265 7.1045 11.6075C7.00687 11.5884 6.90566 11.6088 6.82314 11.6644C6.74061 11.7199 6.68352 11.806 6.66444 11.9036C6.64535 12.0012 6.66583 12.1024 6.72136 12.185C7.81157 13.806 8.03488 15.8202 8.04952 15.9593V16.6263C6.73161 15.6291 5.15964 15.3128 3.62794 15.7675C0.576248 16.6746 -0.736536 20.0565 0.43201 23.9942C1.6767 28.1763 5.00735 30.8919 7.86282 30.0441C8.05429 29.9857 8.24084 29.9122 8.42073 29.8244C8.60097 29.912 8.78775 29.9855 8.97938 30.0441C9.32809 30.1472 9.68984 30.1995 10.0535 30.1993C11.6503 30.1993 13.2948 29.2189 14.5732 27.5979C16.2703 29.2724 18.513 30.2052 20.8288 30.2052C21.0199 30.2052 21.2118 30.1993 21.4036 30.1861C25.8698 29.8881 29.5461 26.0918 29.9517 21.3561C30.1743 18.754 29.4421 16.2207 27.8884 14.2233ZM9.60026 11.1768C10.4144 10.3626 11.8934 10.3919 12.5055 10.4446C12.559 11.0567 12.5897 12.5327 11.7733 13.3498C10.9262 14.197 9.35718 14.1318 8.79853 14.0762C8.81245 13.1419 8.88786 11.8914 9.60026 11.1768ZM23.7905 1.43887C25.0249 0.675217 26.7331 1.00689 27.4191 1.18847C27.2727 1.8833 26.8092 3.55997 25.5748 4.32363C24.3557 5.0785 22.6131 4.6963 21.889 4.48544C22.2192 3.44722 22.7266 2.09563 23.7919 1.43741L23.7905 1.43887ZM20.8113 0.967353C21.0008 0.96767 21.1827 1.0419 21.3183 1.17425C21.454 1.30661 21.5326 1.48665 21.5376 1.6761L21.3092 3.85357C21.2315 4.07981 21.1627 4.29288 21.099 4.49935C20.8796 4.48565 20.6595 4.48565 20.4401 4.49935L20.0872 1.66951C20.0931 1.48096 20.1721 1.30211 20.3075 1.17079C20.4429 1.03947 20.6241 0.965987 20.8127 0.965889L20.8113 0.967353ZM9.19318 29.3251C8.98756 29.2637 8.78901 29.1808 8.60085 29.0776C8.54577 29.0474 8.48394 29.0315 8.4211 29.0315C8.35826 29.0315 8.29643 29.0474 8.24135 29.0776C8.05325 29.1809 7.85469 29.2639 7.64902 29.3251C5.19112 30.0573 2.27562 27.5679 1.151 23.7789C0.0915498 20.2088 1.1715 17.2779 3.83807 16.4865C5.35293 16.0376 6.9271 16.4865 8.15788 17.7128C8.22831 17.7832 8.32377 17.8227 8.4233 17.8227C8.52283 17.8227 8.61828 17.7832 8.68871 17.7128C9.91656 16.4835 11.4915 16.0376 13.0085 16.4865C15.6751 17.2779 16.755 20.2088 15.6956 23.7789C14.5666 27.5671 11.6503 30.0543 9.19318 29.3251ZM29.2042 21.2917C28.83 25.662 25.4554 29.164 21.3545 29.4378C18.9801 29.5953 16.7338 28.724 15.0176 26.9836C15.6284 26.0616 16.0974 25.0532 16.4087 23.992C17.5341 20.2015 16.3545 16.9324 13.5459 15.8861C13.7219 15.5604 13.9175 15.2457 14.1317 14.9438C14.8778 13.907 15.2643 12.6799 15.2189 11.4865C15.2055 11.1323 15.2216 10.7777 15.2673 10.4263C15.6004 7.85489 17.5084 5.76015 19.9378 5.32451C20.5207 5.20303 21.1224 5.20303 21.7053 5.32451C24.5168 5.88901 26.4058 8.2671 26.4058 11.2426C26.4058 11.3752 26.4014 11.507 26.3933 11.6373C26.3129 12.7273 26.6329 13.8092 27.2932 14.6802C28.7334 16.5326 29.4114 18.8755 29.2042 21.2917Z" fill="#595959"/>
<path d="M4.85796 18.2898C4.84416 18.2425 4.82119 18.1984 4.79036 18.1601C4.75953 18.1217 4.72144 18.0897 4.67827 18.0661C4.6351 18.0424 4.58768 18.0275 4.53874 18.0222C4.4898 18.0168 4.44029 18.0212 4.39303 18.035C4.04848 18.1325 3.72723 18.2988 3.44864 18.5238C3.17005 18.7488 2.93988 19.0278 2.772 19.3441C2.31732 20.1824 2.25948 21.288 2.61532 22.4566C2.63845 22.5338 2.68584 22.6014 2.75047 22.6496C2.81509 22.6977 2.8935 22.7237 2.97408 22.7238C3.0108 22.7238 3.04732 22.7184 3.08244 22.7077C3.12963 22.6935 3.17355 22.6701 3.21168 22.6388C3.24981 22.6076 3.28141 22.5692 3.30467 22.5257C3.32793 22.4822 3.34239 22.4346 3.34722 22.3856C3.35206 22.3365 3.34717 22.287 3.33285 22.2398C3.03998 21.2639 3.07293 20.3618 3.43096 19.7014C3.55228 19.4728 3.71861 19.271 3.91993 19.1083C4.12126 18.9456 4.35341 18.8253 4.60243 18.7547C4.6979 18.7268 4.77841 18.6622 4.82632 18.5751C4.87422 18.4879 4.8856 18.3853 4.85796 18.2898Z" fill="#595959"/>
</g>
<defs>
<clipPath id="clip0_250_528">
<rect width="29.9824" height="30" fill="white" transform="translate(0.00878906 0.205139)"/>
</clipPath>
</defs>
</svg>
