<svg width="30" height="31" viewBox="0 0 30 31" fill="none" xmlns="http://www.w3.org/2000/svg">
<g clip-path="url(#clip0_250_537)">
<g clip-path="url(#clip1_250_537)">
<path d="M17.4194 3.99536H16.4514V4.96509H17.4194C18.7023 4.96648 19.9322 5.47672 20.8393 6.38384C21.7464 7.29097 22.2567 8.52089 22.2581 9.80376H23.226C23.2246 8.26401 22.6125 6.7877 21.5239 5.69876C20.4353 4.60983 18.9591 3.99722 17.4194 3.99536Z" fill="#595959"/>
<path d="M30 5.93247V5.44907H28.5486C27.799 5.45041 27.0625 5.64529 26.4104 6.01484C25.7582 6.38439 25.2125 6.91609 24.8262 7.55845C23.86 4.37974 20.9062 2.06177 17.4193 2.06177H4.83867C2.12578 2.06177 0 5.46021 0 9.80376C0 14.1473 2.12578 17.5458 4.83867 17.5458H7.86211C7.8416 17.5657 7.82051 17.5833 7.8 17.6043C4.81641 20.5874 3.9416 24.386 5.8084 26.2528L7.74199 28.1864C8.40527 28.8497 9.31055 29.1667 10.3383 29.1667C12.2033 29.1667 14.4674 28.1196 16.3916 26.1954C16.582 26.0102 16.7578 25.8157 16.9336 25.6165C17.1064 25.8122 17.2852 26.0061 17.4773 26.1954C19.4016 28.1202 21.665 29.1672 23.5312 29.1672C24.5578 29.1672 25.4648 28.8497 26.127 28.187L28.0605 26.2534C29.9273 24.3866 29.0525 20.5879 26.0684 17.6043C25.0518 16.5877 23.9414 15.8231 22.8457 15.3192C23.7699 14.4112 24.4492 13.284 24.8203 12.0426C25.2062 12.6867 25.7521 13.22 26.4052 13.5906C27.0582 13.9612 27.796 14.1564 28.5469 14.1573H30V13.6733C29.999 12.8727 29.7773 12.0879 29.3594 11.4051C28.9415 10.7222 28.3435 10.1678 27.6311 9.80259C28.3434 9.4374 28.9413 8.88302 29.3592 8.2003C29.7771 7.51759 29.9988 6.73293 30 5.93247ZM0.967969 9.80376C0.967969 6.13169 2.74043 3.02974 4.83867 3.02974C6.93691 3.02974 8.70996 6.13169 8.70996 9.80376C8.70996 13.4758 6.93691 16.5778 4.83867 16.5778C2.74043 16.5778 0.967969 13.4758 0.967969 9.80376ZM8.48438 18.2881C9.75293 17.019 11.2342 16.1243 12.6562 15.7727C13.9904 15.4399 15.0949 15.6268 15.7676 16.3C15.9295 16.4698 16.0627 16.6647 16.1619 16.8772L15.4881 17.551C14.3982 18.6409 14.2494 20.3899 14.9021 22.2502C14.5624 22.7227 14.1858 23.1677 13.776 23.5809C11.2623 26.094 7.92832 27.0057 6.49512 25.5731C5.06191 24.1405 5.97363 20.8053 8.4873 18.2922L8.48438 18.2881ZM15.7096 25.5133C13.1959 28.0258 9.86191 28.9381 8.42871 27.5055L8.14453 27.2231C8.23008 27.2272 8.31504 27.2331 8.40234 27.2331C10.268 27.2331 12.532 26.186 14.4563 24.2618C14.7667 23.9484 15.0597 23.6182 15.334 23.2727C15.6149 23.8254 15.9437 24.3524 16.3166 24.8477C16.1221 25.075 15.9217 25.2989 15.7096 25.5116V25.5133ZM25.4432 27.5055C24.7693 28.1782 23.6654 28.3651 22.3318 28.0329C20.9115 27.6778 19.4309 26.7831 18.1623 25.5133C15.6492 23.0002 14.7375 19.6657 16.1701 18.2325L16.4531 17.9495C16.3494 19.862 17.3982 22.2467 19.4127 24.2618C21.3369 26.186 23.601 27.2331 25.4666 27.2331C25.5533 27.2331 25.6389 27.2278 25.7238 27.2231L25.4432 27.5055ZM27.3768 25.5719C26.7029 26.2452 25.5996 26.4315 24.266 26.0993C22.8451 25.7442 21.3645 24.8495 20.0959 23.5797C17.5828 21.0672 16.6711 17.7327 18.1037 16.2989C19.5363 14.8651 22.8715 15.7774 25.3846 18.2911C27.8977 20.8047 28.8117 24.1352 27.3785 25.5684L27.3768 25.5719ZM21.8344 14.929C20.0818 14.3887 18.4553 14.5774 17.4211 15.6122L16.9354 16.0985L16.4496 15.6127C14.8178 13.9809 11.7105 14.4409 8.96191 16.5778H7.21172C8.69297 15.2688 9.67734 12.7551 9.67734 9.80376C9.67734 6.85239 8.69297 4.33813 7.21172 3.02974H17.4193C18.8019 3.02816 20.1518 3.45021 21.2873 4.23906C22.4228 5.02792 23.2894 6.14571 23.7703 7.44197C24.2513 8.73823 24.3236 10.1507 23.9774 11.4893C23.6313 12.8279 22.8834 14.0283 21.8344 14.929ZM28.998 13.1911H28.5486C27.7343 13.1903 26.9473 12.8965 26.3317 12.3635C25.716 11.8304 25.3126 11.0936 25.1953 10.2877H25.6447C26.4591 10.2887 27.2459 10.5825 27.8616 11.1155C28.4772 11.6485 28.8806 12.3852 28.998 13.1911ZM25.6453 9.31978H25.1953C25.3126 8.51399 25.7159 7.7773 26.3314 7.24425C26.947 6.71121 27.7338 6.41738 28.548 6.41646H28.9975C28.8801 7.22209 28.4768 7.95863 27.8614 8.49164C27.246 9.02466 26.4595 9.31858 25.6453 9.31978Z" fill="#595959"/>
<path d="M14.516 3.99536H15.484V4.96509H14.516V3.99536Z" fill="#595959"/>
<path d="M12.5807 3.99536H13.5487V4.96509H12.5807V3.99536Z" fill="#595959"/>
<path d="M4.35469 12.7071C3.9699 12.7075 3.60101 12.8606 3.32893 13.1327C3.05685 13.4048 2.90379 13.7737 2.90332 14.1584H3.8707C3.8707 14.0627 3.89909 13.9692 3.95227 13.8896C4.00545 13.81 4.08104 13.7479 4.16947 13.7113C4.25791 13.6747 4.35522 13.6651 4.44911 13.6838C4.54299 13.7024 4.62923 13.7485 4.69692 13.8162C4.7646 13.8839 4.8107 13.9701 4.82937 14.064C4.84805 14.1579 4.83846 14.2552 4.80183 14.3437C4.7652 14.4321 4.70317 14.5077 4.62357 14.5609C4.54398 14.614 4.45041 14.6424 4.35469 14.6424V15.6104C4.54778 15.6143 4.7397 15.5796 4.91922 15.5084C5.09874 15.4372 5.26225 15.3309 5.40018 15.1957C5.5381 15.0605 5.64767 14.8992 5.72248 14.7211C5.79728 14.5431 5.83581 14.3519 5.83581 14.1587C5.83581 13.9656 5.79728 13.7744 5.72248 13.5964C5.64767 13.4183 5.5381 13.257 5.40018 13.1218C5.26225 12.9866 5.09874 12.8803 4.91922 12.8091C4.7397 12.7379 4.54778 12.7032 4.35469 12.7071Z" fill="#595959"/>
<path d="M3.3873 8.35183C3.77223 8.35183 4.14139 8.19892 4.41358 7.92674C4.68576 7.65455 4.83867 7.28539 4.83867 6.90046C4.83867 6.51554 4.68576 6.14638 4.41358 5.87419C4.14139 5.60201 3.77223 5.4491 3.3873 5.4491V6.41648C3.48303 6.41648 3.5766 6.44486 3.65619 6.49805C3.73578 6.55123 3.79782 6.62681 3.83445 6.71525C3.87108 6.80369 3.88066 6.901 3.86199 6.99488C3.84331 7.08877 3.79722 7.17501 3.72953 7.24269C3.66185 7.31038 3.57561 7.35647 3.48173 7.37515C3.38784 7.39382 3.29053 7.38424 3.20209 7.34761C3.11366 7.31098 3.03807 7.24894 2.98489 7.16935C2.93171 7.08976 2.90332 6.99619 2.90332 6.90046H1.93359C1.93406 7.28565 2.08744 7.6549 2.36003 7.92705C2.63262 8.1992 3.00211 8.35199 3.3873 8.35183Z" fill="#595959"/>
<path d="M6.77398 10.7717C7.15892 10.7713 7.52796 10.6181 7.80016 10.3459C8.07235 10.0738 8.22547 9.70471 8.22594 9.31978H7.25797C7.25797 9.4155 7.22958 9.50907 7.1764 9.58866C7.12322 9.66825 7.04763 9.73029 6.9592 9.76692C6.87076 9.80355 6.77345 9.81313 6.67956 9.79446C6.58568 9.77579 6.49944 9.72969 6.43175 9.662C6.36407 9.59432 6.31797 9.50808 6.2993 9.4142C6.28062 9.32031 6.29021 9.223 6.32684 9.13456C6.36347 9.04613 6.42551 8.97054 6.5051 8.91736C6.58469 8.86418 6.67826 8.83579 6.77398 8.83579V7.86841C6.39403 7.87604 6.03221 8.03234 5.7662 8.30375C5.50019 8.57515 5.3512 8.94004 5.3512 9.32007C5.3512 9.7001 5.50019 10.065 5.7662 10.3364C6.03221 10.6078 6.39403 10.7641 6.77398 10.7717Z" fill="#595959"/>
<path d="M1.59204 10.6288L2.27642 9.9444L3.2438 10.9124L2.55942 11.5962L1.59204 10.6288Z" fill="#595959"/>
<path d="M5.37012 5.71741L5.8541 4.75061L6.71895 5.18303L6.23555 6.15041L5.37012 5.71741Z" fill="#595959"/>
<path d="M6.06738 12.6567L6.4998 11.7913L7.46719 12.2747L7.03477 13.1401L6.06738 12.6567Z" fill="#595959"/>
<path d="M8.22598 22.8684C8.35419 22.8686 8.47711 22.9195 8.56783 23.0101C8.65854 23.1007 8.70965 23.2236 8.70996 23.3518H9.67734C9.67734 23.0646 9.59217 22.7839 9.43261 22.5451C9.27304 22.3063 9.04624 22.1202 8.78089 22.0103C8.51555 21.9004 8.22358 21.8717 7.94191 21.9278C7.66025 21.9839 7.40153 22.1222 7.1985 22.3253C6.99546 22.5284 6.85722 22.7872 6.80127 23.0689C6.74531 23.3506 6.77415 23.6425 6.88413 23.9078C6.99411 24.1731 7.18031 24.3999 7.41916 24.5593C7.65801 24.7188 7.93878 24.8039 8.22598 24.8037V23.8358C8.16104 23.838 8.09632 23.8272 8.03566 23.8039C7.975 23.7806 7.91965 23.7454 7.87292 23.7002C7.82618 23.6551 7.78901 23.601 7.76362 23.5412C7.73824 23.4814 7.72516 23.4171 7.72516 23.3521C7.72516 23.2871 7.73824 23.2228 7.76362 23.163C7.78901 23.1032 7.82618 23.0491 7.87292 23.004C7.91965 22.9588 7.975 22.9236 8.03566 22.9003C8.09632 22.877 8.16104 22.8661 8.22598 22.8684Z" fill="#595959"/>
<path d="M12.5806 20.4491C12.9606 20.4415 13.3224 20.2852 13.5884 20.0138C13.8544 19.7423 14.0034 19.3775 14.0034 18.9974C14.0034 18.6174 13.8544 18.2525 13.5884 17.9811C13.3224 17.7097 12.9606 17.5534 12.5806 17.5458V18.5132C12.6764 18.5132 12.7699 18.5415 12.8495 18.5947C12.9291 18.6479 12.9912 18.7235 13.0278 18.8119C13.0644 18.9004 13.074 18.9977 13.0553 19.0916C13.0366 19.1854 12.9906 19.2717 12.9229 19.3394C12.8552 19.4071 12.7689 19.4532 12.6751 19.4718C12.5812 19.4905 12.4839 19.4809 12.3954 19.4443C12.307 19.4077 12.2314 19.3456 12.1782 19.266C12.125 19.1864 12.0967 19.0929 12.0967 18.9971H11.1293C11.1296 19.382 11.2826 19.7511 11.5547 20.0233C11.8268 20.2955 12.1958 20.4486 12.5806 20.4491Z" fill="#595959"/>
<path d="M7.88086 19.8221L8.56523 19.1383L9.53262 20.1086L8.84766 20.7901L7.88086 19.8221Z" fill="#595959"/>
<path d="M10.4167 22.8175L10.8498 21.952L11.8166 22.436L11.3841 23.3009L10.4167 22.8175Z" fill="#595959"/>
<path d="M9.71899 18.2981L10.2024 17.3307L11.0678 17.7649L10.5838 18.7323L9.71899 18.2981Z" fill="#595959"/>
<path d="M8.96777 24.8466L9.93457 24.3632L10.3676 25.228L9.40019 25.712L8.96777 24.8466Z" fill="#595959"/>
<path d="M25.6453 22.8684C25.7102 22.8661 25.775 22.877 25.8356 22.9003C25.8963 22.9236 25.9516 22.9588 25.9984 23.004C26.0451 23.0491 26.0823 23.1032 26.1077 23.163C26.1331 23.2228 26.1461 23.2871 26.1461 23.3521C26.1461 23.4171 26.1331 23.4814 26.1077 23.5412C26.0823 23.601 26.0451 23.6551 25.9984 23.7002C25.9516 23.7454 25.8963 23.7806 25.8356 23.8039C25.775 23.8272 25.7102 23.838 25.6453 23.8358V24.8037C25.9325 24.8037 26.2132 24.7186 26.452 24.5591C26.6907 24.3995 26.8768 24.1727 26.9867 23.9074C27.0966 23.6421 27.1254 23.3502 27.0694 23.0685C27.0133 22.7869 26.8751 22.5282 26.672 22.3251C26.4689 22.122 26.2102 21.9838 25.9286 21.9277C25.6469 21.8717 25.355 21.9005 25.0897 22.0104C24.8244 22.1203 24.5976 22.3064 24.4381 22.5451C24.2785 22.7839 24.1934 23.0646 24.1934 23.3518H25.1613C25.1616 23.2236 25.2127 23.1007 25.3035 23.0101C25.3942 22.9195 25.5171 22.8686 25.6453 22.8684Z" fill="#595959"/>
<path d="M21.2901 20.4491C21.6753 20.4486 22.0446 20.2953 22.3169 20.0227C22.5891 19.7501 22.742 19.3806 22.742 18.9954H21.7741C21.7741 19.0911 21.7457 19.1847 21.6925 19.2643C21.6393 19.3439 21.5637 19.4059 21.4753 19.4425C21.3869 19.4792 21.2896 19.4887 21.1957 19.4701C21.1018 19.4514 21.0156 19.4053 20.9479 19.3376C20.8802 19.2699 20.8341 19.1837 20.8154 19.0898C20.7967 18.9959 20.8063 18.8986 20.843 18.8102C20.8796 18.7217 20.9416 18.6461 21.0212 18.593C21.1008 18.5398 21.1944 18.5114 21.2901 18.5114V17.5458C20.9101 17.5534 20.5483 17.7097 20.2823 17.9811C20.0163 18.2525 19.8673 18.6174 19.8673 18.9974C19.8673 19.3775 20.0163 19.7423 20.2823 20.0138C20.5483 20.2852 20.9101 20.4415 21.2901 20.4491Z" fill="#595959"/>
<path d="M24.3304 20.1086L25.2978 19.1412L25.9822 19.8256L25.0148 20.793L24.3304 20.1086Z" fill="#595959"/>
<path d="M22.0271 22.4307L22.9945 21.9473L23.4269 22.8122L22.4595 23.2956L22.0271 22.4307Z" fill="#595959"/>
<path d="M20.3601 21.6286L21.2249 21.1962L21.7089 22.163L20.8435 22.596L20.3601 21.6286Z" fill="#595959"/>
<path d="M18.1594 17.5932L19.1262 17.1098L19.5592 17.9752L18.5918 18.4586L18.1594 17.5932Z" fill="#595959"/>
<path d="M22.7795 17.7596L23.6444 17.3272L24.1284 18.294L23.2618 18.727L22.7795 17.7596Z" fill="#595959"/>
<path d="M23.4779 25.2414L23.9103 24.3766L24.8777 24.86L24.4447 25.7248L23.4779 25.2414Z" fill="#595959"/>
</g>
</g>
<defs>
<clipPath id="clip0_250_537">
<rect width="30" height="30" fill="white" transform="translate(0 0.615112)"/>
</clipPath>
<clipPath id="clip1_250_537">
<rect width="30" height="27.1066" fill="white" transform="translate(0 2.06177)"/>
</clipPath>
</defs>
</svg>
