<svg width="30" height="31" viewBox="0 0 30 31" fill="none" xmlns="http://www.w3.org/2000/svg">
<g clip-path="url(#clip0_250_1044)">
<g clip-path="url(#clip1_250_1044)">
<path d="M10.9688 9.77697C10.8619 9.74939 10.7672 9.68722 10.6993 9.60017C10.6315 9.51313 10.5944 9.40608 10.5938 9.29572V1.1651C10.5938 1.03249 10.5411 0.905315 10.4473 0.811547C10.3535 0.717779 10.2264 0.6651 10.0938 0.6651H7.09375C6.96114 0.6651 6.83396 0.717779 6.7402 0.811547C6.64643 0.905315 6.59375 1.03249 6.59375 1.1651V9.29572C6.59312 9.40608 6.55599 9.51313 6.48816 9.60017C6.42033 9.68722 6.3256 9.74939 6.21875 9.77697C5.46758 9.97093 4.80213 10.409 4.32698 11.0222C3.85183 11.6355 3.59391 12.3893 3.59375 13.1651L3.59375 30.1651C3.59375 30.2977 3.64643 30.4249 3.7402 30.5187C3.83396 30.6124 3.96114 30.6651 4.09375 30.6651H13.0938C13.2264 30.6651 13.3535 30.6124 13.4473 30.5187C13.5411 30.4249 13.5938 30.2977 13.5938 30.1651V13.1651C13.5936 12.3893 13.3357 11.6355 12.8605 11.0222C12.3854 10.409 11.7199 9.97093 10.9688 9.77697ZM7.59375 1.6651H9.59375V2.6651H7.59375V1.6651ZM12.5938 24.1651H4.59375V17.1651H12.5938V24.1651ZM4.59375 29.6651V25.1651H12.5938V29.6651H4.59375ZM12.5938 16.1651H4.59375V13.1651C4.59375 12.6109 4.77792 12.0723 5.11732 11.6342C5.45672 11.196 5.93211 10.883 6.46875 10.7445C6.79013 10.6615 7.07492 10.4743 7.2785 10.2121C7.48208 9.94993 7.59295 9.62765 7.59375 9.29572V3.6651H9.59375V9.29572C9.59427 9.62786 9.70502 9.95043 9.90862 10.2129C10.1122 10.4753 10.3972 10.6627 10.7188 10.7457C11.2552 10.8842 11.7304 11.197 12.0698 11.6349C12.4092 12.0728 12.5935 12.6111 12.5938 13.1651V16.1651Z" fill="#595959"/>
<path d="M25.0456 11.8457C24.3005 10.6538 23.9057 9.27636 23.9063 7.87073V1.1651C23.9063 1.03249 23.8536 0.905315 23.7598 0.811547C23.666 0.717779 23.5389 0.6651 23.4063 0.6651H20.4063C20.2736 0.6651 20.1465 0.717779 20.0527 0.811547C19.9589 0.905315 19.9063 1.03249 19.9063 1.1651V7.87073C19.9069 9.27562 19.5126 10.6524 18.7681 11.8439L18.6981 11.9545C17.8535 13.3053 17.4058 14.8664 17.4063 16.4595V30.1651C17.4063 30.2977 17.4589 30.4249 17.5527 30.5187C17.6465 30.6124 17.7736 30.6651 17.9063 30.6651H25.9062C26.0389 30.6651 26.166 30.6124 26.2598 30.5187C26.3536 30.4249 26.4062 30.2977 26.4062 30.1651V16.4595C26.4065 14.8656 25.9584 13.3038 25.1131 11.9526L25.0456 11.8457ZM20.9063 1.6651H22.9063V2.6651H20.9063V1.6651ZM25.4062 29.6651H18.4063V16.4595C18.4056 15.0546 18.7999 13.6778 19.5444 12.4864L19.6144 12.3764C20.4588 11.0252 20.9064 9.46399 20.9063 7.87073V3.6651H22.9063V7.87073C22.906 9.46458 23.3541 11.0264 24.1994 12.3776L24.2669 12.4845C25.012 13.6764 25.4068 15.0538 25.4062 16.4595V29.6651Z" fill="#595959"/>
<path d="M21.9063 18.1651C21.4118 18.1651 20.9284 18.3117 20.5173 18.5864C20.1062 18.8611 19.7858 19.2516 19.5966 19.7084C19.4073 20.1652 19.3578 20.6679 19.4543 21.1528C19.5508 21.6378 19.7889 22.0832 20.1385 22.4329C20.4881 22.7825 20.9336 23.0206 21.4185 23.1171C21.9035 23.2135 22.4061 23.164 22.863 22.9748C23.3198 22.7856 23.7102 22.4651 23.9849 22.054C24.2596 21.6429 24.4063 21.1596 24.4063 20.6651C24.4063 20.3368 24.3416 20.0117 24.2159 19.7084C24.0903 19.4051 23.9062 19.1295 23.674 18.8973C23.4419 18.6652 23.1663 18.481 22.863 18.3554C22.5596 18.2298 22.2346 18.1651 21.9063 18.1651ZM21.9063 22.1651C21.6096 22.1651 21.3196 22.0771 21.0729 21.9123C20.8262 21.7475 20.634 21.5132 20.5204 21.2391C20.4069 20.965 20.3772 20.6634 20.4351 20.3725C20.493 20.0815 20.6358 19.8142 20.8456 19.6044C21.0554 19.3947 21.3226 19.2518 21.6136 19.1939C21.9046 19.136 22.2062 19.1658 22.4803 19.2793C22.7544 19.3928 22.9886 19.5851 23.1535 19.8317C23.3183 20.0784 23.4063 20.3684 23.4063 20.6651C23.4063 21.0629 23.2482 21.4445 22.9669 21.7258C22.6856 22.0071 22.3041 22.1651 21.9063 22.1651Z" fill="#595959"/>
</g>
</g>
<defs>
<clipPath id="clip0_250_1044">
<rect width="30" height="30" fill="white" transform="translate(0 0.6651)"/>
</clipPath>
<clipPath id="clip1_250_1044">
<rect width="22.8125" height="30" fill="white" transform="translate(3.59375 0.6651)"/>
</clipPath>
</defs>
</svg>
