<svg width="30" height="31" viewBox="0 0 30 31" fill="none" xmlns="http://www.w3.org/2000/svg">
<g clip-path="url(#clip0_250_65)">
<g clip-path="url(#clip1_250_65)">
<g clip-path="url(#clip2_250_65)">
<path d="M29.7574 29.0013L28.5381 18.6578C28.511 18.4454 28.4315 18.2432 28.3067 18.0693C28.1819 17.8954 28.0157 17.7553 27.8232 17.6617C27.6257 17.5631 27.4081 17.5114 27.1874 17.5107C26.9666 17.51 26.7487 17.5602 26.5506 17.6576L21.5174 20.1507V14.1888C21.5072 12.1129 20.7854 10.1033 19.4725 8.49528L18.0076 6.68883C17.5556 6.13449 17.3074 5.44182 17.3045 4.72653V3.14449C17.5033 3.03049 17.6688 2.86645 17.7845 2.66868C17.9002 2.47091 17.9622 2.24629 17.9643 2.01715V1.7652C17.9643 1.03043 17.3355 0.43512 16.5615 0.43512H9.78516C9.01172 0.43512 8.38242 1.03043 8.38242 1.76285V2.01715C8.3849 2.24684 8.44755 2.47186 8.56414 2.66978C8.68073 2.86769 8.84718 3.03157 9.04688 3.14508V4.72711C9.04401 5.44241 8.79581 6.13507 8.34375 6.68942L6.87891 8.49586C5.56596 10.1039 4.84417 12.1135 4.83398 14.1894V22.5097C4.13883 22.6655 3.46668 22.9103 2.83418 23.2381C2.78143 23.2635 2.73449 23.2996 2.69627 23.344C2.65804 23.3883 2.62936 23.4401 2.61199 23.4961C2.59463 23.552 2.58895 23.6109 2.59532 23.6691C2.60169 23.7274 2.61997 23.7837 2.64902 23.8345C2.71206 23.9385 2.81234 24.0146 2.92947 24.0472C3.04659 24.0799 3.17175 24.0667 3.27949 24.0103C4.26797 23.4994 5.35078 23.2181 6.32637 23.2181C8.80254 23.2181 10.817 24.5382 10.817 26.1613C10.817 27.7843 8.80254 29.1045 6.32637 29.1045C3.76523 29.1021 1.16367 27.2125 1.16367 26.1578C1.16367 25.8818 1.35293 25.5261 1.69687 25.1564C1.73697 25.1139 1.76785 25.0635 1.78757 25.0085C1.80728 24.9535 1.81542 24.895 1.81146 24.8366C1.80749 24.7783 1.79152 24.7215 1.76455 24.6696C1.73757 24.6178 1.70017 24.572 1.65469 24.5353C1.56053 24.458 1.44063 24.4192 1.31904 24.4266C1.19744 24.4339 1.08313 24.487 0.999023 24.5752C0.498633 25.1148 0.234375 25.6621 0.234375 26.1578C0.234375 26.9839 0.979687 27.9484 2.22656 28.7359C3.47344 29.5234 4.97168 29.9804 6.32344 29.9804C7.74375 29.9804 9.08438 29.599 10.0992 28.9064C10.4101 28.697 10.6932 28.4492 10.9418 28.1687H16.4766L17.8213 29.6863C18.0347 29.9237 18.296 30.1132 18.588 30.2423C18.88 30.3714 19.196 30.4371 19.5152 30.4351H28.4016C28.5913 30.436 28.7792 30.3983 28.954 30.3244C29.1287 30.2504 29.2866 30.1418 29.4182 30.005C29.5448 29.8728 29.6408 29.7144 29.6995 29.5409C29.7581 29.3675 29.7779 29.1833 29.7574 29.0013ZM11.5072 27.2904C11.6635 26.9332 11.7443 26.5476 11.7445 26.1578C11.7445 25.1089 11.1586 24.1328 10.1004 23.4091C9.08613 22.7166 7.74492 22.3351 6.32461 22.3351C6.13887 22.3351 5.95078 22.3445 5.76035 22.3615V14.1888C5.76932 12.3087 6.4231 10.4887 7.6125 9.03258L9.07734 7.22555C9.65316 6.51976 9.96977 5.63798 9.97441 4.72711V3.34196H10.8598C10.9796 3.34511 11.0958 3.30062 11.1829 3.21825C11.27 3.13588 11.3209 3.02233 11.3244 2.9025C11.321 2.78257 11.2702 2.66888 11.1831 2.58638C11.096 2.50388 10.9797 2.45931 10.8598 2.46246H9.78516C9.66368 2.46531 9.54597 2.42016 9.45756 2.3368C9.36916 2.25344 9.31717 2.13859 9.31289 2.01715V1.7652C9.31426 1.70456 9.32756 1.64478 9.35204 1.58929C9.37652 1.53379 9.41169 1.48366 9.45555 1.44177C9.49941 1.39987 9.55109 1.36702 9.60764 1.3451C9.6642 1.32319 9.72452 1.31262 9.78516 1.31403H16.5615C16.6837 1.31087 16.8021 1.35628 16.8909 1.44031C16.9796 1.52433 17.0314 1.64011 17.035 1.76227V2.01715C17.0313 2.13921 16.9794 2.25484 16.8907 2.33873C16.8019 2.42263 16.6836 2.46796 16.5615 2.46481H13.05C12.9301 2.46166 12.8138 2.50622 12.7267 2.58872C12.6395 2.67122 12.5887 2.78491 12.5854 2.90485C12.5889 3.02468 12.6398 3.13822 12.7269 3.22059C12.814 3.30297 12.9302 3.34745 13.05 3.3443H16.3705V4.72653C16.3749 5.63754 16.6918 6.51947 17.2682 7.22496L18.733 9.03199C19.9224 10.4881 20.5762 12.3082 20.5852 14.1882V20.6113L14.577 23.5884C14.3995 23.674 14.244 23.7989 14.1221 23.9536C14.0003 24.1084 13.9154 24.2889 13.8738 24.4814C13.8342 24.6719 13.84 24.869 13.8909 25.0567C13.9419 25.2445 14.0364 25.4176 14.1668 25.5619L15.699 27.2904H11.5072ZM28.7256 29.4185C28.6838 29.4622 28.6335 29.4969 28.5777 29.5204C28.522 29.5438 28.462 29.5556 28.4016 29.555H19.5152C19.3302 29.5563 19.1471 29.5184 18.9778 29.4438C18.8086 29.3691 18.657 29.2595 18.5332 29.122L14.8764 24.9964C14.8348 24.9505 14.8047 24.8954 14.7885 24.8357C14.7723 24.7759 14.7705 24.7131 14.7832 24.6525C14.7964 24.5911 14.8236 24.5335 14.8626 24.4842C14.9016 24.4349 14.9514 24.3953 15.0082 24.3683L26.9813 18.4375C27.0442 18.4059 27.1136 18.3894 27.184 18.3894C27.2544 18.3894 27.3238 18.4059 27.3867 18.4375C27.4483 18.467 27.5015 18.5116 27.5413 18.5671C27.5812 18.6226 27.6064 18.6872 27.6146 18.755L28.8334 29.0974C28.8403 29.1554 28.8342 29.2142 28.8156 29.2695C28.7969 29.3249 28.7662 29.3754 28.7256 29.4173V29.4185Z" fill="#595959"/>
<path d="M24.3885 23.6219C24.3885 23.254 24.2794 22.8945 24.0751 22.5886C23.8707 22.2828 23.5802 22.0444 23.2404 21.9037C22.9006 21.7629 22.5266 21.7261 22.1659 21.7978C21.8051 21.8696 21.4738 22.0467 21.2137 22.3068C20.9536 22.5669 20.7764 22.8983 20.7047 23.259C20.6329 23.6198 20.6698 23.9937 20.8105 24.3336C20.9513 24.6734 21.1896 24.9638 21.4955 25.1682C21.8013 25.3725 22.1609 25.4816 22.5287 25.4816C23.0218 25.4812 23.4946 25.2851 23.8433 24.9364C24.1919 24.5877 24.388 24.1149 24.3885 23.6219ZM22.5287 24.6015C22.3349 24.6015 22.1455 24.5441 21.9844 24.4364C21.8233 24.3288 21.6977 24.1758 21.6236 23.9968C21.5494 23.8177 21.53 23.6208 21.5678 23.4307C21.6057 23.2407 21.699 23.0661 21.836 22.9291C21.973 22.7921 22.1475 22.6988 22.3376 22.661C22.5276 22.6232 22.7246 22.6426 22.9036 22.7167C23.0826 22.7909 23.2356 22.9165 23.3433 23.0776C23.4509 23.2387 23.5084 23.4281 23.5084 23.6219C23.5081 23.8816 23.4048 24.1306 23.2211 24.3143C23.0375 24.4979 22.7884 24.6012 22.5287 24.6015Z" fill="#595959"/>
<path d="M20.0977 24.7562C19.8405 24.7562 19.5891 24.8325 19.3753 24.9754C19.1614 25.1183 18.9948 25.3214 18.8964 25.559C18.798 25.7966 18.7723 26.0581 18.8225 26.3103C18.8727 26.5625 18.9966 26.7942 19.1785 26.976C19.3604 27.1578 19.5921 27.2816 19.8444 27.3317C20.0966 27.3818 20.3581 27.356 20.5957 27.2575C20.8332 27.159 21.0362 26.9922 21.179 26.7783C21.3218 26.5645 21.398 26.313 21.3979 26.0558C21.3974 25.7112 21.2603 25.3808 21.0165 25.1372C20.7728 24.8935 20.4423 24.7565 20.0977 24.7562ZM20.0977 26.476C20.0146 26.476 19.9334 26.4513 19.8643 26.4052C19.7952 26.359 19.7413 26.2934 19.7095 26.2166C19.6777 26.1398 19.6694 26.0554 19.6856 25.9739C19.7018 25.8924 19.7419 25.8175 19.8006 25.7588C19.8594 25.7 19.9342 25.66 20.0157 25.6438C20.0972 25.6276 20.1817 25.6359 20.2585 25.6677C20.3352 25.6995 20.4008 25.7533 20.447 25.8224C20.4932 25.8915 20.5178 25.9727 20.5178 26.0558C20.5176 26.1672 20.4733 26.274 20.3946 26.3527C20.3158 26.4315 20.2091 26.4758 20.0977 26.476Z" fill="#595959"/>
<path d="M24.573 26.5585C24.3158 26.5585 24.0643 26.6348 23.8505 26.7778C23.6366 26.9207 23.47 27.1239 23.3716 27.3616C23.2733 27.5993 23.2476 27.8608 23.2979 28.113C23.3483 28.3653 23.4723 28.597 23.6543 28.7787C23.8363 28.9605 24.0681 29.0842 24.3204 29.1342C24.5728 29.1841 24.8343 29.1581 25.0718 29.0594C25.3094 28.9608 25.5123 28.7938 25.655 28.5798C25.7976 28.3658 25.8736 28.1142 25.8732 27.857C25.8723 27.5126 25.7349 27.1826 25.4913 26.9392C25.2476 26.6959 24.9174 26.559 24.573 26.5585ZM24.573 28.2788C24.4899 28.2788 24.4087 28.2542 24.3396 28.208C24.2705 28.1619 24.2167 28.0963 24.1849 28.0195C24.1531 27.9427 24.1448 27.8583 24.161 27.7768C24.1772 27.6953 24.2172 27.6204 24.276 27.5617C24.3347 27.5029 24.4096 27.4629 24.4911 27.4467C24.5726 27.4305 24.657 27.4388 24.7338 27.4706C24.8106 27.5024 24.8762 27.5562 24.9223 27.6253C24.9685 27.6944 24.9931 27.7756 24.9931 27.8587C24.993 27.9701 24.9487 28.0769 24.8699 28.1556C24.7912 28.2344 24.6844 28.2787 24.573 28.2788Z" fill="#595959"/>
<path d="M16.984 18.3062V16.5015C16.9833 16.2343 16.9206 15.9708 16.8007 15.732C16.6808 15.4931 16.507 15.2854 16.2931 15.1251C16.2473 15.0869 16.1941 15.0584 16.1369 15.0414C16.0797 15.0243 16.0196 15.0191 15.9603 15.026C15.901 15.0329 15.8438 15.0518 15.792 15.0816C15.7403 15.1113 15.6951 15.1513 15.6593 15.1991C15.6235 15.2468 15.5977 15.3014 15.5837 15.3594C15.5696 15.4174 15.5675 15.4777 15.5774 15.5365C15.5874 15.5954 15.6092 15.6516 15.6416 15.7018C15.674 15.7519 15.7163 15.795 15.7658 15.8283C15.8709 15.9056 15.9562 16.0067 16.0149 16.1233C16.0735 16.2399 16.1038 16.3687 16.1033 16.4992V18.3062C16.1031 18.528 16.015 18.7406 15.8583 18.8975C15.7015 19.0543 15.4889 19.1426 15.2672 19.1429H10.7613C10.5397 19.1423 10.3275 19.0539 10.171 18.8971C10.0145 18.7402 9.9265 18.5278 9.92634 18.3062V16.5015C9.9265 16.2798 10.0146 16.0672 10.1714 15.9105C10.3282 15.7537 10.5408 15.6655 10.7625 15.6654H14.0537C14.1133 15.6685 14.1729 15.6594 14.2289 15.6387C14.2849 15.618 14.3361 15.5861 14.3794 15.545C14.4227 15.5039 14.4572 15.4544 14.4807 15.3996C14.5043 15.3447 14.5164 15.2856 14.5164 15.2259C14.5164 15.1662 14.5043 15.1072 14.4807 15.0523C14.4572 14.9974 14.4227 14.948 14.3794 14.9068C14.3361 14.8657 14.2849 14.8339 14.2289 14.8132C14.1729 14.7925 14.1133 14.7834 14.0537 14.7865H10.7625C10.3075 14.7869 9.8712 14.9679 9.54945 15.2897C9.22769 15.6114 9.04673 16.0477 9.04626 16.5027V18.3062C9.04673 18.7612 9.22769 19.1975 9.54945 19.5192C9.8712 19.841 10.3075 20.0219 10.7625 20.0224H15.2683C15.7233 20.0218 16.1594 19.8408 16.481 19.519C16.8026 19.1973 16.9835 18.7611 16.984 18.3062Z" fill="#595959"/>
</g>
</g>
</g>
<defs>
<clipPath id="clip0_250_65">
<rect width="30" height="30" fill="white" transform="translate(0 0.43512)"/>
</clipPath>
<clipPath id="clip1_250_65">
<rect width="30" height="30" fill="white" transform="translate(0 0.43512)"/>
</clipPath>
<clipPath id="clip2_250_65">
<rect width="29.5312" height="30" fill="white" transform="translate(0.234375 0.43512)"/>
</clipPath>
</defs>
</svg>
