<svg width="30" height="31" viewBox="0 0 30 31" fill="none" xmlns="http://www.w3.org/2000/svg">
<g clip-path="url(#clip0_250_741)">
<g clip-path="url(#clip1_250_741)">
<path d="M28.7063 6.88226C28.2965 6.47042 27.8092 6.14393 27.2724 5.92166C26.7356 5.69939 26.1601 5.58576 25.5792 5.58734C25.3649 5.58721 25.1508 5.60248 24.9387 5.63304C25.0421 4.92651 24.9729 4.20546 24.7371 3.53147C24.5013 2.85748 24.1059 2.25057 23.5846 1.76258C23.0634 1.27458 22.4317 0.920007 21.7436 0.729128C21.0556 0.538249 20.3315 0.51674 19.6334 0.666436C18.9352 0.816133 18.2836 1.13259 17.7343 1.58878C17.1849 2.04496 16.7542 2.62733 16.4788 3.28613C16.2034 3.94494 16.0916 4.66061 16.1528 5.37203C16.2141 6.08345 16.4466 6.76947 16.8305 7.37152L7.04536 17.1567C6.48221 16.7421 5.82879 16.4669 5.13871 16.3537C4.44862 16.2405 3.74153 16.2925 3.07544 16.5055C2.40935 16.7184 1.80323 17.0862 1.3068 17.5788C0.810379 18.0713 0.437793 18.6745 0.219609 19.3389C0.00142439 20.0033 -0.0561421 20.71 0.0516314 21.4009C0.159405 22.0919 0.429448 22.7475 0.839609 23.3139C1.24977 23.8802 1.78836 24.3413 2.41121 24.6593C3.03405 24.9772 3.7234 25.143 4.42271 25.143C4.637 25.1431 4.85103 25.1278 5.06314 25.0973C4.95853 25.8159 5.03242 26.5492 5.27827 27.2325C5.52413 27.9158 5.93439 28.5281 6.47286 29.0153C7.01133 29.5026 7.66145 29.8498 8.36585 30.0263C9.07025 30.2028 9.80727 30.2033 10.5119 30.0276C11.2165 29.8519 11.867 29.5054 12.4061 29.0189C12.9451 28.5323 13.3561 27.9205 13.6028 27.2375C13.8494 26.5544 13.9242 25.8212 13.8204 25.1025C13.7167 24.3838 13.4376 23.7016 13.0079 23.1162L22.728 13.3932C23.601 14.1227 24.7214 14.4878 25.8566 14.4127C26.9917 14.3377 28.0543 13.8282 28.8236 12.9901C29.593 12.152 30.0098 11.0497 29.9876 9.91231C29.9655 8.77488 29.5059 7.68972 28.7045 6.88226H28.7063ZM27.8778 12.3098C27.2679 12.9195 26.4409 13.262 25.5786 13.262C24.7162 13.262 23.8892 12.9195 23.2793 12.3098C23.2389 12.2688 23.1973 12.2254 23.1575 12.1803C23.1043 12.121 23.0396 12.0732 22.9673 12.0397C22.895 12.0063 22.8166 11.9879 22.737 11.9858C22.6574 11.9837 22.5781 11.9978 22.5042 12.0273C22.4302 12.0568 22.363 12.1011 22.3067 12.1575L11.7967 22.6674C11.6883 22.7759 11.6267 22.9225 11.6251 23.0759C11.6236 23.2293 11.6823 23.3771 11.7885 23.4877C12.3735 24.1035 12.6958 24.9228 12.6871 25.7721C12.6783 26.6214 12.3392 27.434 11.7417 28.0375C11.2093 28.5699 10.5087 28.9011 9.75939 28.9745C9.01009 29.048 8.25852 28.8592 7.6329 28.4403C7.00729 28.0214 6.5464 27.3984 6.32887 26.6777C6.11134 25.9569 6.15065 25.183 6.44009 24.4879C6.48465 24.3808 6.49638 24.2628 6.47379 24.1489C6.45121 24.0351 6.39532 23.9305 6.31322 23.8485C6.23112 23.7664 6.12651 23.7106 6.01265 23.6881C5.89879 23.6656 5.78082 23.6775 5.67368 23.7221C5.13246 23.9476 4.54034 24.0225 3.96 23.9391C3.37965 23.8556 2.83268 23.6167 2.37697 23.2478C1.92125 22.8789 1.57375 22.3937 1.37124 21.8434C1.16874 21.2932 1.11876 20.6984 1.2266 20.1221C1.33443 19.5458 1.59608 19.0094 1.98383 18.5696C2.37159 18.1298 2.87103 17.803 3.4293 17.6239C3.98757 17.4447 4.5839 17.4198 5.15516 17.5518C5.72643 17.6838 6.25139 17.9677 6.67447 18.3737C6.78514 18.4799 6.93304 18.5384 7.08642 18.5368C7.23979 18.5351 7.3864 18.4734 7.49478 18.3649L18.0129 7.84671C18.116 7.74364 18.177 7.60583 18.1839 7.46021C18.1909 7.31459 18.1433 7.17162 18.0504 7.05921C17.6841 6.61491 17.4424 6.0813 17.3498 5.51294C17.2573 4.94458 17.3174 4.36185 17.5239 3.82431C17.7304 3.28677 18.076 2.81371 18.5252 2.45348C18.9745 2.09324 19.5113 1.85876 20.0809 1.77399C20.6504 1.68923 21.2323 1.75722 21.767 1.97102C22.3016 2.18482 22.77 2.53676 23.1241 2.99087C23.4781 3.44498 23.7053 3.98496 23.7823 4.55563C23.8593 5.1263 23.7834 5.70718 23.5624 6.2389C23.5177 6.34603 23.5059 6.46401 23.5284 6.57787C23.5509 6.69172 23.6067 6.79634 23.6887 6.87844C23.7708 6.96053 23.8753 7.01642 23.9892 7.03901C24.103 7.06159 24.221 7.04986 24.3282 7.00531C25.0232 6.71587 25.7971 6.67656 26.5179 6.89409C27.2387 7.11162 27.8617 7.57251 28.2805 8.19812C28.6994 8.82373 28.8882 9.5753 28.8148 10.3246C28.7413 11.0739 28.4102 11.7745 27.8778 12.3069V12.3098Z" fill="#595959"/>
<path d="M12.8485 15.0831C12.7386 14.9732 12.5896 14.9115 12.4342 14.9115C12.2789 14.9115 12.1298 14.9732 12.02 15.0831L9.28716 17.8159C9.23119 17.8699 9.18656 17.9346 9.15585 18.0061C9.12514 18.0775 9.10897 18.1544 9.1083 18.2322C9.10762 18.31 9.12245 18.3872 9.15191 18.4592C9.18137 18.5312 9.22488 18.5966 9.27989 18.6516C9.33491 18.7067 9.40033 18.7502 9.47234 18.7796C9.54435 18.8091 9.62151 18.8239 9.69931 18.8232C9.77711 18.8226 9.85399 18.8064 9.92548 18.7757C9.99697 18.745 10.0616 18.7003 10.1157 18.6444L12.8485 15.9116C12.9583 15.8017 13.02 15.6527 13.02 15.4973C13.02 15.3419 12.9583 15.1929 12.8485 15.0831Z" fill="#595959"/>
<path d="M14.0936 13.8379C14.0392 13.7834 13.9746 13.7402 13.9035 13.7107C13.8323 13.6812 13.7561 13.666 13.6791 13.666C13.6021 13.666 13.5258 13.6812 13.4547 13.7107C13.3836 13.7402 13.3189 13.7834 13.2645 13.8379L13.2516 13.8513C13.1957 13.9054 13.151 13.97 13.1203 14.0415C13.0896 14.113 13.0735 14.1899 13.0728 14.2677C13.0721 14.3455 13.0869 14.4227 13.1164 14.4947C13.1458 14.5667 13.1894 14.6321 13.2444 14.6871C13.2994 14.7421 13.3648 14.7856 13.4368 14.8151C13.5088 14.8446 13.586 14.8594 13.6638 14.8587C13.7416 14.858 13.8185 14.8419 13.89 14.8112C13.9614 14.7805 14.0261 14.7358 14.0801 14.6799L14.0936 14.6664C14.2035 14.5565 14.2652 14.4075 14.2652 14.2521C14.2652 14.0968 14.2035 13.9477 14.0936 13.8379Z" fill="#595959"/>
</g>
</g>
<defs>
<clipPath id="clip0_250_741">
<rect width="30" height="30" fill="white" transform="translate(0 0.364868)"/>
</clipPath>
<clipPath id="clip1_250_741">
<rect width="30" height="29.5934" fill="white" transform="translate(0 0.568237)"/>
</clipPath>
</defs>
</svg>
