<svg width="30" height="31" viewBox="0 0 30 31" fill="none" xmlns="http://www.w3.org/2000/svg">
<g clip-path="url(#clip0_250_480)">
<g clip-path="url(#clip1_250_480)">
<g clip-path="url(#clip2_250_480)">
<path d="M11.5 7.95496H10.5001V8.95479H11.5V7.95496Z" fill="#595959"/>
<path d="M13.2903 25.4977C12.7541 20.9153 11.4 15.4537 7.99866 15.4537C4.59735 15.4537 3.24945 20.9153 2.71079 25.4977C2.66962 25.8424 2.69677 26.1918 2.79071 26.526C2.88464 26.8602 3.04351 27.1726 3.25823 27.4453C3.47296 27.7181 3.73932 27.9458 4.04212 28.1156C4.34491 28.2854 4.67818 28.3938 5.0229 28.4347C5.12658 28.4473 5.23092 28.4535 5.33535 28.4534H10.6695C11.0166 28.4532 11.3602 28.3846 11.6808 28.2515C12.0013 28.1184 12.2926 27.9235 12.5378 27.6779C12.783 27.4322 12.9775 27.1407 13.11 26.8199C13.2425 26.4991 13.3106 26.1554 13.3103 25.8083C13.3099 25.7044 13.3032 25.6007 13.2903 25.4977ZM7.99866 16.4536C9.85147 16.4536 10.955 19.05 11.5981 21.6477L11.3981 21.8477C11.0219 22.2068 10.5218 22.4072 10.0018 22.4072C9.48169 22.4072 8.98161 22.2068 8.60543 21.8477C8.04773 21.29 7.29134 20.9767 6.50265 20.9767C5.71397 20.9767 4.95759 21.29 4.39988 21.8477L4.34239 21.9052C4.97104 19.2256 6.08647 16.4536 7.99866 16.4536ZM11.8918 26.9018C11.7389 27.0757 11.5506 27.2148 11.3394 27.3097C11.1282 27.4046 10.8991 27.453 10.6676 27.4517H5.33347C5.10197 27.4529 4.87291 27.4044 4.66173 27.3096C4.45056 27.2147 4.26218 27.0757 4.1093 26.9018C3.95443 26.7279 3.83803 26.5232 3.76772 26.3011C3.6974 26.0791 3.67475 25.8447 3.70125 25.6133C3.76374 25.0809 3.85435 24.411 3.98058 23.6761L5.10539 22.5544C5.48157 22.1953 5.98164 21.9949 6.50172 21.9949C7.02179 21.9949 7.52187 22.1953 7.89805 22.5544C8.41435 23.0712 9.10297 23.3797 9.83231 23.4208C10.5617 23.462 11.2806 23.2329 11.8518 22.7775C12.0686 23.8567 12.2105 24.8678 12.2979 25.6114C12.3251 25.843 12.3029 26.0777 12.2329 26.3001C12.1629 26.5225 12.0466 26.7276 11.8918 26.9018Z" fill="#595959"/>
<path d="M17.5683 1.17739C16.7193 1.03026 15.8592 0.956254 14.9975 0.956178C13.1884 0.954324 11.3941 1.28169 9.70215 1.92227C9.47729 1.54814 9.13588 1.25813 8.73031 1.09674C8.32474 0.935357 7.87742 0.911506 7.45698 1.02885C7.03655 1.1462 6.66624 1.39826 6.40287 1.74635C6.1395 2.09445 5.99763 2.51935 5.99902 2.95584V3.45576H5.4991C5.36651 3.45576 5.23936 3.50843 5.14561 3.60218C5.05185 3.69594 4.99918 3.82309 4.99918 3.95568V5.55541C3.92431 5.77692 2.95875 6.36245 2.26545 7.21319C1.57215 8.06393 1.19356 9.1278 1.19357 10.2253C1.19127 10.9994 1.3427 11.7663 1.63909 12.4815C1.93548 13.1967 2.37092 13.8459 2.92016 14.3914L3.51131 14.9807C2.15594 16.5833 1.15573 18.455 0.576655 20.4723C-0.00241817 22.4897 -0.147198 24.607 0.151867 26.6844L0.161865 26.7538C0.332858 27.9163 0.914918 28.9791 1.80244 29.7492C2.68996 30.5193 3.82413 30.9458 4.99918 30.9512H10.9982C11.4857 30.9509 11.9704 30.8763 12.4354 30.73C20.596 32.1479 28.3615 26.6819 29.7794 18.5214C31.1973 10.3609 25.7289 2.5959 17.5683 1.17739ZM6.99885 2.95584C6.99885 2.69067 7.10419 2.43636 7.2917 2.24886C7.4792 2.06135 7.73351 1.95601 7.99868 1.95601C8.26386 1.95601 8.51817 2.06135 8.70567 2.24886C8.89318 2.43636 8.99852 2.69067 8.99852 2.95584V3.45576H6.99885V2.95584ZM5.99902 4.45559H9.99835V5.45543H5.99902V4.45559ZM10.9982 29.9513H4.99918C4.06395 29.9473 3.16118 29.608 2.45485 28.995C1.74852 28.382 1.28547 27.536 1.14983 26.6107L1.1392 26.5407C0.849515 24.5285 1.00637 22.4772 1.59863 20.5325C2.1909 18.5878 3.20404 16.7973 4.56613 15.2882C4.65162 15.193 4.69739 15.0687 4.69402 14.9409C4.69065 14.813 4.63839 14.6913 4.54801 14.6008L3.62441 13.6791C3.16903 13.2263 2.808 12.6877 2.56226 12.0944C2.31651 11.5011 2.19092 10.8649 2.19278 10.2228C2.19408 9.79031 2.27019 9.36135 2.41774 8.95484H9.49844V7.95501H2.95827C3.0624 7.81534 3.17598 7.68297 3.29822 7.55883C3.64728 7.20795 4.06244 6.92976 4.51969 6.74033C4.97695 6.55091 5.46722 6.45402 5.96215 6.45526H10.0396C11.0386 6.45526 11.9967 6.85213 12.7032 7.55855C13.4096 8.26498 13.8065 9.2231 13.8065 10.2221C13.808 10.8645 13.6821 11.5008 13.436 12.0942C13.1899 12.6876 12.8286 13.2263 12.373 13.6791L11.4519 14.6002C11.3615 14.6907 11.3092 14.8124 11.3058 14.9402C11.3025 15.0681 11.3482 15.1924 11.4337 15.2875C12.7951 16.7962 13.8077 18.586 14.3998 20.5299C14.9918 22.4739 15.1487 24.5243 14.8594 26.5357L14.8475 26.6107C14.7123 27.5362 14.2493 28.3824 13.5429 28.9955C12.8365 29.6085 11.9335 29.9477 10.9982 29.9513ZM20.0061 29.0253C18.4072 29.6377 16.7096 29.9516 14.9975 29.9513C14.6644 29.9513 14.3314 29.9301 13.9977 29.907C14.9943 29.134 15.6531 28.0054 15.8361 26.7575L15.8468 26.6819C15.9313 26.088 15.9797 25.4895 15.9917 24.8897C17.9226 24.684 19.7342 23.8559 21.153 22.5302C22.5719 21.2046 23.5211 19.4534 23.8573 17.5409L22.8712 17.3672C22.5755 19.0504 21.7456 20.5936 20.5044 21.7684C19.2632 22.9432 17.6768 23.687 15.9799 23.8899C15.8329 20.6159 14.6057 17.4828 12.4898 14.9801L13.0816 14.3883C13.63 13.8429 14.0648 13.1941 14.3608 12.4795C14.6569 11.7649 14.8083 10.9987 14.8063 10.2253C14.8077 9.44686 14.6175 8.68007 14.2526 7.99251C14.4976 7.96688 14.7476 7.95501 14.9975 7.95501C16.8748 7.95202 18.6932 8.61064 20.1331 9.81516C21.5731 11.0197 22.5425 12.6931 22.8712 14.5414L23.8554 14.3664C23.4858 12.2869 22.3952 10.4041 20.7753 9.04872C19.1554 7.69336 17.1097 6.95211 14.9975 6.95518C14.5318 6.95826 14.0669 6.99712 13.6071 7.07141C13.5446 6.99705 13.4784 6.92143 13.4072 6.85145C12.7494 6.1915 11.9113 5.74061 10.9982 5.55541V3.95568C10.9982 3.82309 10.9455 3.69594 10.8518 3.60218C10.758 3.50843 10.6309 3.45576 10.4983 3.45576H9.99835V2.95584C9.99835 2.93085 9.9921 2.90585 9.99085 2.88211C17.2121 0.116943 25.3083 3.72697 28.0716 10.9464C30.8349 18.1658 27.2267 26.2595 20.0079 29.0253H20.0061Z" fill="#595959"/>
<path d="M23.9848 15.4244L22.985 15.4832C22.9937 15.6394 22.9981 15.7956 22.9981 15.9537C22.9981 16.1118 22.9937 16.2662 22.985 16.4243L23.9848 16.483C23.9948 16.3074 23.9998 16.1331 23.9998 15.9537C23.9998 15.7744 23.9961 15.6 23.9848 15.4244Z" fill="#595959"/>
<path d="M28.9971 1.95601V0.956177H27.9973V1.95601H26.9974V2.95584H27.9973V3.95568H28.9971V2.95584H29.9969V1.95601H28.9971Z" fill="#595959"/>
<path d="M28.9971 28.9515V27.9517H27.9973V28.9515H26.9974V29.9513H27.9973V30.9512H28.9971V29.9513H29.9969V28.9515H28.9971Z" fill="#595959"/>
<path d="M2.0015 1.95601V0.956177H1.00166V1.95601H0.00183105V2.95584H1.00166V3.95568H2.0015V2.95584H3.00133V1.95601H2.0015Z" fill="#595959"/>
</g>
</g>
</g>
<defs>
<clipPath id="clip0_250_480">
<rect width="30" height="30" fill="white" transform="translate(0 0.954956)"/>
</clipPath>
<clipPath id="clip1_250_480">
<rect width="30" height="30" fill="white" transform="translate(0 0.954956)"/>
</clipPath>
<clipPath id="clip2_250_480">
<rect width="30" height="29.9975" fill="white" transform="translate(0 0.956177)"/>
</clipPath>
</defs>
</svg>
