<svg width="25" height="24" viewBox="0 0 25 24" fill="none" xmlns="http://www.w3.org/2000/svg">
<path d="M19.6594 12.4706V7.1059C19.6594 5.52459 19.6594 4.73391 19.3516 4.12993C19.081 3.59866 18.649 3.16671 18.1177 2.89601C17.5136 2.58826 16.723 2.58826 15.1417 2.58826H9.11817C7.53684 2.58826 6.74618 2.58826 6.14219 2.89601C5.61091 3.16671 5.17897 3.59866 4.90826 4.12993C4.60052 4.73391 4.60052 5.52459 4.60052 7.1059V16.8942C4.60052 18.4755 4.60052 19.2661 4.90826 19.8701C5.17897 20.4014 5.61091 20.8333 6.14219 21.1041C6.74618 21.4118 7.53684 21.4118 9.11817 21.4118H12.1299M14.0123 11.0588H8.36522M10.2476 14.8236H8.36522M15.8946 7.29415H8.36522M14.4828 18.5883L16.3653 20.4706L20.6006 16.2353" stroke="#3C4D5F" stroke-width="2.11765" stroke-linecap="round" stroke-linejoin="round"/>
</svg>
