<svg width="14" height="18" viewBox="0 0 14 18" fill="none" xmlns="http://www.w3.org/2000/svg">
<path d="M12.2055 4.02584C12.3688 2.84459 12.2055 2.05709 11.5504 1.32584C10.8399 0.538342 9.58399 0.144592 8.00082 0.144592H3.35866C3.08566 0.144592 2.75841 0.425842 2.70299 0.707092L0.791992 13.1946C0.791992 13.4196 0.955909 13.7008 1.22891 13.7008H4.06858L3.90466 14.9383C3.84983 15.1633 4.01374 15.3321 4.23191 15.3321H6.63524C6.90883 15.3321 7.18124 15.1633 7.23608 14.8821V14.7133L7.72724 11.7883V11.6758C7.78208 11.3946 8.05508 11.1696 8.32808 11.1696H8.65649C11.0038 11.1696 12.8063 10.2133 13.3523 7.40084C13.6253 6.21959 13.5168 5.26334 12.8612 4.58834C12.6972 4.36334 12.4237 4.19459 12.2055 4.02584Z" fill="#009CDE"/>
<path d="M12.2055 4.02584C12.3688 2.84459 12.2055 2.05709 11.5504 1.32584C10.8399 0.538342 9.58399 0.144592 8.00082 0.144592H3.35866C3.08566 0.144592 2.75841 0.425842 2.70299 0.707092L0.791992 13.1946C0.791992 13.4196 0.955909 13.7008 1.22891 13.7008H4.06858L4.83333 9.03209L4.77849 9.20084C4.83333 8.86334 5.10633 8.63834 5.43358 8.63834H6.79858C9.47491 8.63834 11.5504 7.51334 12.2055 4.36334C12.1512 4.19459 12.2055 4.13834 12.2055 4.02584Z" fill="#012169"/>
<path d="M5.54383 4.02584C5.59749 3.85709 5.70716 3.68834 5.87108 3.57584C5.97958 3.57584 6.03441 3.51959 6.14349 3.51959H9.74791C10.1854 3.51959 10.6212 3.57584 10.9502 3.63209C11.0587 3.63209 11.1683 3.63209 11.2774 3.68834C11.3865 3.74459 11.4956 3.74459 11.5504 3.80084C11.6047 3.80084 11.6589 3.80084 11.7143 3.80084C11.8777 3.85709 12.0416 3.96959 12.2055 4.02584C12.3688 2.84459 12.2055 2.05709 11.5504 1.26959C10.8947 0.482092 9.63941 0.144592 8.05508 0.144592H3.35866C3.08566 0.144592 2.75841 0.369592 2.70299 0.707092L0.791992 13.1946C0.791992 13.4196 0.955909 13.7008 1.22891 13.7008H4.06858L4.83333 9.03209L5.54383 4.02584Z" fill="#003087"/>
</svg>
