<svg width="25" height="24" viewBox="0 0 25 24" fill="none" xmlns="http://www.w3.org/2000/svg">
<path d="M14.42 7H16.7573C17.0018 7 17.1241 7 17.2392 7.02763C17.3413 7.05213 17.4388 7.09253 17.5283 7.14736C17.6292 7.2092 17.7157 7.29568 17.8886 7.46863L21.9514 11.5314C22.1243 11.7043 22.2108 11.7908 22.2726 11.8917C22.3275 11.9812 22.3679 12.0787 22.3924 12.1808C22.42 12.2959 22.42 12.4182 22.42 12.6627V15.5C22.42 15.9659 22.42 16.1989 22.3439 16.3827C22.2424 16.6277 22.0477 16.8224 21.8027 16.9239C21.6189 17 21.3859 17 20.92 17M15.92 17H14.42M14.42 17V7.2C14.42 6.07989 14.42 5.51984 14.202 5.09202C14.0103 4.71569 13.7043 4.40973 13.328 4.21799C12.9002 4 12.3401 4 11.22 4H5.61998C4.49988 4 3.93982 4 3.512 4.21799C3.13567 4.40973 2.82971 4.71569 2.63797 5.09202C2.41998 5.51984 2.41998 6.07989 2.41998 7.2V15C2.41998 16.1046 3.31541 17 4.41998 17M14.42 17H10.42M4.41998 17C4.41998 18.6569 5.76313 20 7.41998 20C9.07683 20 10.42 18.6569 10.42 17M4.41998 17C4.41998 15.3431 5.76313 14 7.41998 14C9.07683 14 10.42 15.3431 10.42 17M20.92 17.5C20.92 18.8807 19.8007 20 18.42 20C17.0393 20 15.92 18.8807 15.92 17.5C15.92 16.1193 17.0393 15 18.42 15C19.8007 15 20.92 16.1193 20.92 17.5Z" stroke="white" stroke-width="1.5" stroke-linecap="round" stroke-linejoin="round"/>
</svg>
